/* XPM */
static char *_530175c0b3549b0ffaf32acece05bd9Q4beGfuOtcNyRvkV[] = {
/* columns rows colors chars-per-pixel */
"64 64 104 2 ",
"   c #58A080",
".  c #64A587",
"X  c #63A487",
"o  c #5BA182",
"O  c #5AA181",
"+  c #73AB90",
"@  c #70AA8E",
"#  c #6EA98D",
"$  c #68A689",
"%  c #6AA78B",
"&  c #6CA88C",
"*  c #59A081",
"=  c #69A78A",
"-  c #67A689",
";  c #65A588",
":  c #6DA88D",
">  c #77AC93",
",  c #5DA283",
"<  c #7AAE94",
"1  c #5EA384",
"2  c #63A486",
"3  c #569F7F",
"4  c #4D9979",
"5  c #549D7D",
"6  c #519C7C",
"7  c #358B6B",
"8  c #4B9878",
"9  c #529C7C",
"0  c #419272",
"q  c #509B7B",
"w  c #338A6A",
"e  c #4A9878",
"r  c #559E7E",
"t  c #449474",
"y  c #4E9A7A",
"u  c #398E6E",
"i  c #499777",
"p  c #539D7D",
"a  c #529D7D",
"s  c #3C8F6F",
"d  c #4D9A7A",
"f  c #4C9979",
"g  c #579F7F",
"h  c #3D9070",
"j  c #459575",
"k  c #398D6D",
"l  c #4A9777",
"z  c #479676",
"x  c #549E7E",
"c  c #459474",
"v  c #439474",
"b  c #3F9171",
"n  c #3E9070",
"m  c #4F9A7A",
"M  c #3E9171",
"N  c #409171",
"B  c #429373",
"V  c #409272",
"C  c #439373",
"Z  c #3B8E6E",
"A  c #4F9B7B",
"S  c #5CA284",
"D  c #61A489",
"F  c #59A181",
"G  c #469575",
"H  c #378C6C",
"J  c #5AA182",
"K  c #5BA283",
"L  c #5EA386",
"P  c #66A78E",
"I  c #5FA387",
"U  c #64A68C",
"Y  c #5DA285",
"T  c #67A78F",
"R  c #489676",
"E  c #5FA487",
"W  c #5BA183",
"Q  c #5DA385",
"!  c #60A488",
"~  c #61A385",
"^  c #78AD93",
"/  c #5CA282",
"(  c #59A080",
")  c #68A68A",
"_  c #5CA283",
"`  c #62A486",
"'  c #6BA88B",
"]  c #6DA98D",
"[  c #5CA182",
"{  c #7EAF97",
"}  c #71AA8F",
"|  c #70A98E",
" . c #60A385",
".. c #3A8E6E",
"X. c #57A080",
"o. c #3B8F6F",
"O. c #388D6D",
"+. c #66A688",
"@. c #6FA98E",
"#. c #74AB91",
"$. c #75AB91",
"%. c #6BA88C",
"&. c #61A486",
"*. c #5EA284",
/* pixels */
"                                                                                                                                ",
"                                                                                                                  . X           ",
"                                                                                                          o O     + @     O o   ",
"                                                                                                          # $     + @     % &   ",
"                                                                                                          % & . * = - O ; : =   ",
"                                                                                                            % > O     , < $     ",
"                                                                                                            1 2 *     O . ,     ",
"                            3 4 5                                                                                               ",
"                            6 7 8                                                                                               ",
"                    9 0 9   q w e   r t y                                                                                       ",
"                    q u i p a s d r f s 8                                                                                       ",
"                    g p h j g p 3 8 k y 3                                                                                       ",
"                        l d       q z r                                                                                         ",
"                                                                                            x x                                 ",
"                                                                                            c v                                 ",
"                                                                                    f y     b n     m f                         ",
"          3 3                                                                       M 0 3   0 N   3 B h                         ",
"          z j                                                                       q j V r 6 q 3 0 c q                         ",
"  m q     V h     6 y                                                                 4 B r     3 C f                           ",
"  h V     V h     C Z                                                                                                           ",
"  y j B r A y 3 t t 4                                   4 C 3                                                       S D F       ",
"    f b x     3 0 e                             a q     G H x   x y 3                                       J K     L P J   F S ",
"    g r         r 3                             j s g   G H x   8 H 9                                       I U *   L P J   Y T ",
"                                                A j B 6 q i 3 e v R r                                       K E D W W L * Q ! E ",
"                                                  q k m       t t                                             W U S       ! D   ",
"                                                  3 9 3       x x                                             * J *       J J   ",
"                          ~ - O                                                                                                 ",
"                  O o     % ^ o   O / (                                                                                         ",
"                  ) #     % ^ o   . + ,                                                                                         ",
"                  ; # ) _ X & O ` ' ] [                                                                                         ",
"                    ` { 2       } |                                                                                             ",
"                    o ; [        . .                                                                                            ",
"                                                                                                                    p 4 3       ",
"                                                                                                                    i H p       ",
"                                                                                                            4 j 3   R 7 p   q V ",
"                                                                                                            l n 4 r f n x a z ..",
"                                                                                                            3 4 H f 3 x X.C b p ",
"                                                                                                              x G 9       4 8   ",
"                                                                                                                                ",
"                                                                                                                                ",
"                                                                                                                                ",
"                                                      3 3                                                                       ",
"                                                      t R                                                                       ",
"                                            X.4 6     s B     m m                                                               ",
"                                            3 u t     s B     b b                                                               ",
"            A N p                           X.4 t t X.y q 5 0 G A                                   e j                         ",
"    p y 3   8 w q   r 4 r                       l B X.    p M y                             6 q     B o.    p m X.              ",
"    i O.p   8 w q   y w y                       g 3         r g                             0 N     B o.    G ..3               ",
"    6 G B A a R x f C z p                                                                   d j C 5 m f   z t e g               ",
"      5 h 8       z 0                                                                         4 o.9       0 z                   ",
"      X.p 3       r 5                                                                         3 p g       5 r                   ",
"                                                                      X +.                                                      ",
"                                                              o o     @.#.    o /                                               ",
"                                                              & &     @.#.    - @ F                                             ",
"                                                              - : - o ; =   ; & % *                                             ",
"                                                                +.< 1     * $.%.                                                ",
"                                                                _ X O       &.*.                                                ",
"                                                                                                                                ",
"                                                                                                                                ",
"                                                                                                                                ",
"                                                                                                                                ",
"                                                                                                                                ",
"                                                                                                                                ",
"                                                                                                                                "
};
