/* XPM */
static char *_cd788a0c76d47b2f3794a8cf337e6f54ACUSoefKVjf3JZT[] = {
/* columns rows colors chars-per-pixel */
"64 64 14 1 ",
"  c None",
". c black",
"X c #703800",
"o c #A05818",
"O c #D87018",
"+ c #E03860",
"@ c #B08020",
"# c #D8B000",
"$ c #F8F000",
"% c #F89040",
"& c #D0B860",
"* c #F888A8",
"= c #F8F098",
"- c #F8F8F8",
/* pixels */
"                                                                ",
"                                                                ",
"                                                                ",
"                                                                ",
"                                                                ",
"                                                                ",
"                                                                ",
"                                                                ",
"                                                                ",
"                                                                ",
"                                                                ",
"                                                                ",
"                        ..            ..                        ",
"                        ..            ..                        ",
"                        &&..        ..&&                        ",
"                        &&..        ..&&                        ",
"                    ....  &&..oooo..&&  ....                    ",
"                    ....  &&..oooo..&&  ....                    ",
"                    ..++..@@oo$$$$oo@@..++..                    ",
"                    ..++..@@oo$$$$oo@@..++..                    ",
"                    ..**++XXoo##@@ooXX++**..                    ",
"                    ..**++XXoo##@@ooXX++**..                    ",
"            ..@@&&  ..oo@@&&oo$$$$oo&&@@oo..  &&@@..            ",
"            ..@@&&  ..oo@@&&oo$$$$oo&&@@oo..  &&@@..            ",
"              ....@@..&&====XX##@@XX====&&..@@....              ",
"              ....@@..&&====XX##@@XX====&&..@@....              ",
"                  ..oo==@@XX&&oooo&&XX@@==oo..                  ",
"                  ..oo==@@XX&&oooo&&XX@@==oo..                  ",
"            ..&&@@..==@@--oo--&&&&--oo--@@==..@@&&..            ",
"            ..&&@@..==@@--oo--&&&&--oo--@@==..@@&&..            ",
"              ....oo==@@--..--&&&&--..--@@==oo....              ",
"              ....oo==@@--..--&&&&--..--@@==oo....              ",
"                ....@@==&&XX@@====@@XX&&==oo....                ",
"                ....@@==&&XX@@====@@XX&&==oo....                ",
"              ..&&==XX&&================&&XX==&&..              ",
"              ..&&==XX&&================&&XX==&&..              ",
"              ..==@@....&&--@@XXXX@@--&&....@@==..              ",
"              ..==@@....&&--@@XXXX@@--&&....@@==..              ",
"                ..XX&&..@@XXXX&&&&XXXX@@..&&XX..                ",
"                ..XX&&..@@XXXX&&&&XXXX@@..&&XX..                ",
"                  ..@@==XX..@@XXXX@@..XX==@@..                  ",
"                  ..@@==XX..@@XXXX@@..XX==@@..                  ",
"                    ....  ..&&====&&..oo....                    ",
"                    ....  ..&&====&&..oo....                    ",
"                        ....XX&&&&XX....                        ",
"                        ....XX&&&&XX....                        ",
"                      ..oo&&@@....@@&&oo..                      ",
"                      ..oo&&@@....@@&&oo..                      ",
"                    ..%%OO....    ....OO%%..                    ",
"                    ..%%OO....    ....OO%%..                    ",
"                    ......            ......                    ",
"                    ......            ......                    ",
"                                                                ",
"                                                                ",
"                                                                ",
"                                                                ",
"                                                                ",
"                                                                ",
"                                                                ",
"                                                                ",
"                                                                ",
"                                                                ",
"                                                                ",
"                                                                "
};
