/* XPM */
static char *c1d83e10f6264f32f6da2e7ba1d4e0d4tQE1kfzu2pQiv0dz[] = {
/* columns rows colors chars-per-pixel */
"64 64 253 2 ",
"   c #010003",
".  c #04030C",
"X  c #09060D",
"o  c #060413",
"O  c #090614",
"+  c #0C0A1C",
"@  c #0A0816",
"#  c #100D1C",
"$  c #110E14",
"%  c #141313",
"&  c #16141E",
"*  c #100E0F",
"=  c #0E0923",
"-  c #120D24",
";  c #140C2C",
":  c #161225",
">  c #1A142B",
",  c #1D1A2C",
"<  c #181527",
"1  c #1C1332",
"2  c #1E1B32",
"3  c #1E173A",
"4  c #140A34",
"5  c #221D34",
"6  c #231B3A",
"7  c #25193B",
"8  c #21172C",
"9  c #262328",
"0  c #2B2536",
"q  c #26213A",
"w  c #2A233A",
"e  c #292637",
"r  c #353235",
"t  c #413C3D",
"y  c #1A0F41",
"u  c #261B47",
"i  c #2F1E56",
"p  c #2C2348",
"a  c #342B4D",
"s  c #352949",
"d  c #3A3549",
"f  c #2E2253",
"g  c #352B53",
"h  c #362858",
"j  c #3D3259",
"k  c #3B2C64",
"l  c #3E3163",
"z  c #44375B",
"x  c #423554",
"c  c #433364",
"v  c #463A65",
"b  c #4C3C6D",
"n  c #483969",
"m  c #4B3B72",
"M  c #483776",
"N  c #533D76",
"B  c #523E6B",
"V  c #3E4054",
"C  c #4A4556",
"Z  c #514B5D",
"A  c #524D4D",
"S  c #4E436A",
"D  c #53476D",
"F  c #5A5467",
"G  c #4D4275",
"H  c #5A4D75",
"J  c #53447B",
"K  c #5B4C7D",
"L  c #554775",
"P  c #5D5278",
"I  c #64597A",
"U  c #62586F",
"Y  c #656465",
"T  c #6A6576",
"R  c #74707B",
"E  c #625B58",
"W  c #4E3E84",
"Q  c #5D4B82",
"!  c #574784",
"~  c #5F5184",
"^  c #5D4F99",
"/  c #624F8D",
"(  c #614C84",
")  c #665983",
"_  c #62528B",
"`  c #6D5C8C",
"'  c #675787",
"]  c #715B8B",
"[  c #6C5B93",
"{  c #685897",
"}  c #725C97",
"|  c #624F93",
" . c #6D6383",
".. c #74678B",
"X. c #7B7784",
"o. c #6E6197",
"O. c #75639C",
"+. c #7D6B9D",
"@. c #776498",
"#. c #7D7396",
"$. c #6C5CA3",
"%. c #735FA3",
"&. c #7967A3",
"*. c #7C6BA4",
"=. c #7D6CAB",
"-. c #7566A4",
";. c #7F71B4",
":. c #776AAC",
">. c #85779A",
",. c #807293",
"<. c #826BA8",
"1. c #8473AC",
"2. c #8A79AA",
"3. c #826CB3",
"4. c #8572B3",
"5. c #8B75B4",
"6. c #8B7AB3",
"7. c #8A78BB",
"8. c #927CB8",
"9. c #937DC6",
"0. c #897CC3",
"q. c #8A868C",
"w. c #8A8695",
"e. c #9A9599",
"r. c #928E90",
"t. c #9C9AA6",
"y. c #9686B9",
"u. c #9387B0",
"i. c #A59AB5",
"p. c #A59BAA",
"a. c #A7A6A8",
"s. c #AAA2B7",
"d. c #B5B5B8",
"f. c #B5ACBA",
"g. c #9482C3",
"h. c #9984C4",
"j. c #9988C9",
"k. c #9B8DD2",
"l. c #9789D3",
"z. c #9E93D8",
"x. c #8C80C7",
"c. c #A28CCD",
"v. c #A189C7",
"b. c #A393CD",
"n. c #A899C8",
"m. c #A18CD3",
"M. c #A38AD9",
"N. c #A693D4",
"B. c #AB95DC",
"V. c #AC9BDB",
"C. c #A897D7",
"Z. c #B19EDC",
"A. c #B396D4",
"S. c #B5A7CB",
"D. c #BBB8C4",
"F. c #B6A9D9",
"G. c #B3B0CE",
"H. c #9A8DE2",
"J. c #AD9BE3",
"K. c #AB9DEC",
"L. c #A998E5",
"P. c #B39DE4",
"I. c #B39DEC",
"U. c #B598EA",
"Y. c #B69DF1",
"T. c #BB9FF3",
"R. c #AB95E9",
"E. c #ACA1E4",
"W. c #ACA1EC",
"Q. c #B3A2E4",
"!. c #BCAAE5",
"~. c #B4A3EC",
"^. c #BBA6EC",
"/. c #BCAAED",
"(. c #B8A7E9",
"). c #BCB2EA",
"_. c #ADA1F1",
"`. c #B3A2F1",
"'. c #BCA4F2",
"]. c #BDAAF1",
"[. c #BBA6F5",
"{. c #BEB0F1",
"}. c #C2BCC9",
"|. c #C6B5D5",
" X c #C2ACED",
".X c #C1A7EE",
"XX c #C5B3ED",
"oX c #CBBAEE",
"OX c #C8B6E7",
"+X c #D2BCEA",
"@X c #C2A5F3",
"#X c #CAA5F6",
"$X c #C4ACF3",
"%X c #CBACF4",
"&X c #CDACF9",
"*X c #C9A7F9",
"=X c #C6B2F3",
"-X c #CCB3F4",
";X c #CDBAF3",
":X c #CBB9F4",
">X c #D3B4F3",
",X c #D4BCF4",
"<X c #DBBDF6",
"1X c #DBBDF8",
"2X c #D6B8F9",
"3X c #D1ACF7",
"4X c #C6C4C9",
"5X c #CCC8D5",
"6X c #D3C9DB",
"7X c #D7D7D9",
"8X c #CDC1E9",
"9X c #D3C2EC",
"0X c #DBCDED",
"qX c #D7C7E8",
"wX c #DEDDE4",
"eX c #DCD3E9",
"rX c #D4C2F3",
"tX c #DBC3F5",
"yX c #DDCAF3",
"uX c #DDC3F9",
"iX c #D6C4F4",
"pX c #DFD5F0",
"aX c #E3D8ED",
"sX c #E2CBF4",
"dX c #E1C6F6",
"fX c #E3D4F4",
"gX c #E9D5F7",
"hX c #EADCF4",
"jX c #EDDAFA",
"kX c #E7D7F6",
"lX c #E9D1F5",
"zX c #DFE0E1",
"xX c #E3E3E5",
"cX c #EBEBED",
"vX c #E8E5EC",
"bX c #EDE3F4",
"nX c #EEECF2",
"mX c #EEE0F9",
"MX c #F2ECF5",
"NX c #F1E3FA",
"BX c #F4EDFA",
"VX c #F4EAF8",
"CX c #F4F3F4",
"ZX c #FBFAF7",
"AX c #F7F4F8",
"SX c #FAF5FB",
"DX c #FCFAFA",
"FX c white",
"GX c #FEFEFE",
"HX c #FDFDFD",
"JX c #FFFEFE",
"KX c #F9F6F7",
"LX c #F1EFEE",
/* pixels */
"FXFXFXFXFXFXFXFXFXFXFXFXFXFXFXFXFXFXFXFXFXFXFXFXFXFXFXFXFXFXFXFXFXFXHXFXFXZXCXcXxXwXnXHXHXFXFXFXFXFXFXFXFXFXFXFXFXFXFXFXFXFXFXFX",
"FXFXFXFXFXFXFXFXFXFXFXFXFXFXFXFXFXFXFXFXFXFXFXFXFXFXFXFXFXFXFXFXFXAXvX5XS.u.+.-.1.7.j.n.F.G.6XnXFXFXFXFXFXFXFXFXFXFXFXFXFXFXFXFX",
"FXFXFXFXFXFXFXFXFXFXFXFXFXFXFXFXFXFXFXFXFXFXFXFXFXHXFXHXDXAXvX7XD.S.i.v.k.j.z.J.K.~.[.`.`.I.k.u.D.CXFXFXFXFXFXFXFXFXFXFXFXFXFXFX",
"FXFXFXFXFXFXFXFXFXFXFXFXFXFXFXFXFXFXFXDXvXwXeXwXwX7X|.G.S.n.F.OXfXbXCXkXXX].].].$X].$X=X$X`.`.I.z.O.D.HXFXFXFXFXFXFXFXFXFXFXFXFX",
"FXFXFXFXFXFXFXFXFXFXFXFXFXFXFXFXHXvX}.n.n.c.N.V.V.V. XXX+X+XsXhXSXDXDXMX0X,XoX;X:X=X-X&X=X'.T.T.I.j.' i.HXFXFXFXFXFXFXFXFXFXFXFX",
"FXFXFXFXFXFXFXFXFXFXFXFXFXFXFXFX5X2.N.'.$X.X.X%X:X;X>X,XfXMXSXSXZXDXZXSXBXhXhXbXkX1X-X$X*X@X'.[.T.J.7.} 5XFXFXFXFXFXFXFXFXFXFXFX",
"FXFXFXFXFXFXFXFXFXFXFXFXFXFXKXi.*.M.'.=X*X-X2X<XtXtX>X<XBXDXDXDXDXZXDXFXDXSXSXSXNXgX2X$X$X$X*X@X'.Y.M.9.I 7XFXFXFXFXFXFXFXFXFXFX",
"FXFXFXFXFXFXFXFXFXFXFXFXFXCXi.4.R.T.$X&X-X2XuX<X<X<X>XyXSXDXDXDXDXDXDXDXDXDXDXSXNXpXrX-X=X$X$X=X@X[.Y.l.@.C xXFXFXFXFXFXFXFXFXFX",
"FXFXFXFXFXFXFXFXFXFXFXFXHXd.o.k.Y.@X&X-X>X2X<X<X<X<XtXhXSXDXDXDXDXDXDXDXDXDXDXSXhXyX,X-X-X].$X-X*XT.T.9.<.s d.FXFXFXFXFXFXFXFXFX",
"FXFXFXFXFXFXFXFXFXFXFXFXwXP O.m.Y.@X%X#X#X#X2X<X<XdXhXBXZXDXHXDXDXDXDXDXFXDXKXAXhXyXtX;X=X=X=X=X*XT.T.B.5.v w.FXFXFXFXFXFXFXFXFX",
"FXFXFXFXFXFXFXFXFXFXFXFXp.( 8.Z.^.*X%X*X3X#X3X1X<XlXNXSXDXDXDXDXDXDXDXDXDXDXDXSXhXiXrX-X-X:X-X-X[.T.T.Y.9.K T FXFXFXFXFXFXFXFXFX",
"FXFXFXFXFXFXFXFXFXFXFXCX .5.V.'.$X%X%X#X#X3X&X2XdXsXbXMXDXDXDXHXDXDXDXHXDXDXDXCXpXiX2X-X=X=X=X$X*XT.@XT.M.O.P DXFXFXFXFXFXFXFXFX",
"FXFXFXFXFXFXFXFXFXFXFX}.o.j.^.*X#X*X&X#X#X3X%X>X<X<XaXhXvXMXKXDXDXDXDXZXDXZXDXNXyXrX-X-X-X-X=X-X@X[.[.T.M.} H CXFXFXFXFXFXFXFXFX",
"FXFXFXFXFXFXFXFXFXFXFXT @.B.'.$X#X#X#X3X3X#X>X,XdX0XaXVXKXCXLXKXcXLXCXCXDXDXMXeXrX:X-X-X-X$X=X-X$X*XT.Y.9./ H CXFXFXFXFXFXFXFXFX",
"FXFXFXFXFXFXFXFXFXFXvXz 4.J.'.*X*X*X3X3X>X<XdXgXNXVXMXSXDXDXDXDXDXDXHXDXDXDXSXaX<X>X>X:X%X.X$X$X#X@XT.U.0./ H cXFXFXFXFXFXFXFXFX",
"FXFXFXFXFXFXFXFXFXFX}.B 7.R.`.@X3X3X3X<XlXfXNXSXSXDXZXZXHXDXHXDXDXDXDXDXDXDXSXNXfXyXtX,X%X-X#X$X@X@XT.R.4.[ F nXFXFXFXFXFXFXFXFX",
"FXFXFXFXFXFXFXFXFXFXw.L 8.N.B.^.%X-XiXtXgXaXVXSXDXDXHXHXZXDXDXDXDXDXHXZXZXHXSXMXbXbXNXyX1X>X3X%X*X].U.v.1.@.I ZXHXFXFXFXFXFXFXFX",
"FXFXFXFXFXFXFXFXFXKXY c ( / 4.F. X:XrXiX0X0XBXDXDXDXDXZXZXDXDXDXDXDXZXHXHXZXDXKXKXKXSXfXrXXX-XQ.N.v.h.*.] ) #.HXFXFXFXFXFXFXFXFX",
"FXFXFXFXFXFXFXFXFXcXx 1 n ( 6.A.!.!.OX9X9XiXfXbXBXSXZXZXZXZXZXZXZXZXZXZXZXZXZXSXSXMXhX8X!.F.F.b.y.2.<.' P D a.FXFXFXFXFXFXFXFXFX",
"FXFXFXFXFXFXFXFXFX7X0 D y.A.Q..X.XOXoXoX8XrXoX!.S.i.f.5XvXCXSXZXKXDXZXDXHXKXvX}.p.u.i.u.u.+.' P L S v v z Z wXFXFXFXFXFXFXFXFXFX",
"FXFXFXFXFXFXFXFXHX4Xs n.^.].^.N.5.*.@.<.+.u.n.!.!.N.&.'  .,.s.5XxXnXvX4Xp.,.H D H S U I  .) I #.>.' K j 2 r.KXFXFXFXFXFXFXFXFXFX",
"FXFXFXFXFXFXFXFXHXD.x 2.h.} M f D #.p.f.s.,.I ' 4.N.N.g.1.o.@.o.@...I z j j a 8 # & : < 8 C S s g U  .C d vXFXFXFXFXFXFXFXFXFXFX",
"FXFXFXFXFXFXFXFXFX4Xs n u 4 S w.,.U A A x C F ..2.u.6.8.6.2.y.x.0.&.m z x 7 @                 . + + = # R HXFXFXFXFXFXFXFXFXFXFX",
"FXFXFXFXFXFXFXFXFX5X9 + < d < @ .         .   o + 4 p j l J ;.k.k.8.[ n 0 @         % r.a.E   9 %   . * a.FXFXFXFXFXFXFXFXFXFXFX",
"FXFXFXFXFXFXFXFXFX7Xr o @ X . . % .     9 r.r       . o = p -.k.k.c.} z ; 0         % E E A   % A %   % 4XFXFXFXFXFXFXFXFXFXFXFX",
"FXFXFXFXFXFXFXFXFXCXF .   . @ E Y       % 9 *         r e o S V.k.b.O.i x d         r 9         t Y X & 4XFXFXFXFXFXFXFXFXFXFXFX",
"FXFXFXFXFXFXFXFXHXHXa.    X C }.R                     A d.a : o.!.F.2.h >.a         r %         r 4XC , 5XHXFXFXFXFXFXFXFXFXFXFX",
"FXFXFXFXFXFXFXFXFXHXd.  . = G G.w..                 % r.nXi.q f ).OX*.! i.j .                   x 5XH e d.FXFXFXFXFXFXFXFXFXFXFX",
"FXFXFXFXFXFXFXFXFXHXa.. @ q [ L.V.V               O T 5XD.u.~ #.9XoXb.~ y.#.@ .               . E i.P q q.FXFXFXFXFXFXFXFXFXFXFX",
"FXFXFXFXFXFXFXFXFXFXe.. - a _ 7.G.s.p o . o = 5 a D #.w.u.S.6XpXfX9X0XqX2.y.S .               9 2.2.G f Z KXFXFXFXFXFXFXFXFXFXFX",
"FXFXFXFXFXFXFXFXFXHXR : p h l N Q ~ S g P #.n.G.F.).).).8XpXpXpXbXeXqXaXqXn.+.d # X       o e I K k ~ ) d xXFXFXFXFXFXFXFXFXFXFX",
"FXFXFXFXFXFXFXFXFXcXZ s b ( [ [ { ! k Q g.E.).).{.).).).8XrXiXeXBXMXeX8X|.oXOXF.s.e.q.R I .._ ~ ~ 1.j.u.z 7XFXFXFXFXFXFXFXFXFXFX",
"FXFXFXFXFXFXFXFXHXzXd N ( ' 8.b.c.b.Z.Q.Q.W.Q.J.W.(.).=X;XoXOXOXbXZXCX0XOX!.Z.n.A.|.6X+XS.y.C.(.(.Z.B.N.) 4XFXFXFXFXFXFXFXFXFXFX",
"FXFXFXFXFXFXFXFXFXzXx } %.3.y.m.C.B.P.P.Q.Q.Q.Z.(./.XX:XoXXX XOXMXDXKXhX+X:X XA.i.y.2.8.y.A.(.!..X@X@X^.+.r.DXFXFXFXFXFXFXFXFXFX",
"FXFXFXFXFXFXFXFXFXCXF 5.M.A.P.Q.Q.^.(.Q.!.OX+XtXiXrXrX;X=X/. X8XMXDXSXaX,X<X<XtXsX+X+XOXOX%X%X-X-X$X%X@X<.t.FXFXFXFXFXFXFXFXFXFX",
"FXFXFXFXFXFXFXFXFXDXX.6.(.*X=X=X%X X:X1XsXsXjXjXfXyXrXoX=X$X X8XMXDXKXqX-X>X>XtXdXjXmXgXdX<X<X<X<X>X%X#XA.s.HXFXFXFXFXFXFXFXFXFX",
"FXFXFXFXFXFXFXFXFXHXX.@.(.$X:X,X,X2XtXtXsXsXdXdXuXdX1X-X].].{.8XAXDXCX+X%X#X#X>XdXlXNXNXjXsXtXdXuX<X>X@Xc.>.KXFXFXFXFXFXFXFXFXFX",
"FXFXFXFXFXFXFXFXFXHXw.' C..X;XtXuXuXuXjXjXsXdX<X1X<X>X$X^.'.].9XSXDXbXOX$X^..X.XXX9XgXNXjXsXdXtXtX<X3X.Xh...CXFXFXFXFXFXFXFXFXFX",
"FXFXFXFXFXFXFXFXFXFX4XB y. X-XrXiXuXtXgXgXtXuX1X2X>X.X.X[.'.^.9XSXSXhXXX$X].^.I.U.Q.+XtXdXuXuXuXuX<X-XP.4.I LXFXFXFXFXFXFXFXFXFX",
"FXFXFXFXFXFXFXFXFXFXnXs *.Q.=X,XiXtX0XsXsXtX-X$X'.^.^.'.[.'.XX0XSXSXyX X].^.^.W.k.4.Z.XX-X-X>X<X>X-X.Xv.<.U KXFXFXFXFXFXFXFXFXFX",
"FXFXFXFXFXFXFXFXFXFXFXZ v 6.%X:XrXrXiXuXrX=X(.K.Y.`.`.Y.`.^.{.hXZXKXqX/./.).{.(.4.W O.Q.].$X-X-X-X-X.X5.P  .AXFXFXFXFXFXFXFXFXFX",
"FXFXFXFXFXFXFXFXFXFXFXt.6 ( P.%X:X:X,X;X=XP.9.7.J.`.`.K.`.^.oXBXDXNXOX^./.{.{.Q.$.~ h 4.(.]./.].$X*X!.5.z Y DXFXFXFXFXFXFXFXFXFX",
"FXFXFXFXFXFXFXFXFXFXFXcXd a 8..X=X=X=X].Q.7.| ! b.].`.~.~.~.9XbXSXaXOX(.W.=X=XV.;.j.M N m.~.].].].'.P.<.s q.FXFXFXFXFXFXFXFXFXFX",
"FXFXFXFXFXFXFXFXFXFXFXFXq.6 H c./.].'.I.9.$.9.{ 7./.{.'.~.].8XnXSXqX$X^./.{./.L.z.W.1.i &.J.T.T.T.[.J.} 5 4XFXFXFXFXFXFXFXFXFXFX",
"FXFXFXFXFXFXFXFXFXFXFXFXxXz z +.B.I.U.9.$.9.Y.l.$.E.{.`.~./.8XbXBX+X/.]././.W.K._.`.k.f G h.J.Y.Y.U.c.( w CXFXFXFXFXFXFXFXFXFXFX",
"FXFXFXFXFXFXFXFXFXFXFXFXFXa.a ' y.9.=.| 4.K./.Q.:.{ L.~.~.`.oX0XfXXX].^.~.N.l.K.`._.J.K u _ v.R.I.m.} h T FXFXFXFXFXFXFXFXFXFXFX",
"FXFXFXFXFXFXFXFXFXFXFXFXFXKXU H } %.N h =.~.`.`.L.M M 4.V.^.=XoX,X/.$XQ.4.$.H._._.`.~.=.y i &.9.v.2.N s 7XFXFXFXFXFXFXFXFXFXFXFX",
"FXFXFXFXFXFXFXFXFXFXFXFXFXFXvXz +.4.| k { Q._._.W.z.n y ~ Z.).{.=X/.Q.-.M ;.K._._.`._.j.7 ; c { <.] x ,.FXFXFXFXFXFXFXFXFXFXFXFX",
"FXFXFXFXFXFXFXFXFXFXFXFXFXFXFXw.` k.C.;.| 8.z.l.L._.b.K 4 S C./.~.Q.;.l u.H.W.W._.K.R.5.1 = p J <.' x 5XFXFXFXFXFXFXFXFXFXFXFXFX",
"FXFXFXFXFXFXFXFXFXFXFXFXFXFXFXKX..8.~.B.| ! <.7.l.L.W.V.) > j ;.g.:.;.x.W.W.W.z.x.j.c.( u f c _ <.n q.ZXFXFXFXFXFXFXFXFXFXFXFXFX",
"FXFXFXFXFXFXFXFXFXFXFXFXFXFXFXFX6X) P.^.8.m L [ :.z.W.W.E.=.p 4 y $.K.W._._.L.x.$.| ( c ! *.O.1.K x xXHXFXFXFXFXFXFXFXFXFXFXFXFX",
"FXFXFXFXFXFXFXFXFXFXFXFXFXFXFXFXDXa.@.!.Z._ i u u G ;.l.H.L.l.~ ! z.K.W.W.W.K.4.G c c N 9.J.v.*.S }.FXHXFXFXFXFXFXFXFXFXFXFXFXFX",
"FXFXFXFXFXFXFXFXFXFXFXFXFXFXFXFXFXvXs [ v.} m b j u h { { :.x.l.l.l.H.H.H.x.-.v u p c <.U.U.y...5XZXFXFXFXFXFXFXFXFXFXFXFXFXFXFX",
"FXFXFXFXFXFXFXFXFXFXFXFXFXFXFXFXFXKXr = s B K 1.g.4.! f f G { ^ ^ -.0.;.:.N f 7 8 u N v.A.1.I vXFXFXFXFXFXFXFXFXFXFXFXFXFXFXFXFX",
"FXFXFXFXFXFXFXFXFXFXFXFXFXFXFXFXFXFXY . O 8 j ^ ;.l.j.&.G ! $.:.;.;.-.! M ! O.O.] B B ] S > d.FXFXFXFXFXFXFXFXFXFXFXFXFXFXFXFXFX",
"FXFXFXFXFXFXFXFXFXFXFXFXFXFXFXFXFXFXr.o X o 1 h Q -.-.{ $.-.*.L g ! o.$.<.4.h.9.&.b 7 ; o < 7XFXFXFXFXFXFXFXFXFXFXFXFXFXFXFXFXFX",
"FXFXFXFXFXFXFXFXFXFXFXFXFXFXFXFXHXcXA < : . @ 4 g m Q n k f y ; = > p G { { =.o.c q - o # , 4XFXFXFXFXFXFXFXFXFXFXFXFXFXFXFXFXFX",
"FXFXFXFXFXFXFXFXFXFXFXFXFXFXFXFXzXV : , , , o + 3 p l l l k g g g 6 1 1 f G ' G p # X $ , < X.HXFXFXFXFXFXFXFXFXFXFXFXFXFXFXFXFX",
"FXFXFXFXFXFXFXFXFXFXFXFXFXFXFXnXd < 6 5 5 2 : o : 2 g G ~ =.6.o. .P D v ~ J K p < X * , 6 5 < t.HXFXFXFXFXFXFXFXFXFXFXFXFXFXFXFX",
"FXFXFXFXFXFXFXFXFXFXFXFXFXFXHXX., , 5 6 6 2 , @ @ : 2 g G o.2.~ ~ ) ~ o.o.' j - o o < 2 5 6 2 w zXFXFXFXFXFXFXFXFXFXFXFXFXFXFXFX",
"FXFXFXFXFXFXFXFXFXFXFXFXFXFX7X9 5 0 w w 6 3 2 < o . @ 4 u f v j v v v S j a > @ @ , 2 2 q q q 1 q.FXFXFXFXFXFXFXFXFXFXFXFXFXFXFX",
"FXFXFXFXFXFXFXFXFXFXFXFXFXKXF 2 w w w 5 3 6 6 5 :   . . o : 4 6 u a 7 3 > # o + 1 2 2 , 5 0 w q d nXFXFXFXFXFXFXFXFXFXFXFXFXFXFX",
"FXFXFXFXFXFXFXFXFXFXFXFXFXa.: 2 w q 5 8 : - > 5 9 $       o + : : > - @ @ . o , 2 > : : , 5 q q 5 d.FXFXFXFXFXFXFXFXFXFXFXFXFXFX",
"FXFXFXFXFXFXFXFXFXFXFXFXxXe < e w 5 5 < # # < q w 0 # .   . . o + @ . . . X 9 e 9 : + = > 8 q e 5 F DXFXFXFXFXFXFXFXFXFXFXFXFXFX"
};
