/* XPM */
static char *_f5cde6662d94b94dcaf91b2ed469456H1GOt2coxabZicbF[] = {
/* columns rows colors chars-per-pixel */
"64 64 21 1 ",
"  c #606068",
". c #303850",
"X c #8890A0",
"o c #C0C0C8",
"O c #A0A8B8",
"+ c #404058",
"@ c #708088",
"# c #58A080",
"$ c #308868",
"% c #603838",
"& c #402830",
"* c #705050",
"= c #A89880",
"- c #907068",
"; c #90B080",
": c #A89868",
"> c #B8B068",
", c #A89050",
"< c #A04038",
"1 c #A85048",
"2 c #80B098",
/* pixels */
"     .XXXXXXXXXXXXXXXXXXXXXXXXXXXXXXXXXXXXXXXXXXXXXXXXXXXX.     ",
" oooo.XXXXXXXXXXXXXXXXXXXXXXXXXXXXXXXXXXXXXXXXXXXXXXXXXXXX.oooo ",
" oOOO.XXXXXXXXXXXXXXXXXXXXXXXXXXXXXXXXXXXXXXXXXXXXXXXXXXXX.OOOo ",
" oOOO.XXXXXXXXXXXXXXXXXXXXXXXXXXXXXXXXXXXXXXXXXXXXXXXXXXXX.OOOo ",
" oOOO.XXXXXXXXXXXXXXXXXXXXXXXXXXXXXXXXXXXXXXXXXXXXXXXXXXXX.OOOo ",
" oOOO.                                                    .OOOo ",
" oOOO.                                                    .OOOo ",
" oOOO......................................................OOOo ",
" oOOOO++++++++++++++++++++++++++++++++++++++++++++++++++++OOOOo ",
" oOOOO++++++++++++++++++++++++++++++++++++++++++++++++++++OOOOo ",
" oOOOO++++++++++++++++++++++++++++++++++++++++++++++++++++OOOOo ",
" oOOOO++++++++++++++++++++++++++++++++++++++++++++++++++++OOOOo ",
" oOOOO.+++++++++++++++++++++++++++++++++++++++++++++++++++OOOOo ",
" oOOOO.+++++++++++++++++++++++++++++++++++++++++++++++++++OOOOo ",
" oOOOO.+++++++++++++++++++++++++++++++++++++++++++++++++++OOOOo ",
" oOOOO.+++++++++++++++++++++++++++++++++++++++++++++++++++OOOOo ",
" oOOOO.+++++++++++++++++++++++++++++++++++++++++++++++++++OOOOo ",
" oOOOO.  .                                            .  .OOOOo ",
" @@@@@.@@.                                          @@.OO.@@@@@ ",
" @@@@@.OO.@@@XXXXXXXXXXXXXXXXXXXXXXXXXXXXXXXXXXXXXXXXX.OO.OOOOo ",
" @@@@@.OO.OOOOOOOOOOOOOOOOOOOOOOOOOOOOOOOOOOOOOOOOOOOO.OO.@@@@@ ",
" oOOOO.OO.OOOOOOOOOOOOOOOOOOOOOOOOOOOOOOOOOOOOOOOOOOOO.OO.OOOOo ",
" oOOOO.OO.OOOOOOOOOOOOOOOOOOOOOOOOOOOOOOOOOOOOOOOOOOOO.OO.OOOOo ",
".......OO.@@@@@@@@@@@@@@@@@@@@@@@@@@@@@@@@@@@@@@@@@@@@.OO...####",
"#######OO.@@@@@@@@@@@@OOOOOOOOOOOOOOOOOOOOOOOOOOOOOOOO.@@.######",
"$#%%%$#@@.OOOOOOOOOOOOOOOOOOOOOOOOOOOOOOOOOOOOOOOOOOOO.@@.#%%%##",
"#&*=*&#@@.OOOOOOOOOOOOOOOOOOOOOOOOOOOOOOOOOOOOOOOOOOOO.@@.&*==&#",
"#&===&#@@.@@@@@@@@@@@@@@@@@@@@@@@@@@@@@@@@@@@@@@@@@@@@.@@.&=-=&#",
"#&=-=&#@@.@@@@@@@@@@@@@@@@@@@@@@@@@@@@@@@@@@@@@@@@@@@@.@@.&=--&#",
"#&%=%&#@@.....................                        ....&*%%&#",
"#&%%%&########;;;:>>>>>>>>>>>>>>>>>>>>>>>>>>>>:;;;########&%%%&#",
"#&%%%&########;;;:>>>>>>>>>>>>>>>>>>>>>>>>>>>>:;;;########&%%%&#",
"#&%&%&#########;;;:>>>>>>>>>:>>>>>>>>>>>>:>>>>:;;;########&%&&&#",
"#&&=&&#########;;;:>>>>>>>>>>>>>>>>>>>>>>>>>>>>;;;########&&==&#",
"#&===&#########;;;:>>>>>>>>>>>>>>>>>>>>>>>>>>>:;;;########&=--& ",
"#&%=%& $##$#$#;;;:>>>>>>>>>>>>,>>>>>>>>>>>>>>>:;;;;#######&%==& ",
"#&*%*& #$##$##;;;:>>>>>>>>>>>>>>>>>>>>>>>>>>>>>;;;;#######&*%%& ",
"#&%%%&########;;;:>>>>>>>>>>>>>>>>>>>>>>>>>>>>>;;;;########%%%&#",
"#&%%%&########;;;:>>>>>>>>>>>>>>>>>>>>>>>>>>>>:;;;;########%%%&#",
"#&%&%&##%%%####;;;:>>>>>>>>>>>>>>>>>>>>>>>>>>>:;;;##&*=*&##&==&#",
"#&&=&&#&=-=&###;;;:>>>>>>>>>>>>>>:>>>,>>>>>>>>>;;;##&=-=&##=-==#",
"#&=-=& &=--&###;;;:>>>>>>>>>>>>>>>>>>>>>>>>>>>:;;;##&=-=&##=--= ",
"#&%=%& &%==&##;;;:>>>>>>>>>>>>>>>>>>,>>>>>>>>>:;;;;#&%=%&##%==% ",
"#&*%*& &*%%&##;;;:>>>>>>>>>>>>>>>>>>>>>>>>>>>>>;;;;#&*%*&#$*%%* ",
"#&*%*&#&%%%&##;;;;>>>>>>>>>>>>>>>>>>>>>>>>>>>>>;;;;#&%%%&##*%%*#",
"#&*%*&#&%%%&###;;;;:;;:;;::;;;;::;;:;;::;;;::;;;;###&%&%&##*%%*#",
"#&%%%&#&&==&###;;;;;;;;;;;;;;;;;;;;;;;;;;;;;;;;;;###&&=&&##%%%%#",
"#&%%%&#&=-=&####;;;;;;;;;;;;;;;;;;;;;;;;;;;;;;;;####&=-=&##%%%%#",
"# &&&  &=--& #####;;;;;;;;;;;;;;;;;;;;;;;;;;;;;#####&=-=& #&&&& ",
"##     &%==& ######;;###;;;####;;;###;;;###;;#######&%=%& #     ",
"###   #&*%%& ##########################X...XXXX...X#&%%%&#######",
"#######&%%%&###########################..@@....@@..#&%%%&#######",
"#######&%&&&###########################oooooooooooo#&%&%&#######",
"####$##&&==&#####$#####################oooooooooooo#&&=&&#######",
"##$#$##&=-=&#####$#$###################XXXXXXXXXXXX#&=-=&#######",
"######$&=--& ##$#######################XX<XXX1XX<XX#&%=%& ######",
"#######&*%%& ################$##$######X1<XX<<XX<1X#&*%*& $#####",
"#######&*%%&###########################XX1XXX1XX1XX#&*%*&#######",
"#######&*%%&##########2################XXXXXXXXXXXX#&*%*&#######",
"#######&*%%&#######2##2#2##############  @@    @@@ #&*%*&#######",
"#######&%%%&########2##2###############XXX.........#&%%%&#######",
"####### &&&  ########################## .@.    .@. # &&&  ######",
"########     ########################## ...    ... ##     ######",
"#########   ###########################            ###   #######"
};
