/* XPM */
static char *_844c9d17fd140978f0b4bbe3b1f4ca7DcygnEScqWZwlaJc[] = {
/* columns rows colors chars-per-pixel */
"64 64 9 1 ",
"  c white",
". c black",
"X c #D8B000",
"o c #A06800",
"O c #F8F000",
"+ c #F8F8F8",
"@ c #F88058",
"# c #D03800",
"$ c #B87020",
/* pixels */
"                                                                ",
"                                                                ",
"                                                                ",
"                                                                ",
"                                                                ",
"                                                                ",
"                                                                ",
"                                                                ",
"                                                                ",
"                                                                ",
"                                                                ",
"                                                                ",
"                        ........                                ",
"                        ........                                ",
"                  ............                                  ",
"                  ............                                  ",
"            ......XXXXXXoo..                        ....        ",
"            ......XXXXXXoo..                        ....        ",
"        ....ooXXXXooOOXX..                        ..OOOO..      ",
"        ....ooXXXXooOOXX..                        ..OOOO..      ",
"      ..XXOOOOOOOOOOXX..                        ..OOOOOO....    ",
"      ..XXOOOOOOOOOOXX..                        ..OOOOOO....    ",
"    ..XXOOOOOOOOOOOOOOXX..                    ..OOOOOOOOOOOO..  ",
"    ..XXOOOOOOOOOOOOOOXX..                    ..OOOOOOOOOOOO..  ",
"    ..OOOOOOOOOOOOOOXXoooo..........        ..XXOOOOOOOOOOOO..  ",
"    ..OOOOOOOOOOOOOOXXoooo..........        ..XXOOOOOOOOOOOO..  ",
"  ..ooOOOOOOOOOOOOOOOOOOOOXXoo....          ..OOOOOOOOOOXX..    ",
"  ..ooOOOOOOOOOOOOOOOOOOOOXXoo....          ..OOOOOOOOOOXX..    ",
"  ..XXXX++..XXOOOOOOOOOOXX......            ..OOOOOOXX....      ",
"  ..XXXX++..XXOOOOOOOOOOXX......            ..OOOOOOXX....      ",
"  ..OOOO..ooOOOOOOOOXXoo..XXoo......      ....OOOOXX..          ",
"  ..OOOO..ooOOOOOOOOXXoo..XXoo......      ....OOOOXX..          ",
"  ..XXOOOO@@##OOOOOOOOOOXXXXooXXoooo..  ..XXOOOOOOOO..          ",
"  ..XXOOOO@@##OOOOOOOOOOXXXXooXXoooo..  ..XXOOOOOOOO..          ",
"  ..####OO####XX$$XXOOOOOOooooXXooXXoo....OOXXOOOOXX..          ",
"  ..####OO####XX$$XXOOOOOOooooXXooXXoo....OOXXOOOOXX..          ",
"    ..@@OOOOoo$$XXOOOOOOOOooXXooooXXoo..ooXXoo......            ",
"    ..@@OOOOoo$$XXOOOOOOOOooXXooooXXoo..ooXXoo......            ",
"      ....ooOOOOOOOOOOOOOOXXOOooXXXXoooooo....                  ",
"      ....ooOOOOOOOOOOOOOOXXOOooXXXXoooooo....                  ",
"          ..XXOOXX$$XXOOOOOOOOOOXXoooo......                    ",
"          ..XXOOXX$$XXOOOOOOOOOOXXoooo......                    ",
"            ....ooooOOOOOOOOOOXXXXXX..                          ",
"            ....ooooOOOOOOOOOOXXXXXX..                          ",
"                ....XXOOOOOOXXooXXOO..                          ",
"                ....XXOOOOOOXXooXXOO..                          ",
"                    ..ooXXXXooXXOOXX..                          ",
"                    ..ooXXXXooXXOOXX..                          ",
"                      ..........OO..                            ",
"                      ..........OO..                            ",
"                                ..                              ",
"                                ..                              ",
"                                                                ",
"                                                                ",
"                                                                ",
"                                                                ",
"                                                                ",
"                                                                ",
"                                                                ",
"                                                                ",
"                                                                ",
"                                                                ",
"                                                                ",
"                                                                "
};
