/* XPM */
static char *d1e235ae1c2d48e29440095fd053283f3EjnkWGKQS8xZPvU[] = {
/* columns rows colors chars-per-pixel */
"64 64 9 1 ",
"  c white",
". c black",
"X c #A06800",
"o c #D8B000",
"O c #F8F000",
"+ c #F8F8F8",
"@ c #D03800",
"# c #F88058",
"$ c #B87020",
/* pixels */
"                                                                ",
"                                                                ",
"                                                                ",
"                                                                ",
"                                                                ",
"                                                                ",
"                                                                ",
"                                                                ",
"                                                                ",
"                                                                ",
"                                                                ",
"                                                                ",
"                                ........                        ",
"                                ........                        ",
"                                  ............                  ",
"                                  ............                  ",
"        ....                        ..XXoooooo......            ",
"        ....                        ..XXoooooo......            ",
"      ..OOOO..                        ..ooOOXXooooXX....        ",
"      ..OOOO..                        ..ooOOXXooooXX....        ",
"    ....OOOOOO..                        ..ooOOOOOOOOOOoo..      ",
"    ....OOOOOO..                        ..ooOOOOOOOOOOoo..      ",
"  ..OOOOOOOOOOOO..                    ..ooOOOOOOOOOOOOOOoo..    ",
"  ..OOOOOOOOOOOO..                    ..ooOOOOOOOOOOOOOOoo..    ",
"  ..OOOOOOOOOOOOoo..        ..........XXXXooOOOOOOOOOOOOOO..    ",
"  ..OOOOOOOOOOOOoo..        ..........XXXXooOOOOOOOOOOOOOO..    ",
"    ..ooOOOOOOOOOO..          ....XXooOOOOOOOOOOOOOOOOOOOOXX..  ",
"    ..ooOOOOOOOOOO..          ....XXooOOOOOOOOOOOOOOOOOOOOXX..  ",
"      ....ooOOOOOO..            ......ooOOOOOOOOOOoo..++oooo..  ",
"      ....ooOOOOOO..            ......ooOOOOOOOOOOoo..++oooo..  ",
"          ..ooOOOO....      ......XXoo..XXooOOOOOOOOXX..OOOO..  ",
"          ..ooOOOO....      ......XXoo..XXooOOOOOOOOXX..OOOO..  ",
"          ..OOOOOOOOoo..  ..XXXXooXXooooOOOOOOOOOO@@##OOOOoo..  ",
"          ..OOOOOOOOoo..  ..XXXXooXXooooOOOOOOOOOO@@##OOOOoo..  ",
"          ..ooOOOOooOO....XXooXXooXXXXOOOOOOoo$$oo@@@@OO@@@@..  ",
"          ..ooOOOOooOO....XXooXXooXXXXOOOOOOoo$$oo@@@@OO@@@@..  ",
"            ......XXooXX..XXooXXXXooXXOOOOOOOOoo$$XXOOOO##..    ",
"            ......XXooXX..XXooXXXXooXXOOOOOOOOoo$$XXOOOO##..    ",
"                  ....XXXXXXooooXXOOooOOOOOOOOOOOOOOXX....      ",
"                  ....XXXXXXooooXXOOooOOOOOOOOOOOOOOXX....      ",
"                    ......XXXXooOOOOOOOOOOoo$$ooOOoo..          ",
"                    ......XXXXooOOOOOOOOOOoo$$ooOOoo..          ",
"                          ..ooooooOOOOOOOOOOXXXX....            ",
"                          ..ooooooOOOOOOOOOOXXXX....            ",
"                          ..OOooXXooOOOOOOoo....                ",
"                          ..OOooXXooOOOOOOoo....                ",
"                          ..ooOOooXXooooXX..                    ",
"                          ..ooOOooXXooooXX..                    ",
"                            ..OO..........                      ",
"                            ..OO..........                      ",
"                              ..                                ",
"                              ..                                ",
"                                                                ",
"                                                                ",
"                                                                ",
"                                                                ",
"                                                                ",
"                                                                ",
"                                                                ",
"                                                                ",
"                                                                ",
"                                                                ",
"                                                                ",
"                                                                "
};
