/* XPM */
static char *_9ac6ce215ed4745ac8b0b154d747e82HhuQAWbMjtV2yxbP[] = {
/* columns rows colors chars-per-pixel */
"64 64 8 1 ",
"  c None",
". c black",
"X c #D03800",
"o c #A06800",
"O c #D8B000",
"+ c #F8F000",
"@ c #F88058",
"# c #F8F8F8",
/* pixels */
"                                                                ",
"                                                                ",
"                                                                ",
"                                                                ",
"                                                                ",
"                                                                ",
"                                                                ",
"                                                                ",
"                                 ........                       ",
"                                 ........                       ",
"                             ....oo....                         ",
"                             ....oo....                         ",
"                           ..OO++oo..          ....             ",
"                           ..OO++oo..          ....             ",
"                         ..OO++OO..          ..++++..           ",
"                         ..OO++OO..          ..++++..           ",
"                     ............          ..++++++....         ",
"                     ............          ..++++++....         ",
"                   ..ooOO++++OOoo..        ..++++++++++..       ",
"                   ..ooOO++++OOoo..        ..++++++++++..       ",
"                 ..OO++++++++++OOoo........++++++++++++..       ",
"                 ..OO++++++++++OOoo........++++++++++++..       ",
"               ..oo++++++++++OO++++++oo......++++++++..         ",
"               ..oo++++++++++OO++++++oo......++++++++..         ",
"               ..OO++++++++++++++++oo......++++++++..           ",
"               ..OO++++++++++++++++oo......++++++++..           ",
"               ..++++++++++++++OO........++++++OO..             ",
"               ..++++++++++++++OO........++++++OO..             ",
"             ..oo++##..++++OOooooOOoo..  ..++++++OO..           ",
"             ..oo++##..++++OOooooOOoo..  ..++++++OO..           ",
"             ..++++..oo++++++++++OOoo..    ..++++++OO..         ",
"             ..++++..oo++++++++++OOoo..    ..++++++OO..         ",
"             ..++++++@@XX++++++++++OO..      ..++OO..           ",
"             ..++++++@@XX++++++++++OO..      ..++OO..           ",
"             ..OO++++XXXX++++++++OOoo..    ..++OO..             ",
"             ..OO++++XXXX++++++++OOoo..    ..++OO..             ",
"               ..OO++++++OO++++OOooooOO....OOOO....             ",
"               ..OO++++++OO++++OOooooOO....OOOO....             ",
"                 ..oo++OO++++++++++++oo..  ..OOOOoo..           ",
"                 ..oo++OO++++++++++++oo..  ..OOOOoo..           ",
"                 ....++oo++++OO++++oooooo..oooooo..             ",
"                 ....++oo++++OO++++oooooo..oooooo..             ",
"                 ..oo++oo++++ooOOooooOO..oooo....               ",
"                 ..oo++oo++++ooOOooooOO..oooo....               ",
"                 ..OO++oo++OOoo++OOOOOOoo....                   ",
"                 ..OO++oo++OOoo++OOOOOOoo....                   ",
"                 ..ooOO++ooOO++++++OOoo..                       ",
"                 ..ooOO++ooOO++++++OOoo..                       ",
"                   ..ooOO++++++OOOOoo..                         ",
"                   ..ooOO++++++OOOOoo..                         ",
"                     ..ooooOOoooo....                           ",
"                     ..ooooOOoooo....                           ",
"                   ..OO++++++OO..                               ",
"                   ..OO++++++OO..                               ",
"                     ..........                                 ",
"                     ..........                                 ",
"                                                                ",
"                                                                ",
"                                                                ",
"                                                                ",
"                                                                ",
"                                                                ",
"                                                                ",
"                                                                "
};
