/* XPM */
static char *_9fb94ab663b422db3fe7f3aab7bb376b23slXvWrEteEgHd[] = {
/* columns rows colors chars-per-pixel */
"64 64 9 1 ",
"  c None",
". c black",
"X c #D03800",
"o c #A06800",
"O c #B87020",
"+ c #D8B000",
"@ c #F8F000",
"# c #F88058",
"$ c #F8F8F8",
/* pixels */
"                                                                ",
"                                                                ",
"                                                                ",
"                                                                ",
"                                                                ",
"                                                                ",
"                                                                ",
"                                                                ",
"                                                                ",
"                                                                ",
"                                                                ",
"                                                                ",
"                        ........                                ",
"                        ........                                ",
"                  ............                                  ",
"                  ............                                  ",
"            ......++++++oo..                        ....        ",
"            ......++++++oo..                        ....        ",
"        ....oo++++oo@@++..                        ..@@@@..      ",
"        ....oo++++oo@@++..                        ..@@@@..      ",
"      ..++@@@@@@@@@@++..                        ..@@@@@@....    ",
"      ..++@@@@@@@@@@++..                        ..@@@@@@....    ",
"    ..++@@@@@@@@@@@@@@++..                    ..@@@@@@@@@@@@..  ",
"    ..++@@@@@@@@@@@@@@++..                    ..@@@@@@@@@@@@..  ",
"    ..@@@@@@@@@@@@@@++oooo..........        ..++@@@@@@@@@@@@..  ",
"    ..@@@@@@@@@@@@@@++oooo..........        ..++@@@@@@@@@@@@..  ",
"  ..oo@@@@@@@@@@@@@@@@@@@@++oo....          ..@@@@@@@@@@++..    ",
"  ..oo@@@@@@@@@@@@@@@@@@@@++oo....          ..@@@@@@@@@@++..    ",
"  ..++++$$..++@@@@@@@@@@++......            ..@@@@@@++....      ",
"  ..++++$$..++@@@@@@@@@@++......            ..@@@@@@++....      ",
"  ..@@@@..oo@@@@@@@@++oo..++oo......      ....@@@@++..          ",
"  ..@@@@..oo@@@@@@@@++oo..++oo......      ....@@@@++..          ",
"  ..++@@@@##XX@@@@@@@@@@++++oo++oooo..  ..++@@@@@@@@..          ",
"  ..++@@@@##XX@@@@@@@@@@++++oo++oooo..  ..++@@@@@@@@..          ",
"  ..XXXX@@XXXX++OO++@@@@@@oooo++oo++oo....@@++@@@@++..          ",
"  ..XXXX@@XXXX++OO++@@@@@@oooo++oo++oo....@@++@@@@++..          ",
"    ..##@@@@ooOO++@@@@@@@@oo++oooo++oo..oo++oo......            ",
"    ..##@@@@ooOO++@@@@@@@@oo++oooo++oo..oo++oo......            ",
"      ....oo@@@@@@@@@@@@@@++@@oo++++oooooo....                  ",
"      ....oo@@@@@@@@@@@@@@++@@oo++++oooooo....                  ",
"          ..++@@++OO++@@@@@@@@@@++oooo......                    ",
"          ..++@@++OO++@@@@@@@@@@++oooo......                    ",
"            ....oooo@@@@@@@@@@++++++..                          ",
"            ....oooo@@@@@@@@@@++++++..                          ",
"                ....++@@@@@@++oo++@@..                          ",
"                ....++@@@@@@++oo++@@..                          ",
"                    ..oo++++oo++@@++..                          ",
"                    ..oo++++oo++@@++..                          ",
"                      ..........@@..                            ",
"                      ..........@@..                            ",
"                                ..                              ",
"                                ..                              ",
"                                                                ",
"                                                                ",
"                                                                ",
"                                                                ",
"                                                                ",
"                                                                ",
"                                                                ",
"                                                                ",
"                                                                ",
"                                                                ",
"                                                                ",
"                                                                "
};
