/* XPM */
static char *d6d475ce587a49d4c0ad6915440a5b8cLirjbgPnw4tyDLvT[] = {
/* columns rows colors chars-per-pixel */
"64 64 224 2 ",
"   c #000000",
".  c #090500",
"X  c #0E0900",
"o  c #080E0C",
"O  c #050A08",
"+  c #120D00",
"@  c #180F00",
"#  c #161400",
"$  c #1A1805",
"%  c #0D1813",
"&  c #101D17",
"*  c #131E19",
"=  c #09100D",
"-  c #251B00",
";  c #2B1C00",
":  c #201700",
">  c #301F00",
",  c #192618",
"<  c #1B210A",
"1  c #262100",
"2  c #2A2400",
"3  c #2D2C00",
"4  c #2D2609",
"5  c #342300",
"6  c #3A2600",
"7  c #3B2C00",
"8  c #382B03",
"9  c #2F340A",
"0  c #3C3100",
"q  c #3C3707",
"w  c #282912",
"e  c #29321D",
"r  c #353A1A",
"t  c #162921",
"y  c #192D24",
"u  c #1E362B",
"i  c #1A3026",
"p  c #203A2F",
"a  c #2A3B26",
"s  c #353A23",
"d  c #203629",
"f  c #492F00",
"g  c #442E00",
"h  c #4D3300",
"j  c #423B00",
"k  c #4A3C00",
"l  c #4C3A0C",
"z  c #563A01",
"x  c #563C05",
"c  c #453B12",
"v  c #39431A",
"b  c #394725",
"n  c #284A3B",
"m  c #274435",
"M  c #394D33",
"N  c #39583B",
"B  c #444100",
"V  c #4D4400",
"C  c #574602",
"Z  c #5A5602",
"A  c #464613",
"S  c #545716",
"D  c #4E5C1E",
"F  c #624201",
"G  c #6A4500",
"H  c #644C00",
"J  c #6C4902",
"K  c #764D00",
"L  c #6D5C02",
"P  c #665604",
"I  c #7A5201",
"U  c #785800",
"Y  c #625B11",
"T  c #644710",
"R  c #59661A",
"E  c #6A6309",
"W  c #7B6500",
"Q  c #7D6D00",
"!  c #746902",
"~  c #7A7602",
"^  c #6F7511",
"/  c #465324",
"(  c #514F36",
")  c #41623B",
"_  c #4E6227",
"`  c #646221",
"'  c #2E5343",
"]  c #305746",
"[  c #355B48",
"{  c #3B634B",
"}  c #3B644A",
"|  c #396551",
" . c #3B6A55",
".. c #376450",
"X. c #3E715A",
"o. c #2D6952",
"O. c #416C56",
"+. c #41755D",
"@. c #437559",
"#. c #416B4C",
"$. c #437961",
"%. c #4A7863",
"&. c #696852",
"*. c #D23C04",
"=. c #845500",
"-. c #825B00",
";. c #8C5B02",
":. c #915F00",
">. c #816A01",
",. c #8C6900",
"<. c #956200",
"1. c #9B6600",
"2. c #956B00",
"3. c #9A6B00",
"4. c #8B7200",
"5. c #877A01",
"6. c #967700",
"7. c #A26A00",
"8. c #A97400",
"9. c #AC7D00",
"0. c #A47900",
"q. c #B17E00",
"w. c #A27E11",
"e. c #D85B02",
"r. c #D94813",
"t. c #DF7B00",
"y. c #E05523",
"u. c #CC7A25",
"i. c #E97A27",
"p. c #ED6C40",
"a. c #3A8E6E",
"s. c #358B6B",
"d. c #3E9070",
"f. c #458066",
"g. c #48846A",
"h. c #4C8A6E",
"j. c #4C8D70",
"k. c #449474",
"l. c #4C9375",
"z. c #4D9979",
"x. c #519375",
"c. c #549D7D",
"v. c #549879",
"b. c #53846D",
"n. c #878300",
"m. c #888603",
"M. c #9D8200",
"N. c #948B00",
"B. c #978600",
"V. c #9A9504",
"C. c #9E9900",
"Z. c #939003",
"A. c #AC8300",
"S. c #A68A00",
"D. c #B38300",
"F. c #BA8C00",
"G. c #B58A00",
"H. c #A79B00",
"J. c #BC9300",
"K. c #B59700",
"L. c #AAA500",
"P. c #B5A200",
"I. c #B3AE00",
"U. c #BDA500",
"Y. c #BBB500",
"T. c #B0AC29",
"R. c #C29500",
"E. c #C39C00",
"W. c #C99D00",
"Q. c #DD850D",
"!. c #E59700",
"~. c #E18C00",
"^. c #C5A100",
"/. c #CCA300",
"(. c #CDAA00",
"). c #C3AA00",
"_. c #D3AC00",
"`. c #CCB200",
"'. c #C4BC03",
"]. c #D3B200",
"[. c #D9B400",
"{. c #D6BA00",
"}. c #DABC00",
"|. c #EAAE01",
" X c #E2BD01",
".X c #F1BB11",
"XX c #C7C000",
"oX c #CCC500",
"OX c #CFC800",
"+X c #DDC300",
"@X c #DECA00",
"#X c #D4C900",
"$X c #DAD300",
"%X c #E2C400",
"&X c #E3CC00",
"*X c #EBCC00",
"=X c #F1CE00",
"-X c #E5D200",
";X c #E9D400",
":X c #E4DC00",
">X c #EDDB00",
",X c #F1DC00",
"<X c #ECE100",
"1X c #F2E300",
"2X c #F5EB00",
"3X c #F8F000",
"4X c #F8F11F",
"5X c #DFDA2B",
"6X c #F8C720",
"7X c #F8F23D",
"8X c #B6B473",
"9X c #F89448",
"0X c #E4DF5C",
"qX c #F8F352",
"wX c #58A080",
"eX c #57A080",
"rX c #63A487",
"tX c #64A58A",
"yX c #69A78A",
"uX c #6CA88C",
"iX c #70AA8E",
"pX c #76AC92",
"aX c #8C8881",
"sX c #E4E2AE",
/* pixels */
"wXwXwXwXwXwXwXwXwXwXwXwXwXwXwXwXwXwXwXwXwXwXwXwXc.wXwXwXwXwXwXwXwXwXwXwXwXwXwXwXwXwXwXwXwXwXwXwXwXwXwXwXwXwXwXwXwXwXc.wXwXwXwXwX",
"wXwXwXwXwXwXwXwXwXwXwXwXwXwXwXwXwXwXwXeXwXwXwXwXwXwXwXwXwXwXwXwXwXwXwXwXwXwXwXwXeXwXwXwXwXwXwXeXwXwXwXwXwXwXwXwXc.yXtXwXwXwXwXwX",
"wXwXwXwXwXwXwXwXwXwXwXwXwXwXc.wXwXwXwXwXwXwXwXwXwXwXwXwXwXwXwXwXwXwXwXwXwXwXwXwXwXwXwXwXwXwXwXwXeXwXwXwXwXwXwXwXwXpXiXwXc.wXwXwX",
"wXwXwXwXwXwXwXwXwXwXwXwXwXwXwXwXwXwXwXwXwXwXwXwXwXwXwXwXwXwXwXwXwXwXwXwXwXwXwXwXwXwXwXwXwXwXwXwXwXwXwXwXc.uXuXeXwXpXiXc.wXiXiXwX",
"wXeXwXwXwXwXwXwXwXwXwXwXwXwXwXwXwXeXwXwXwXeXwXwXwXwXwXwXwXwXwXwXwXwXwXwXwXwXeXwXeXeXwXwXwXc.c.c.wXwXwXwXwXuXuXrXc.iXiXwXyXiXtXc.",
"wXwXwXwXwXwXwXwXwXwXwXwXwXwXwXwXwXwXwXwXwXwXwXwXwXwXwXwXwXwXwXwXwXwXwXwXwXwXwXwXeXc.wXwXwXc.rXc.wXwXc.wXwXwXuXpXwXwXwXwXpXiXwXc.",
"wXwXwXwXwXwXwXwXwXwXwXwXwXwXwXwXwXwXwXwXwXwXwXwXwXwXwXwXwXwXwX+.y               u g.wXwXwXwXc.rXwXwXwXwXwXwXwXyXwXwXwXwXiXwXwXwX",
"wXc.wXwXwXwXwXwXc.wXwXwXwXwXwXz.c.wXwXwXwXwXwXwXwXwXwXx.g.g.g.} e @ .       o % N x.wXwXwXwXc.rXwXwXwXwXwXwXwXwXwXwXwXwXc.wXwXwX",
"wXwXwXwXwXwXwXwXwXwXc.wXwXeXc.s.l.eXeXeXeXeXwXwXwXwXwXX.m p p s l z -       y [ $.x.wXwXc.wXwXc.wXc.wXwXwXwXwXwXwXwXwXwXwXwXwXwX",
"wXwXwXwXwXwXwXwXwXwXc.k.c.eXz.s.z.eXeXk.z.eXwXwXeXv.x.N $ # # 7 I -.6   O o ] x.wXwXwXwXc.rXc.c.x.x.x.x.c.wXwXwXwXwXwXwXwXwXwXwX",
"wXwXwXwXwXwXwXc.wXwXc.a.z.c.c.a.z.eXz.a.z.eXwXwXv.X.n / E Q 5.5.3.=.6 O i ] +.c.wXwXwXwXc.c.v.X.n n n  .x.wXwXwXwXwXwXwXwXwXwXwX",
"wXwXwXwXwXwXwXwXwXwXc.c.d.k.eXc.eXl.a.z.eXeXwXwXl.n   H W.&X1X@XF.=.6 o [ wXwXwXwXwXwXwXc.c.x.n       p g.wXwXwXwXwXwXwXwXwXwXwX",
"wXwXwXwXwXwXwXwXwXwXwXwXz.z.eXeXwXc.k.c.wXwXl.X.N / P M.+X*X;X).W l b n %.c.wXwXwXwXeXwXx.X.] _ ! ~ ! R )  .h.wXwXwXwXc.wXwXwXwX",
"wXwXwXwXwXwXwXwXwXwXwXwXc.eXeXeXwXwXwXwXwXwXg.m $ L ^.+X1X;X+XS.h , { v.c.wXwXwXwXwXeXeXh.m < n.:X$X$XZ.9 u $.c.wXwXwXwXwXwXwXwX",
"wXwXwXwXwXwXwXeXwXwXwXwXwXwXwXwXwXwXj.X.| | ' t X k 4.B.C.N.6.Y b n $.c.c.wXwXwXwXwXx.$.} _ E L.3X3X3XC.3 & n +.l.c.wXwXwXwXwXwX",
"wXwXwXwXwXwXwXwXwXwXwXwXeXwXwXwXwXwXX.u & & % o   # 1 1 3 2 1 r #.h.v.c.wXwXwXwXwXwXX.p 9 m.OX<X3X3X3XC.3 O % u @.c.wXwXwXwXwXwX",
"wXwXwXwXwXc.c.eXwXwXwXwXwXwXwXwXj.$.N 4 5 8 0 q B B B j 0 8 ; s { %.x.wXwXwXwXwXc.c.o.t 3 C.3X3X3X3X3XY.E v B A ) X.X.wXwXc.wXwX",
"wXwXwXwXwXz.z.eXeXwXwXwXwXwXwXwX .d r T -.6.S.H.I.Y.I.H.S.,.=.C r p @.wXwXwXwXc.wXc.X.t 3 C.3X3X3X3X3X$XY.I.Y.V.S i i wXwXwXwXwX",
"wXz.c.wXeXk.a.c.wXc.z.wXwXc.j.g.N w C 2.J._.%X>X3X3X2X;X}./.q.-.g w [ g.g.g.g.g.h.g.#.v Z L.3X3X3X3X3X3X3X3X3XoXZ     wXwXwXwXwX",
"wXd.d.wXeXd.d.eXwXk.a.wXwXv.| p S >.S.(.+X;X>X2X3X3X3X2X>X+X/.9.U x r p p p p p p p / ^ L.$X3X3X3X3X3X3X3X3X3XoXZ     eXwXwXwXwX",
"eXz.z.k.c.c.z.eXk.k.l.wXv.b.m X P /.&X1X3X3X3X3X3X3X3X2X2X>X X/.F.,.h # + + .   O   q L.<X<X3X3X3X3X3X3X3X3X<XY.S = % tXwXwXwXwX",
"eXc.z.d.c.wXeXc.k.l.eXl.| n c z M.@X,X2X3X3X3X3X3X3X3X<X-X*X;X&X[.).H.5.L z > .     $ Z n.XX3X3X3X3X3X3X3XOXV.R _ ] ] tXwXwXwXwX",
"eXwXeXc.wXwXeXwXc.eXeXg.p + z 7.).1X3X3X3X3X3X3X3X3X3X;X[.%X2X2X3X3X2X<X(.3.z X         3 H.3X3X3X3X3X3X3XI.B & o.eXtXiXwXwXtXuX",
"wXwXwXwXwXwXwXwXwXeXeXg.p + H F.{.1X3X3X3X3X3X3X3X3X3X,X;X,X2X3X3X1X&X).,.z > .     $ Z m.XX3X3X3X3X3XOXC.^ _ ] h.wXwXtXwXwXtXwX",
"wXwXeXwXwXwXwXwXwXwXwXh.p # L _.&X2X3X3X3X3X3X3X3X3X3X2X2X2X2X3X3X>X/.3.z + .   O   v L.:X<X3X3X3X3X3XL.v e @.v.tXwXwXwXwXtXtXwX",
"wXwXwXwXwXwXwXwXwXwXc.g.p # Q %X>X2X3X3X3X3X3X3X3X3X3X3X3X2X>X#XI.N.W z ;       < B n.oX3X3X2X1X>X'.L.^ v ] g.wXwXwXwXwXwXwXwXwX",
"wXwXwXwXwXwXwXwXwXwXc.h.p # 5.1X2X2X3X3X3X3X3X3X3X2X3X3X3X>X%XH.Z 2 : @ X       V L.$X<X3X3X2X;X}.5.j b @.h.v.c.wXwXwXwXwXwXwXwX",
"wXwXwXwXwXwXc.wXwXwX+.} s 7 V.3X4X7X5X'.XX:X3X3X2X2X,X:X&X[./.A.H 8 5 - +   = t D Z.XX<X3X3X2X>X%X6.V v #.f.v.c.wXwXwXwXwXwXwXwX",
"wXwXwXwXwXwXwXwXwXuXy e C -.U.3XqXsX8X` >.'.3X3X2X,X%X(.J.G.q.9.0.6.-.G 5   u  .) A ~ XX3X3X3X1X1X`.S.E r n f.c.wXwXwXwXwXwXwXwX",
"wXwXwXwXwXwXwXwXc.yX  $ K G.}.3X0XsXaXs C '.3X3X2X;X}./.G.q.A.F.(./.D.:.f   n x.X.u v C.OX<X3X3X3X;X%XM.k s  .h.v.wXwXwXwXwXwXwX",
"wXeXwXwXwXwXwXwXc.wX. 2 5.+X:X3XT.&.( T 6.{.3X3X2X2X;X*X}.}.+X}.[./.q.:.f   n x.j.X.) D ~ Y.3X3X3X1X>X`.M.Y b ' $.wXwXwXwXwXwXwX",
"wXwXwXwXwXwXeXwXwXwX  3 C.3X3X3XN.3 l ;.F. X1X2X3X3X2X3X3X3X2X<X%X_.F.<.h   n x.eXeXX.u 9 Z.<X1X3X2X2X&X(.6.q t  .wXwXwXwXwXwXwX",
"wXwXwXwXwXc.wXwXwXwX  3 H.3X3X3XXXm.w.u.Q.Q.!.=X3X3X3X3X3X3X2X2X>X%X(.9.C   n x.wXwXj. .N R ~ Y.3X1X;XP.! S M | g.wXc.z.c.wXwXwX",
"wXwXwXwXwXwXwXwXwXwX  3 C.3X3X3X3X1X6X9Xp.r.e.|.3X3X3X3X3X3X3X2X3X1X&XE.H   n x.wXwXwXwXg.p # n.3X;X[.4.1 t @.c.wXwXz.s.c.c.wXwX",
"wXwXwXwXwXwXwXwXwXwX  2 B.-X1X3X3X3X.Xi.y.r.e.|.3X3X3X3X3X3X3X2X>X%X_.A.C   n x.wXwXj. .N R ~ P.;XK.>.S M ..f.k.wXwXz.s.c.wXc.d.",
"wXwXwXwXwXwXwXwXwXwX  1 4.}.;X3X3X3X.Xe.*.*.e.|.3X3X3X3X3X3X3X1X%X_.F.<.f   n j.wXwX$.p 9 V.-X@X}.>.1 a $.v.l.a.z.c.z.d.c.z.z.a.",
"wXwXwXwXwXwXwXwXwXwXp b S 6.U.>X1X3X*X~.t.t.~.|.>X2X2X3X3X2X>X%X_.F.9.<.K k / { ..| N A L P.&XP.4.k X p g.eXeXz.s.z.eXc.eXk.d.c.",
"wXwXwXwXwXwXwXwXwXwXf.@.b 0 5.%X;X2X1X,X=X=X*X%X%X;X3X3X3X,X%X_.F.8.7.7.9.K.L , & * r 4.K.(.(.W 1 @   p g.eXwXc.z.c.eXwXwXz.z.eX",
"wXwXwXwXeXwXwXwXwXwXeXh.] e Y 6.U.+X;X2X2X1X,X&X%X>X3X3X3X,X&X[.R.F.F.J.R.W.P + o , v ! S.^./.>.0 5 ; s | %.x.wXc.eXwXwXwXwXeXwX",
"wXwXwXwXwXwXwXwXwXeXeXv.h.#.M 0 L A.].>X1X*X%X;X1X2X3X3X2X2X1X>X-X@X&X+XE.9.F + t [ #.v C S._.J.M.,.I C a n f.wXeXeXwXwXwXeXwXwX",
"wXwXwXwXwXwXwXwXwXwXeXwXwXx.n   6 K G.:X:X}.].;X3X3X3X2X1X2X2X2X3X2X<X&XE.7.F ; a O.} e 7 ,.(././.A.:.C w m f.wXwXc.wXwXwXwXwXwX",
"wXwXwXwXwXwXwXwXwXwXwXwXc.x.n   @ 5 Q #X-XW.R.%X3X3X3X>X&X;X2X2X3X>X{.J.9.7.=.G A s s x K 3.D.D.D.I f r [ @.l.wXwXwXwXwXwXwXwXwX",
"wXwXwXwXwXwXwXwXwXwXwXwXwXx.n   . X P OX@XF.A.}.3X3X3X*X].%X>X2X1X&XJ.7.7.7.1.<.F - 5 I 1.<.:.:.:.x = m g.c.eXwXwXwXwXwXwXwXwXwX",
"wXwXwXwXwXwXc.wXwXwXwXwXwXx.n   ; h 6.$X@XF.A.+X3X3X3X+XJ./.+X+X].E.A.7.q.F.,.z h z G ;.:.G f f f b N X.v.c.wXwXwXwXwXwXwXwXwXwX",
"wXwXwXeXwXwXwXwXeXwXwXwXc.x.n   f <.R.:X&XF.A.}.3X3X3X].8.D./.W.9.3.7.7.R._.W + 6 =.7.7.=.>       n x.wXwXwXwXwXwXwXwXwXwXwXwXwX",
"wXwXwXc.wXwXz.k.c.wXwXwXwXl.n   x 0.].>X@XF.A.+X2X<X;X/.8.F.}.}.W.F.F.F.W.[.6.z f z z x x b n n n O.k.l.wXeXwXwXwXwXwXwXwXwXwXwX",
"wXwXc.z.c.eXz.s.z.wXc.z.c.x.n   C E.%X1X&XF.A.}.2X-X[.R.7.R.;X>X}._./._._.|.F.<.F ; X X * [ j.h.j.v.k.a.eXeXc.c.eXwXwXwXwXwXwXwX",
"wXwXz.a.c.c.z.s.c.wXz.s.v.x.n   C G.(.*X@X(.E.`.}.[.[./.E.{.<X1X*X%X X_./.R.3.J l a p p ' %.k.k.wXeXk.a.c.c.z.a.c.wXwXwXwXwXwXwX",
"eXwXc.k.k.z.c.z.c.z.k.z.z.l.n   h 1.F.].%X*X+X^.G.E.[. X;X<X2X2X2X>X%X_.R.8.G ; a @.g.g.h.v.z.k.l.eXz.z.eXk.k.l.eXeXwXwXwXwXwXwX",
"wXwXwXc.d.z.eXeXeXk.k.wXeXv...y c G 2.F._.&X-X(.J.(.%X;X2X2X1X>X>X-X[.J.3.K l y ] h.wXwXwXwXwXz.a.eXeXeXeXk.l.eXwXeXwXwXeXwXwXwX",
"wXwXwXeXc.c.wXwXeXc.c.wXwXc.g.+.M 4 z 3.J._.%X@X&X;X>X2X2X1X&X%X%X[.R.8.H ; b X.g.v.wXwXwXwXwXc.c.eXeXeXwXc.c.wXwXwXwXwXwXwXwXwX",
"wXwXeXwXwXwXwXeXeXwXwXwXwXwXwXc.| y q J 2.F._.+X:X>X1X>X;X+X_.^.K.A.2.K l & ] x.wXc.wXwXwXc.wXwXeXeXeXeXwXwXwXwXwXwXwXwXwXwXwXwX",
"wXwXeXwXwXwXwXwXwXc.wXwXwXwXwXwXh. .M q z 2.D.J.E.].%X].E.R.D.3.P h g 8 ( ..$.wXwXwXwXwXwXwXwXwXeXeXwXwXwXeXwXwXwXwXeXwXwXwXeXwX",
"wXwXwXwXwXwXwXwXwXwXwXwXwXwXwXwXv.x.{ , 7 -.8.8.9.E.}.R.8.1.<.J 4 o = * O.wXeXtXpXwXwXwXwXwXwXwXeXeXwXwXwXwXwXwXwXwXwXwXwXwXwXwX",
"wXwXwXwXwXwXwXwXwXwXwXwXwXwXwXwX+.' / Y 6.K.].`.].%X;X].R.2.F c ( [ [ | b.wXyXuXuXwXwXc.wXwXwXwXeXwXwXwXwXwXwXwXwXwXwXwXwXwXwXwX",
"wXwXwXwXwXwXwXwXwXwXwXwXwXwXwXwX] o V G.%X1X3X3X3X3X2X;X}.4.; y %.pXrXwXc.wXpXuXwXwXwXwXwXwXwXwXeXwXwXwXwXwXwXwXwXwXwXwXwXwXwXwX",
"wXwXwXwXwXwXwXwXwXwXwXwXwXwXwXwX+.] / L Q 5.m.n.n.m.n.~ U S M ..h.wXwXwXwXwXtXwXwXwXwXwXwXwXwXwXwXwXwXwXwXwXwXwXwXwXwXwXwXwXwXwX",
"wXwXwXwXwXwXwXwXwXwXwXwXwXwXwXwXv.v.{ , # # # # # # # # # a $.eXeXwXwXwXwXwXwXwXwXwXwXwXwXwXwXwXwXwXwXwXwXwXwXwXwXwXwXwXwXwXwXwX",
"wXwXwXwXwXwXwXwXwXwXwXwXwXwXwXwXwXwX| *                   p %.wXwXwXwXwXwXwXwXwXwXwXwXwXwXwXwXwXwXwXwXwXwXwXwXwXwXwXwXwXwXwXwXwX",
"wXwXwXwXwXwXwXwXwXwXwXwXwXwXwXwXc.wXwXwXeXeXwXwXwXwXwXwXeXeXwXwXwXwXwXwXwXwXwXwXwXwXwXwXwXwXwXwXwXwXwXwXwXwXwXc.wXwXeXwXwXeXwXwX",
"wXwXwXwXwXwXwXwXc.wXwXwXwXwXwXwXwXwXwXwXwXwXwXwXwXwXwXwXwXwXwXwXwXwXwXwXwXwXwXwXwXwXwXwXwXwXwXwXwXwXwXwXwXwXwXwXwXwXwXwXwXwXwXwX",
"wXwXwXwXwXwXwXwXwXwXwXwXwXwXwXwXwXwXwXwXwXwXwXwXwXwXwXwXwXwXwXwXwXwXwXwXwXwXwXwXwXwXwXwXwXwXwXwXwXwXwXwXwXwXwXwXwXwXwXwXwXwXwXwX",
"wXwXwXwXwXwXwXwXwXwXwXwXwXwXwXwXwXwXwXwXwXwXc.wXwXwXwXwXwXwXwXwXwXwXwXwXwXwXwXwXwXwXwXc.wXwXwXwXwXwXwXwXwXwXwXeXwXwXwXwXeXwXwXwX",
"wXc.wXwXwXwXwXwXwXwXwXwXwXwXwXwXwXwXwXwXwXwXwXwXwXwXwXwXwXwXwXwXwXwXwXwXwXwXwXwXwXwXwXwXwXwXwXwXwXwXwXwXwXwXwXwXwXwXwXwXwXwXwXwX"
};
