/* XPM */
static char *_7c8d048f8ae463b8356ab49db6e4d88zB8lUbxf5CChLj60[] = {
/* columns rows colors chars-per-pixel */
"64 64 10 1 ",
"  c None",
". c black",
"X c #D03800",
"o c #A06800",
"O c #B87020",
"+ c #D8B000",
"@ c #F8F000",
"# c #F88058",
"$ c #D8A860",
"% c #F8F8F8",
/* pixels */
"                                                                ",
"                                                                ",
"                                                                ",
"                                                                ",
"                                                                ",
"                                                                ",
"                                                                ",
"                                                                ",
"                                                                ",
"                     ..                    ..                   ",
"                     ..                    ..                   ",
"                     ....                ....                   ",
"                     ....                ....                   ",
"                     ....              ........                 ",
"                     ....              ........                 ",
"                   ....++..            ..++....                 ",
"                   ....++..            ..++....                 ",
"                   ..oo@@oo............++@@++..                 ",
"                   ..oo@@oo............++@@++..                 ",
"                   ..@@@@++@@@@@@@@@@++@@@@oo..                 ",
"                   ..@@@@++@@@@@@@@@@++@@@@oo..                 ",
"                   ..++@@@@@@@@@@@@@@@@@@++..                   ",
"                   ..++@@@@@@@@@@@@@@@@@@++..                   ",
"                   ..OO++@@@@@@@@@@@@++@@oo..                   ",
"                   ..OO++@@@@@@@@@@@@++@@oo..                   ",
"                   ..++%%..++@@@@@@++%%..++..                   ",
"                   ..++%%..++@@@@@@++%%..++..                   ",
"                   ..@@..oo@@@@..@@@@..oo@@..                   ",
"                   ..@@..oo@@@@..@@@@..oo@@..                   ",
"                 ..oo@@@@@@@@@@@@@@@@@@@@@@oo..                 ",
"                 ..oo@@@@@@@@@@@@@@@@@@@@@@oo..                 ",
"                 ..++XX@@@@@@OOXXOO@@@@@@XX++..                 ",
"                 ..++XX@@@@@@OOXXOO@@@@@@XX++..                 ",
"                 ....XX##@@@@XX##XX@@@@##XX....                 ",
"                 ....XX##@@@@XX##XX@@@@##XX....                 ",
"                 ..@@++XX@@@@@@$$@@@@@@XX++@@..                 ",
"                 ..@@++XX@@@@@@$$@@@@@@XX++@@..                 ",
"               ..@@@@@@++++@@@@@@@@@@++++@@@@@@..               ",
"               ..@@@@@@++++@@@@@@@@@@++++@@@@@@..               ",
"               ..oo@@++++@@++++++++++@@++++@@++..               ",
"               ..oo@@++++@@++++++++++@@++++@@++..               ",
"                 ..ooOO@@@@@@++++++@@@@@@OOoo..                 ",
"                 ..ooOO@@@@@@++++++@@@@@@OOoo..                 ",
"                 ..++++@@@@@@@@@@@@@@@@@@++++..                 ",
"                 ..++++@@@@@@@@@@@@@@@@@@++++..                 ",
"                 ..oo++++@@@@@@@@@@@@@@++++oo..                 ",
"                 ..oo++++@@@@@@@@@@@@@@++++oo..                 ",
"                   ..oo++++++oooooo++++++oo..                   ",
"                   ..oo++++++oooooo++++++oo..                   ",
"                   ..++..................++..                   ",
"                   ..++..................++..                   ",
"                     ..                  ..                     ",
"                     ..                  ..                     ",
"                                                                ",
"                                                                ",
"                                                                ",
"                                                                ",
"                                                                ",
"                                                                ",
"                                                                ",
"                                                                ",
"                                                                ",
"                                                                ",
"                                                                "
};
