/* XPM */
static char *_f2e4281fb304813b26e48472d04897fgVAiUOZoR9FPROiS[] = {
/* columns rows colors chars-per-pixel */
"64 64 8 1 ",
"  c None",
". c black",
"X c #D03800",
"o c #A06800",
"O c #D8B000",
"+ c #F8F000",
"@ c #F88058",
"# c #F8F8F8",
/* pixels */
"                                                                ",
"                                                                ",
"                                                                ",
"                                                                ",
"                                                                ",
"                                                                ",
"                                                                ",
"                                                                ",
"                       ........                                 ",
"                       ........                                 ",
"                         ....oo....                             ",
"                         ....oo....                             ",
"             ....          ..oo++OO..                           ",
"             ....          ..oo++OO..                           ",
"           ..++++..          ..OO++OO..                         ",
"           ..++++..          ..OO++OO..                         ",
"         ....++++++..          ............                     ",
"         ....++++++..          ............                     ",
"       ..++++++++++..        ..ooOO++++OOoo..                   ",
"       ..++++++++++..        ..ooOO++++OOoo..                   ",
"       ..++++++++++++........ooOO++++++++++OO..                 ",
"       ..++++++++++++........ooOO++++++++++OO..                 ",
"         ..++++++++......oo++++++OO++++++++++oo..               ",
"         ..++++++++......oo++++++OO++++++++++oo..               ",
"           ..++++++++......oo++++++++++++++++OO..               ",
"           ..++++++++......oo++++++++++++++++OO..               ",
"             ..OO++++++........OO++++++++++++++..               ",
"             ..OO++++++........OO++++++++++++++..               ",
"           ..OO++++++..  ..ooOOooooOO++++..##++oo..             ",
"           ..OO++++++..  ..ooOOooooOO++++..##++oo..             ",
"         ..OO++++++..    ..ooOO++++++++++oo..++++..             ",
"         ..OO++++++..    ..ooOO++++++++++oo..++++..             ",
"           ..OO++..      ..OO++++++++++XX@@++++++..             ",
"           ..OO++..      ..OO++++++++++XX@@++++++..             ",
"             ..OO++..    ..ooOO++++++++XXXX++++OO..             ",
"             ..OO++..    ..ooOO++++++++XXXX++++OO..             ",
"             ....OOOO....OOooooOO++++OO++++++OO..               ",
"             ....OOOO....OOooooOO++++OO++++++OO..               ",
"           ..ooOOOO..  ..oo++++++++++++OO++oo..                 ",
"           ..ooOOOO..  ..oo++++++++++++OO++oo..                 ",
"             ..oooooo..oooooo++++OO++++oo++....                 ",
"             ..oooooo..oooooo++++OO++++oo++....                 ",
"               ....oooo..OOooooOOoo++++oo++oo..                 ",
"               ....oooo..OOooooOOoo++++oo++oo..                 ",
"                   ....ooOOOOOO++ooOO++oo++OO..                 ",
"                   ....ooOOOOOO++ooOO++oo++OO..                 ",
"                       ..ooOO++++++OOoo++OOoo..                 ",
"                       ..ooOO++++++OOoo++OOoo..                 ",
"                         ..ooOOOO++++++OOoo..                   ",
"                         ..ooOOOO++++++OOoo..                   ",
"                           ....ooooOOoooo..                     ",
"                           ....ooooOOoooo..                     ",
"                               ..OO++++++OO..                   ",
"                               ..OO++++++OO..                   ",
"                                 ..........                     ",
"                                 ..........                     ",
"                                                                ",
"                                                                ",
"                                                                ",
"                                                                ",
"                                                                ",
"                                                                ",
"                                                                ",
"                                                                "
};
