/* XPM */
static char *_fc4ad3a9be04e23b371a11e9dda67bfXdxsAhnMhFQCGhRw[] = {
/* columns rows colors chars-per-pixel */
"64 64 226 2 ",
"   c #010100",
".  c #050907",
"X  c #0D0C01",
"o  c #090904",
"O  c #130E00",
"+  c #0B120C",
"@  c #121204",
"#  c #1C1300",
"$  c #1D1A02",
"%  c #0E1A15",
"&  c #0B1310",
"*  c #151E14",
"=  c #211600",
"-  c #231D00",
";  c #2C1D00",
":  c #15231A",
">  c #262202",
",  c #2B2401",
"<  c #292901",
"1  c #3E2901",
"2  c #372500",
"3  c #333100",
"4  c #3C3306",
"5  c #242712",
"6  c #2B361E",
"7  c #31351A",
"8  c #3C3D17",
"9  c #302B10",
"0  c #192D24",
"q  c #152B22",
"w  c #1B3126",
"e  c #1D332A",
"r  c #1E3D30",
"t  c #273A26",
"y  c #363A23",
"u  c #223E32",
"i  c #442D00",
"p  c #443300",
"a  c #4B3502",
"s  c #4D3C00",
"d  c #443A04",
"f  c #513400",
"g  c #5A3D01",
"h  c #533C07",
"j  c #463D13",
"k  c #603E00",
"l  c #32421E",
"z  c #28422F",
"x  c #384928",
"c  c #2B4D3D",
"v  c #254637",
"b  c #374B32",
"n  c #2F503C",
"m  c #385436",
"M  c #3E522E",
"N  c #1A4535",
"B  c #4E4B00",
"V  c #474505",
"C  c #584605",
"Z  c #5D5902",
"A  c #484C13",
"S  c #575815",
"D  c #4B501D",
"F  c #644301",
"G  c #634C00",
"H  c #6E4901",
"J  c #6D4700",
"K  c #744C01",
"L  c #695703",
"P  c #6C5A00",
"I  c #655E07",
"U  c #7D5400",
"Y  c #725D00",
"T  c #775900",
"R  c #624510",
"E  c #5B6818",
"W  c #666200",
"Q  c #796901",
"!  c #7C7800",
"~  c #787705",
"^  c #696D12",
"/  c #465925",
"(  c #425935",
")  c #426039",
"_  c #61543B",
"`  c #2C5141",
"'  c #2F5A47",
"]  c #335945",
"[  c #365B47",
"{  c #35634E",
"}  c #3C654D",
"|  c #386652",
" . c #3B6C56",
".. c #396B55",
"X. c #3E735C",
"o. c #3A7359",
"O. c #2F614D",
"+. c #406B4D",
"@. c #42755B",
"#. c #407157",
"$. c #456B59",
"%. c #437A61",
"&. c #437760",
"*. c #69685B",
"=. c #D23B03",
"-. c #855700",
";. c #835A00",
":. c #8C5C00",
">. c #8C5E0F",
",. c #905D00",
"<. c #836C00",
"1. c #8A6600",
"2. c #956500",
"3. c #9B6500",
"4. c #936B00",
"5. c #9A6B00",
"6. c #887802",
"7. c #947B01",
"8. c #987901",
"9. c #A36D00",
"0. c #A67100",
"q. c #AA7500",
"w. c #A47C00",
"e. c #AD7B00",
"r. c #B07C00",
"t. c #BB7317",
"y. c #D24200",
"u. c #D84611",
"i. c #DF5220",
"p. c #DE762E",
"a. c #DE6115",
"s. c #EF7145",
"d. c #378B6B",
"f. c #3E9070",
"g. c #468066",
"h. c #49866B",
"j. c #4C8A6E",
"k. c #44876A",
"l. c #4E8D71",
"z. c #449474",
"x. c #4B9475",
"c. c #4D9979",
"v. c #519476",
"b. c #539779",
"n. c #549C7D",
"m. c #589F7F",
"M. c #52886F",
"N. c #928D01",
"B. c #9C8500",
"V. c #999401",
"C. c #9C9700",
"Z. c #8E8700",
"A. c #A58300",
"S. c #A98A00",
"D. c #B48300",
"F. c #BB8D00",
"G. c #B78C00",
"H. c #A99800",
"J. c #B79500",
"K. c #BC9200",
"L. c #B39C00",
"P. c #BB9B00",
"I. c #A9A300",
"U. c #BCA200",
"Y. c #B2AD00",
"T. c #BCAA03",
"R. c #BCB501",
"E. c #ACA830",
"W. c #C39600",
"Q. c #C39C00",
"!. c #C99D00",
"~. c #D3960C",
"^. c #E08300",
"/. c #E59700",
"(. c #E99115",
"). c #C6A300",
"_. c #CBA300",
"`. c #CCAB00",
"'. c #C5AA00",
"]. c #D3AD00",
"[. c #D0A700",
"{. c #C6B700",
"}. c #D5B400",
"|. c #DBB700",
" X c #D6BA00",
".X c #DCBD00",
"XX c #E9B400",
"oX c #E1992A",
"OX c #C6C000",
"+X c #CDC600",
"@X c #DCC400",
"#X c #D4CD00",
"$X c #DECB00",
"%X c #DDD500",
"&X c #E2C500",
"*X c #E4CB00",
"=X c #E8CF00",
"-X c #E5D300",
";X c #E9D300",
":X c #E5DB00",
">X c #ECDB00",
",X c #F2D201",
"<X c #F0DE00",
"1X c #F7DB0C",
"2X c #EDE300",
"3X c #F2E400",
"4X c #F5EB00",
"5X c #F8EF00",
"6X c #F6EE0B",
"7X c #F8F000",
"8X c #F8F00A",
"9X c #EBE426",
"0X c #9E9B76",
"qX c #F8F34E",
"wX c #E3DF67",
"eX c #5D9C82",
"rX c #669E84",
"tX c #58A080",
"yX c #57A080",
"uX c #64A58A",
"iX c #69A78A",
"pX c #68A689",
"aX c #76AC92",
"sX c #70AA8E",
"dX c #F8F5A9",
"fX c #D1D1C3",
/* pixels */
"tXtXtXtXtXyXtXtXtXtXtXyXtXtXtXtXtXtXtXtXtXtXtXtXtXtXtXtXm.tXtXtXyXtXtXtXtXtXyXtXtXtXtXtXtXtXtXtXm.tXtXtXtXtXtXtXtXtXm.m.m.tXtXtX",
"tXtXtXtXtXtXtXtXtXtXtXtXtXtXtXtXtXtXtXtXtXtXtXtXtXyXtXtXtXtXtXtXtXtXtXtXm.tXtXtXm.tXtXtXtXtXtXtXtXtXtXtXtXtXtXtXm.uXuXtXtXtXtXtX",
"tXtXtXtXtXtXtXtXtXtXtXtXtXtXtXtXtXtXtXtXtXtXtXtXtXm.tXtXtXtXtXtXtXtXtXtXtXtXtXtXtXtXtXtXtXtXtXtXtXtXtXtXyXtXtXm.m.sXsXtXtXtXtXtX",
"tXtXtXtXtXtXtXtXm.tXtXtXtXm.tXtXtXtXtXtXm.tXtXtXtXtXtXtXtXtXtXtXtXtXtXtXtXtXtXtXtXtXtXtXtXtXtXtXtXtXtXtXm.sXiXm.tXaXsXtXtXiXsXtX",
"tXtXtXtXtXtXtXtXtXtXtXtXtXyXtXtXtXtXtXm.tXtXtXtXh.z               % { yXtXn.tXtXtXtXtXtXtXtXtXtXtXtXtXtXtXiXsXuXtXiXsXtXpXsXiXtX",
"tXyXtXtXtXtXm.tXtXtXtXtXtXtXtXtXtXtXtXtXtXtXtXtXk.` % .         O 5 ] h.h.h.v.n.tXtXtXtXtXtXtXtXtXtXtXtXtXtXiXaXtXtXtXtXaXiXtXtX",
"tXtXtXtXtXtXtXtXtXtXtXtXtXm.tXtXm.m.tXtXtXtXyXtXb.%.[ 0 .     # i h 8 u u u { v.tXtXm.tXtXyXtXtXtXtXtXtXtXtXtXpXtXtXtXtXpXtXtXtX",
"tXm.tXtXtXyXtXtXtXtXtXtXtXn.b.x.x.b.m.m.tXtXm.tXyXyXn.' & .   ; K :.a X X X z %.n.n.tXtXtXtXtXtXtXm.tXtXtXtXtXtXtXtXtXtXtXtXtXm.",
"tXtXtXtXyXtXtXtXtXtXyXyXyXj.O.N c n g.c.m.yXtXtXtXtXn.&.' w + ; K 5.4.! Q P S m | l.yXyXtXtXtXtXtXtXtXyXtXtXtXtXtXtXtXtXtXtXtXtX",
"tXtXtXtXtXtXtXtXtXm.c.f.n.%.e . . % c f.c.yXtXtXtXm.m.n.b.' % ; K e.{.2X@X[.Q > e X.tXyXtXtXtXtXtXm.tXtXtXtXtXtXtXtXtXtXtXtXtXtX",
"tXyXtXtXtXtXtXtXtXyXn.o.{ ) S Z Z Z / n o.b.m.yXtXtXtXtXyX%.` y h T L.;X=X*XH.P A m  .h.tXtXtXtXtXtXtXtXtXtXyXtXtXtXtXtXtXtXtXtX",
"tXtXtXtXtXtXtXtXtXtXm...q l V.#X#XOX^ : n z.m.m.tXtXtXtXyXv.l.} t 1 7..X;X3X@XU.6.8 e  .tXtXtXtXtXtXtXtXtXtXtXtXtXtXtXtXtXtXtXtX",
"tXtXtXtXtXtXtXtXyXk.%.v + l R.7X7X2XC.B / } g.v.tXtXtXtXtXtXtX%.c 6 I A.H.Y.H.B.T , & v @.@.X.g.n.tXtXm.tXtXtXm.tXtXtXtXtXtXtXtX",
"tXtXtXtXtXtXtXtXn...e % . V Y.7X7X4X#XR.~ l c g.tXtXtXtXtXtXtXv.%.+.x 4 p V d 4 , O . % 0 0 q ' j.tXtXtXtXtXtXtXtXtXtXtXtXtXtXtX",
"tXtXtXtXyXtXyXk.g.m < < < W OX7X7X7X7X7XV.< 0 X.m.tXtXtXtXtXtXb.l.@.z # # - > < > < < > - $ # t @.j.n.m.tXtXtXtXtXtXtXtXtXtXtXtX",
"tXtXtXtXtXtXtXz z E N.V.V.Y.%X7X7X7X7X7XV.< 0 X.tXtXtXtXtXtXtXh.' y j F T <.6.N.V.V.N.6.<.K F j z ' g.c.tXtXtXtXtXtXtXtXtXtXtXtX",
"yXtXtXtXtXn.yX  @ ! 2X7X7X7X7X7X7X7X7X7XV.3 w o.b.b.b.b.b.b.b.$.0 = F 9.W.}.*X3X7X7X3X*X}.K.q.G - 5 { d.n.tXtXtXtXtXtXtXtXtXtXtX",
"tXtXtXtXtXc.z.  X ! 2X7X7X7X7X7X7X7X7X7XOXN.^ / ` ` c ` ` ` n b j F 2.W.[.*X<X4X7X5X5X>X=X.X`.S.Q S b ' g.tXtXtXtXtXtXtXtXtXtXtX",
"tXc.b.tXyXz.f.  X ~ 2X7X7X7X7X7X7X7X7X7X4X2XI.V . . . . . . . , K 9.W.].*X4X5X5X7X7X5X5X4X4X3X-X}.7.4 : | tXtXyXtXtXtXtXtXtXtXtX",
"m.f.f.tXyXf.f.u v E N.R.2X7X7X7X7X7X7X7X#XI.~ <       # 2 s Z Q S.).|.*X=X;X<X4X7X7X5X5X5X5X7X2X=XL.L 4 b | g.eXtXtXtXtXtXtXtXtX",
"tXc.z.z.n.c.c.h.o.m < ~ #X7X7X7X7X7X7X7XI.V $ X       i U A.{.#X-X>X2X3X=X.X=X4X7X7X7X7X7X7X7X5X3X@Xw.K 4 q ' b.yXyXtXuXtXtXtXtX",
"tXtXc.f.yXyXyXyXd.O.e S V.OX2X7X7X7X7X7XY.Z 3 @     o 1 J w.{.-X3X7X5X5X>X&X;X3X7X7X7X7X7X7X7X7X7X*XQ.2.i . ` yXyXyXuXuXtXtXtXtX",
"tXtXyXn.tXtXyXyXn.l.X.) A ~ OX7X7X7X7X7X%XR.! 3       O - G w._.-X7X7X5X3X3X3X5X7X7X7X7X7X7X7X7X7X>X}.A.s . ` eXyXyXuXsXtXtXuXiX",
"tXtXtXtXtXtXtXtXyXyXyX..w A C.#X:X2X7X7X7X7XOXW > O       2 J 8.T.#X:X3X4X5X5X7X7X7X7X7X7X7X7X7X7X2X*XP.C . ` eXuXtXtXuXtXtXtXuX",
"tXtXtXtXtXtXtXtXtXtXtXh. .( E Q I.=X>X5X7X7X%XY.! 3 .     # 2 a B Q L.*X<X5X5X5X5X7X7X7X7X7X7X7X5X4X<X{.Z . ` b.uXuXeXyXyXtXuXtX",
"tXtXtXtXtXtXtXtXtXtXtXn.b. .0 , 6.|.-X5X7X7X7X2XOXI . .       o X < 1.].*X3X3X4X4X5X7X7X5X4X2X2X6X6X8X+XL O n v.yXyXyXyXyXeXtXtX",
"tXtXtXtXtXtXtXyXtXtXtXg.' ( S Q U.;X<X5X7X7X%XC.~ / v q   # 1 g G Q 8.W.Q.`. X=X<X3X7X7X3XY.Z.E.wXqX6X%X7.a l n ` yXyXyXtXtXtXtX",
"tXtXtXtXtXtXtXtXtXtXtX| : d 8.}.*X4X5X5X7X7XY.B : { l.c . 1 U q.K.).D.9.9.9.G.`.&X<X7X7X2XZ.@ *.fXdXqX>XP.:.a + . yXyXyXtXtXtXtX",
"tXtXyXtXtXtXtXtXm.M.$.( C <.T.=X2X7X7X7X#XI.~ / c @.b.` . 1 -.r.!.]._.Q.Q.Q.].@X;X3X5X5X3XN.4 _ 0X0X9X<X XJ.G X   tXtXtXtXtXtXtX",
"tXtXtXtXtXtXtXtXb.| q A 8.).*X3X5X7X7X7XI.B l +.j.b.b.n . 1 -.r.Q.|.*X>X>X;X>X3X4X5X5X5X3XU.:.R t _ {.4X2X$XQ X   tXtXtXtXtXtXtX",
"tXtXtXtXtXtXtXtXb.| t D <.L.@X<X4X5X#XR.~ l n g.tXtXb.` . p 2.K.].*X<X7X7X7X7X7X5X5X3X=XXX~.t.>.C ~ {.7X5X2X! X   yXtXtXtXtXtXtX",
"tXtXtXtXtXtXtXtXm.M.&.( 8 P L.*X>X2XC.B M } g.x.tXtXb.` . s A.].*X3X4X7X7X7X7X7X5X5X<XXXa.p.p.oXT.OX:X7X5X2X! +   tXtXtXtXtXtXtX",
"yXtXtXtXtXtXtXtXtXtXtX .0 8 6.U.@X>XZ.3 x @.l.b.tXtXb.` o V S.|.;X3X4X5X5X5X7X7X5X7X,X/.=.i.s.oX6X5X5X5X4X:X~ X   tXc.c.yXyXyXyX",
"tXtXtXtXtXtXtXtXtXtXtXh. .( D L H.&XR.V.^ x ' h.tXeXb.` . a 5.W.|.=X3X5X5X5X7X7X5X5X,Xa.=.u.i.(.1X5X5X4X>X.XW O   tXc.d.n.yXyXyX",
"tXtXtXtXtXtXtXtXtXtXyXyXtX@.0 $ Q [.&X4XC.3 5 X.b.b.l.n @ i -.r.Q.|.;X5X5X7X7X7X5X5X<Xa.y.y.y.^.,X5X5X<X@XP.L @ . yXx.d.n.yXn.f.",
"tXtXtXtXtXtXtXtXtXtXyXyXeXX.0 O p Y H.$XU.<.S M ` ` n / L ;.2.0.r.Q.|.=X>X5X7X7X4X>X*XXX/././.XX3X4X>X|.B.I D v c n.c.f.n.n.z.f.",
"tXtXtXtXtXtXtXtXtXtXtXtXeXX.0   o # W [.[.[.7.p . . @ L P.K.0.9.9.q.!.|.;X5X7X7X<X&X.X,X4X3X3X4X4X<X@XJ.C + n k.d.c.yXm.yXz.f.n.",
"tXtXtXtXtXtXtXtXtXtXtXh. .m 8 i s C 8.].J.7.^ x e % o G G.W.Q.Q.Q.).|.*X>X7X7X7X3X>X*X=X>X3X7X>X@X).B.Q D v o.n.z.n.yXyXyXc.c.yX",
"tXyXtXtXtXtXtXtXtXtXtX .e 9 F 1.0.J.).}.6.d 7 +. .e o f 5.!.$X>X>X>X2X3X4X5X7X7X4X3X<X*X.X;X7X@XK.1.s 9 [ h.v.m.n.m.tXtXtXyXyXyX",
"tXtXtXtXtXtXtXtXtXtXtXX.u 7 C ;.w.!.!.!.4.a 7 [ } y 2 F 3.F. X;X3X5X7X7X3X<X3X5X5X5X3X.X_.&X2X{.1.f # % } m.m.m.yXyXtXtXtXyXyXyX",
"tXtXtXtXyXtXtXtXtXtXtXl.%.[ 7 i U r.r.r.3.U C 7 6 h K -.9.q.D.[.-X7X7X5X>X&X>X3X7X7X<X`.D.}.4XI.s = X % { m.tXtXyXyXtXtXm.tXtXtX",
"tXtXtXtXtXtXtXtXtXtXtXtXtX%.u 5 C -.-.-.,.3.K i ; g -.2.0.9.9.D. X>X2X2X&X[..X3X7X7X>XQ.q.`.2XH.p O o % { tXtXtXtXtXtXyXtXtXtXtX",
"tXtXtXtXtXtXtXtXtXtXtXtXtXv.@.] y i 2 i k ,.,.K g f i ;.F.D.0.q.G.`.|.&X`.D.].2X7X7X;XQ.0.`.4XT.T i # % { tXtXtXtXtXtXtXtXtXtXtX",
"tXtXtXtXtXtXtXtXyXtXtXtXtXtXm.h.v . . . i -.,.3.U i @ P _.W.q.9.9.q.Q.].F.9.Q.;X5X7X>XQ.0.`.3X XD.U , % { tXtXtXtXtXtXtXtXtXtXtX",
"tXyXyXyXtXtXyXtXyXtXtXtXtXtXtXv. .` ` ` b h f f f f g 8.[.~.W.W.F.W.}.*X!.9.K..X>X3X>XQ.0.`.5X$XQ.1.2 % { tXtXtXtXtXtXyXtXtXtXtX",
"tXyXyXyXtXtXc.z.n.tXtXtXtXtXtXtXn.b.v.b.[ * o   = F 3.D.].].[.].].|.;X3X`.9.D.`.&X>X>XP.0.`.3X;X|.8.4 % { tXtXtXtXtXtXtXyXtXtXtX",
"tXtXyXc.yXyXx.d.c.yXn.c.n.tXtXtXtXtXtXtX&.` u u t j F 4.K._.].|..X=X3X4X@X)._.].}.|.}.`.). X;X|._.1.2 % { m.n.c.yXtXtXtXtXtXm.tX",
"yXtXx.d.n.yXz.d.n.tXc.d.c.tXtXtXtXtXtXtXv.j.h.h.@.t = F 9.F._.&X,X4X4X5X3X>X*X|.`.G.G.}.:X*X.X!.D.U > & { yXz.f.m.tXtXtXtXtXtXtX",
"tXtXn.z.f.c.n.c.n.c.z.z.n.tXtXtXtXtXtXtXtXtXtXtXl.' w j K 5.F.].*X<X>X<X3X5X<X*X}.Q.Q..X>X.X!.w.;.C 7 r X.z.z.c.yXyXtXtXtXtXtXyX",
"tXtXyXn.f.c.yXyXyXz.z.tXyXyXtXtXtXtXtXtXtXtXtXtXn.g.+.b , F 5.F.].&X&X&X>X4X4X2X>X-X&X@X.X!.D.U i 7 [ %.l.z.x.yXyXyXtXtXtXtXtXtX",
"tXtXtXyXn.yXtXtXyXyXn.tXtXtXtXtXtXtXtXtXtXtXtXtXtXtXb.[ : 9 H 2.A.J.!.`..X;X>X3X2X>X=X X_.e.:.C 5 v %.tXtXn.n.tXyXtXtXtXtXtXtXtX",
"tXtXtXtXtXtXtXtXyXtXyXyXtXtXtXtXtXtXtXtXtXtXtXtXtXtXtXg.| b 4 i s G 4.D.K.Q.].&X.X`.Q.K.e.U i 8 n X.l.tXtXtXtXtXtXtXtXtXtXtXtXtX",
"yXtXtXtXtXtXtXtXtXtXtXtXtXtXtXyXtXtXn.tXtXyXtXtXtXtXtXtXtX| q . . $ g 3.3.9.D.[._.D.9.0.5.g O u g.n.yXeXyXyXtXtXtXtXtXtXtXtXtXtX",
"tXtXtXtXyXtXtXtXtXyXtXtXtXtXtXtXtXtXtXtXtXtXtXm.tXtXtXtXtX%.[ ] [ b j h 1.D.`.&X&X}.`.`.).B.Y S m | j.tXyXyXtXtXtXtXtXtXtXtXtXtX",
"tXtXtXtXtXtXtXtXtXtXtXtXtXtXtXtXtXtXtXtXtXtXtXtXtXtXtXtXtXtXb.rXsX%.u O T _.&X2X4X3X4X4X3X&X[.Q , e X.tXtXtXtXtXyXtXtXtXtXtXyXtX",
"tXtXtXtXtXtXtXtXtXtXtXtXtXtXtXtXtXtXtXtXtXtXtXtXtXtXtXtXtXtXtXtXiXrX$.u D <.6.N.V.V.V.V.V.Z.<.S x ' h.yXtXyXtXtXtXtXtXtXtXtXtXtX",
"m.tXtXtXtXtXtXtXtXtXtXtXtXtXtXtXtXtXtXtXtXtXtXtXtXtXtXyXtXtXtXtXrXrXl.%.m > , > < < < < < > - x @.l.b.tXtXtXtXtXtXtXtXyXtXtXtXtX",
"tXtXtXtXtXtXtXtXtXtXtXyXtXtXtXtXtXtXm.tXtXtXtXtXtXtXtXtXtXtXtXtXtXtXtXb.` .                   u h.tXtXtXtXtXtXm.tXtXtXtXtXtXtXtX",
"tXtXtXtXyXtXm.tXtXtXtXtXtXtXtXtXtXtXtXtXtXtXtXtXtXtXtXtXtXtXyXtXtXtXtXb.` .                   u h.m.tXtXtXtXtXtXtXtXtXtXtXtXtXtX",
"tXtXtXtXtXtXtXtXtXtXtXtXyXtXtXtXtXtXtXyXyXtXtXtXtXtXtXtXtXtXtXtXtXtXtXm.tXtXtXyXtXtXyXtXyXtXyXtXtXm.tXtXyXtXtXtXtXtXtXtXtXtXtXtX",
"yXtXtXtXtXtXtXtXtXtXtXtXtXm.tXtXtXtXtXtXtXtXtXtXtXtXtXtXtXtXtXtXtXtXtXtXtXtXtXtXtXtXtXtXyXtXtXtXtXtXm.tXtXyXtXtXtXtXtXtXtXtXtXm.",
"tXtXtXtXtXtXtXtXm.tXtXtXtXtXtXtXtXtXtXtXtXtXtXtXtXtXtXtXtXtXtXtXtXtXtXtXtXtXtXtXtXtXtXyXtXtXtXtXtXtXtXtXtXtXtXtXtXtXyXtXtXyXtXtX",
"tXtXtXtXtXyXtXtXtXtXtXyXtXtXtXtXtXtXtXtXyXtXtXtXtXtXtXyXtXtXtXtXtXtXtXtXtXtXtXtXtXtXtXtXm.tXtXtXtXtXtXtXtXtXtXtXtXm.tXtXtXtXtXtX",
"tXtXtXtXtXtXtXtXtXtXtXtXtXtXtXtXm.tXtXtXtXtXtXtXtXtXtXtXtXtXtXtXyXtXtXtXtXtXyXtXtXtXtXtXtXtXtXtXtXtXtXtXtXtXtXtXtXtXtXtXtXtXtXtX"
};
