/* XPM */
static char *d4657a6bc16f416989bf5f3e87b4d41ciA1rdLbJO4fCTKzX[] = {
/* columns rows colors chars-per-pixel */
"64 64 203 2 ",
"   c #010100",
".  c #090600",
"X  c #050907",
"o  c #0D0C01",
"O  c #070C0A",
"+  c #120C00",
"@  c #0A120E",
"#  c #131203",
"$  c #1D1300",
"%  c #1E1800",
"&  c #0E1A15",
"*  c #0E1A15",
"=  c #131F17",
"-  c #201500",
";  c #231B00",
":  c #2C1D00",
">  c #16241B",
",  c #272302",
"<  c #2C2401",
"1  c #2A2901",
"2  c #332100",
"3  c #3B2600",
"4  c #3D2A02",
"5  c #352A00",
"6  c #343200",
"7  c #3B3101",
"8  c #2C371E",
"9  c #353619",
"0  c #302B10",
"q  c #182D24",
"w  c #1B3127",
"e  c #1B3329",
"r  c #253A29",
"t  c #343F24",
"y  c #223E32",
"u  c #432C00",
"i  c #482F00",
"p  c #443200",
"a  c #4E3503",
"s  c #433900",
"d  c #4B3A00",
"f  c #4A380B",
"g  c #513500",
"h  c #543A00",
"j  c #5A3C00",
"k  c #503F0E",
"l  c #483E13",
"z  c #603F00",
"x  c #29422F",
"c  c #3C4424",
"v  c #364928",
"b  c #254335",
"n  c #2C4E3D",
"m  c #2F503C",
"M  c #385436",
"N  c #3E522E",
"B  c #454301",
"V  c #4D4700",
"C  c #5D4600",
"Z  c #564803",
"A  c #464C11",
"S  c #595915",
"D  c #575400",
"F  c #644300",
"G  c #634D00",
"H  c #6D4B00",
"J  c #684500",
"K  c #754C00",
"L  c #625300",
"P  c #6B5502",
"I  c #615D00",
"U  c #6C5900",
"Y  c #675D0D",
"T  c #735600",
"R  c #7D5300",
"E  c #775A00",
"W  c #5B6618",
"Q  c #696500",
"!  c #646000",
"~  c #7B6300",
"^  c #756801",
"/  c #7A7500",
"(  c #7C7800",
")  c #777300",
"_  c #687013",
"`  c #465627",
"'  c #44613A",
"]  c #2D5242",
"[  c #315947",
"{  c #365D48",
"}  c #35614D",
"|  c #3D664C",
" . c #396652",
".. c #3C6D56",
"X. c #3D6F59",
"o. c #356853",
"O. c #3F735C",
"+. c #38735A",
"@. c #42755C",
"#. c #407157",
"$. c #437B62",
"%. c #835600",
"&. c #8C5C00",
"*. c #865F00",
"=. c #836B00",
"-. c #896500",
";. c #976200",
":. c #9B6500",
">. c #9A6C00",
",. c #926A00",
"<. c #8E7B00",
"1. c #867800",
"2. c #9E7400",
"3. c #9C7C00",
"4. c #957C01",
"5. c #A26A00",
"6. c #A57200",
"7. c #AA7500",
"8. c #AE7D00",
"9. c #A27B00",
"0. c #B17E00",
"q. c #358B6B",
"w. c #3A8E6E",
"e. c #3D8568",
"r. c #3E9070",
"t. c #468066",
"y. c #49866B",
"u. c #4C8A6E",
"i. c #488065",
"p. c #4E8D71",
"a. c #449474",
"s. c #4B9475",
"d. c #4D9979",
"f. c #519476",
"g. c #539779",
"h. c #549D7D",
"j. c #589F7F",
"k. c #5B8E77",
"l. c #898300",
"z. c #8F8B00",
"x. c #928D01",
"c. c #988500",
"v. c #999401",
"b. c #9C9802",
"n. c #959000",
"m. c #A68A00",
"M. c #A98800",
"N. c #B38300",
"B. c #BB8D00",
"V. c #B78A00",
"C. c #A49600",
"Z. c #BE9300",
"A. c #B49D00",
"S. c #B69400",
"D. c #ACA701",
"F. c #B3AD00",
"G. c #B2A400",
"H. c #BDB700",
"J. c #BFB800",
"K. c #C29500",
"L. c #C49B00",
"P. c #C99F00",
"I. c #CBA300",
"U. c #C5AD00",
"Y. c #CCAB00",
"T. c #C6A000",
"R. c #D3AC00",
"E. c #CCB900",
"W. c #D5B200",
"Q. c #DAB500",
"!. c #D6BB00",
"~. c #DCBC00",
"^. c #E0BF00",
"/. c #C6C000",
"(. c #CCC400",
"). c #CFC800",
"_. c #DDC200",
"`. c #D3CC00",
"'. c #DFCA00",
"]. c #DCD500",
"[. c #DFD800",
"{. c #E2C500",
"}. c #E4CB00",
"|. c #E8CF00",
" X c #E4D200",
".X c #E9D300",
"XX c #E4DC00",
"oX c #ECDA00",
"OX c #F0DF00",
"+X c #EBE300",
"@X c #F2E400",
"#X c #F5EB00",
"$X c #F8EF00",
"%X c #F8F000",
"&X c #57A080",
"*X c #58A080",
"=X c #63A486",
"-X c #64A58A",
";X c #69A78A",
":X c #6DA98D",
">X c #70AA8E",
",X c #7AAE94",
"<X c #73AB90",
/* pixels */
"*X*X*X*X*X*X*X*X&X*X*X*X*X*X*X*X*Xj.*X*X*X*Xj.*X*X*X*X*X*X*X*X*X*X*X*X*X*X*X*X*X*X*Xj.*X*X*X&X*Xj.*X*X*X*X*X*X*X*X*X*X*X*X*X*X*X",
"*X*X*X*X*Xj.*X*X*X*X*X*X&X*X*X*X&X*X*X*X*X*X*X*X*X*X*X*X*X*X*X*X*X&X*X*X*X*X*X*X*X*X*X&X*X*X*X*X*X*X*X*X*X*X*X*X*X-X=X*X*X*X*X*X",
"&X*X*X*X*X*X*X*X*X*X*X*X*Xj.*X*X*X*X*X*X*X*X*X*X*X*X*X*X*Xj.*X*X*X*X*X*X*X*X*X*X*X*X*X*X*X*X*X*X&X*X*X*X*X*X*X*X*X<X>X*X*X*X*X*X",
"*X*X*X*X*X*X*X&X*X*X*Xj.*X*X*X*X*X*X*X*X*X*X&X*X*X*X*X&X*X*X*X*X*X*X*Xj.*Xj.*X*X*X*X*X*X*X*X*X*X*X*X*X*X*X:X;X&X*X<X>X*X*X:X:X*X",
"*X*X*X&X*X*X*X*X*X&X*X*X*X*X*X*X&X&X*X*X*X*X*X*X*Xj.*X*X*X*X*X*X*X*X*X*X*X*X*X*X*X*X*X*X*X*X*X*X*X*X&X*XO.w     *X;X;Xj.-X:X;Xj.",
"*Xj.*X*X*X*X*X*X*X*X*X*X*X&X*X*X&X&X*X*X*X*X*X*X*X*X*X*X*X*X*X*X*X*X*X*X*X*X*X*Xj.*X*X&X*X*Xj.*Xj.*X&Xj.@.q     *Xj.j.=X,X;Xj.j.",
"*X*X*X*X*X*X*X*X*X*X*X*X*X&X*X*Xj.j.&X*X*X*X*X*X*X*X*X*Xj.*X*X&X*X*X*X*Xj.*X*X*X*X*X*X*X*X&Xj.*X*X*Xg.u.} >     *X*X*X*X-X*Xj.*X",
"*X*X*X*Xj.*X*X*X*X*X*Xj.*X&Xj.d.j.*X*Xj.*X*X&X*X*X*X*X&X*X*X*X*X*X*X*X*X*X*X*X*X*X*X*X*X*X*Xj.j.*X*X$.n q @     *X*X*X*X*X*X*X*X",
"*X*X&X*X*X*X*X*X*X*X&X&X*X&Xh.q.d.j.&X&X&X&X*X*Xj.*X*X*X*X&Xj.*Xj.*X*X*Xj.*X*X*X*X*X*X*X*X*X*Xj.j.g.[ &         *X*X*X*X*X*X*X*X",
"*Xj.*X*X*X&X*Xj.j.*Xh.r.h.&Xd.q.d.&Xh.a.d.&X*X*X*X&X*X*X*X*X*X*X*X*X*X*X*X&X*X*X*X*X*X*X*X*X*Xj.$.] e O         *X*X*X*X*X*X*X*X",
"*X*X*X*X*X*X*X*X*X*Xh.q.d.h.h.r.d.h.d.r.d.&X&X*X*X*X*X*X*X*X*X*X*X*X*X*X*X*X*X*X*Xj.*X&X*X*Xj.g.] @ X           *X*X*X*X*X*X*X*X",
"*X*X*X*X*X*X*X*X*X*Xj.h.r.a.h.h.j.s.w.d.j.&X&X*X*X*X*X*X*X*X*X*X*X*X*X*X*X*X*X*X*X*X*X*X*Xg.@.{ ` Z d u : +     *X*X*X*X*X*X*X*X",
"*X*X*X*X*X*X*X*X*X*X&X&Xd.d.&X&X*Xh.a.j.*X*X*X*X*X*X&X*X&X&X&X*X*X*X&X&X&X*X&X&X*X*Xj.j.j.u.] > S M.9.-.C -     *X*X*X*X*X*X*X*X",
"*X*X*X*X*X*X*X*X*X*X*X&X&X&X&X&X*X*X*X*X*X*X*Xj.*Xf.$.O.O.O.O.O.O.O.O.+.O.O.O.O.O.y.g.f.t.| v p <.Q.P.7.K :     *X*X*X*X*X*X*X*X",
"*X*X*X*X&X*Xj.j.*X*Xj.j.&Xj.&X&Xj.*Xj.j.*X*Xj.j.j.$.n q q q q q q q q q q q q q q [ u.$.n t ! m.U.oXR.8.K :     *X*X*Xj.*X*X*X*X",
"*X*X*Xj.*X*X*Xy.y.y.y.y.y.y.y.y.y.y.y.y.y.y.y.y.y.| r $ ; ; , 1 1 1 1 1 1 , ; $ $ x ..| 8 s c.~..X@XU.>.F 0 & = *X*X*X*X*X*X*X*X",
"*X*X*X*X*X*Xj.b y y y y y y y y y y y y y y y y y c k G E =.<.x.v.v.v.v.x.<.=.T F l r c Y 4.U..X.X}.M.C 9 M  .{ *X*X*X*X*X*X*X*X",
"*X*X*X*X*Xa.a.X X X           . . o o o o + o o o 3 R 7.L.Q..X$X$X%X$X%X@X}.R.K.6.H ; s M.^.oX@X}.W.=.; q X.*X*X*X*X*X*X*X*X*X*X",
"*Xd.h.*X*Xr.r.n ] b &       $ u C ^ / ( ( ( ( ( ( z.A.E._..XOX$X$X%X$X%X#XOX|.~.Y.m.~ <.U.}.|.|.R.Z.T $ q @.*X*X*X*X*X*X*X*X*X*X",
"*Xr.r.*X*Xr.r.g.d.+.e       3 R N.(.+X+X+X+X+X+X+X+X@X#X#X$X$X$X%X%X$X$X$X$X#X#X#X XW.!.oX@X}.W.Z.5.F $ q $.*X*X*X*X*X*X*X*X*X*X",
"*Xd.d.r.*Xd.d.*Xa.e.{ y =   ; g ~ S._.}.oX@X%X%X%X%X%X%X%X%X%X%X%X%X%X%X%X%X%X%X%XoX.X}..X.X^.R.2.J l x [ y.*X*X&X&X&X-X*X*X*X*X",
"*X&Xd.r.h.*X*X*Xr.s.s.$.b X o + u -.V.I._..X$X%X%X%X%X%X%X%X%X%X%X%X%X%X%X%X%X%X%X$X@XoX{.~.Q.I.~ ; t #.p.g.*X*X&X&X-X:X*X*X*X*X",
"*X*X*Xh.*X*X*X*Xj.&X*Xg. .e w q 8 Z R ,.c.C.F.F.F./.XX%X%X%X%X%X%X%X%X%X%X%X%X%X%X%X%XoXW.K.M.4.S q [ p.j.j.=X-X&X&X-X-X*X*X-X:X",
"*X*X*X*X*X*X*X*X*X*X*Xh.u.$.O.O.{ 9 2 5 4 s B B B ) /.%X%X%X%X%X%X%X%X%X%X%X%X%X%X%X%X XL.2.H 7 N #.y.g.*X*X*X-X-X*X*X-X*X*X-X*X",
"*X*X*X*X*X&X*X*X*X*X*X*X*X*X*X*X$.y @ O   # 1 1 1 D b.`.+X%X%X%X%X%X%X%X%X%X%X%X%X%X%X}.L.,.p X ] g.*X*X*X*X*X*X-X-X*X*X*X-X-X&X",
"*X*X*X*X*X*Xj.*X*X*X*X*X*Xj.*X*Xp.@.] q O V x.v.v.l.) ( H.%X%X%X%X%X%X%X%X%X%X%X%X%X%X@X'.A.Z X ] f.*X&X*X*X*X*X&X&X*X*X*X=X&X&X",
"*X*X*X*X*X*X*X*X*X*X*X*Xj.=X;X*X*Xh.$.y o ( +X%X%XF.B 1 v.%X%X%X%X%X%X%X%X%X%X%X%X%X%X%X%X`.Q @ ] u.&X&X*X*X*X*X&X&X&X*X&X&X&X&X",
"*X&X*X*X*X*X*X*X*X*X*X*X*X;X,X*Xu. .y = o ( +X%X%XF.B , v.%X%X%X%X%X%X%X%X%X%X%X%X%X%X%X%X[.b.P ` ] X.f.*X*X*X*X&X&X&X&X&X&X&X&X",
"*X*X*X*X*X*X*X*X*X;X:X*Xj.:X,Xj.@.r O   o ( +X%X%XF.B 1 v.%X%X%X%X%X%X%X%X%X%X%X%X%X%X%X%X@X_.L.H # b y.*X*X*X*X*X*X*X*X&X*X*X*X",
"*X*X*X&X*X*X*X&X*X-X:X:X*X=Xk.X.' S I I Q D.+X%X%X).l.Q l.b./.#X%X%X%X%X%X%X%X%X%X%X%X%X%X@X}.Y.T . y y.*X*X*X*X*X*X&X*X&X&X&X*X",
"*X*X*X*X*X*X*X*X*X*X=X,X=X*XO.w A b.).).`.XX$X%X%X+X].F.Q 6 z.+X%X%X%X%X%X%X%X%X%X%X%X%X%X@X}.I.P o y y.*X*X*X*X*X*X*X*X*X*X*X*X",
"*X*X*X*X*X*X*X*X*X*X*X-X*X*X} & B F.$X$X$X$X$X$X%X%X%X).I o ( +X%X%X%X%X%X%X%X%X%X%X%X%X%X+X~.Z.G o y y.*X*X*X*X*X*X*X*X*X*X*X*X",
"*X*X*X*X*X*X*X*X*X*X*Xj.*X*X} & B F.%X%X%X%X%X%X%X%X%X).! o ( +X%X%X%X%X%X%X%X%X%X%X%X$X$XoXI.7.Z . y y.*X*X*X*X*X*Xh.d.&X&X&X&X",
"*X*X*X*X*X*X*X*X*X*X*X*X*X*X..e A b.`.+X%X%X%X%X%X%X%X`./ 6 ( /.[.#X%X%X%X%X%X%X%X%X%X$X#X XL.;.a . y y.*X*X*X*X*X*Xs.w.h.&X&X&X",
"*X*X*X&X*X*X*X&X*X*X*X*X*X*Xy...| S ( H.%X%X%X%X%X%X%X+XH.n.( ! v.[.%X%X%X%X%X%X$X%X%X@X XQ.B.;.g . y y.*X*Xd.a.j.&Xa.w.h.&Xg.r.",
"*X*X*X*X*Xj.*X*X*X*X*X*X*X*X*X*XO.w 1 x.+X#X$X%X%X%X%X%X%X+X( o I ).%X%X%X%X$X$X$X#X#XoX~.I.N.&.g O b y.&X*Xd.w.d.h.d.w.&X&Xa.w.",
"*X*X&X*X*Xj.*X*X*X*X*X*X*X*X*X*Xu.o.M W 1.D.}.oX#X%X%X%X%X+X( o I ).%X%X%X%X$XoX.X{.R.I.Z.8.E g c m X.f.*X*Xj.d.q.d.j.j.&Xa.r.h.",
"j.*X*X*X*X*X*X*X&X*X*X*Xj.*X*X*Xj.h.i.x % U Y.}.@X%X%X%X%X+X( o I `.%X%X%X%X$X.XQ.P.8.5.5.&.i @ m p.g.*X*X*X&Xj.a.d.j.*X&Xd.d.&X",
"*X*X*X*X*X*X&X*X*X*Xj.*X*X*X*X*X*Xj.s.| b S ~ A.XX%X%X+XJ.x.U u =.E.}._.!.!.!.Y.K.N.5.6.8.6.H 4 c { $.f.*X*X*X*X*X*X&X*X*X&X&X&X",
"*X*X*X*X*X*X*X*X*X*X*X*X*X&X*X*X*Xj.h.p.t.M , ) `.%X%X`./ 1 j %.8.Y.Y.B.8.N.8.7.7.6.5.7.K.L.6.R f = ] u.*X*X*X*X*X*X*X*X*X&X&X&X",
"*X*X*X*X*X*X&X*X*X*X*X*X*X*X*X*X*X*Xg.y.#.N B l.].XX/.b.L 2 z :.8.K.B.7.5.5.5.6.0.N.B.L.Q.Q.L.7.j . y y.*X*X*X*X*X*X*X*X*X*X*X*X",
"&X*X*X*X*X*X*X*X*X*X*X*X&X*X*X*X*X*Xu.[ r _ D.).+X/.) V G K &.5.6.8.7.5.:.5.5.N.K.R._.}..X.X!.B.L . y y.&X*X*X*X*X*X*X*X*X*X*X*X",
"*X*X*X*X*X*Xj.*X*X*Xj.*X*X*X*X*Xg.p.@.N 6 n.+X%X%XJ.! 7 F &.:.7.0.8.0.N.8.8.N.L.Q.|.#X$X@XOX~.P.~ < v @.p.g.*X*X*X*X*X*X*X*X*X*X",
"j.*X*X*X*X*X*X*X*X&X*X*X*Xj.*X*Xy.[ v _ b./.%X%X%X].F.<.L p 1.E.!.!.!.!.!.!.!.}..X+X#X@X.X~.P.0.2.=.S v [ y.*X*X*X*X*X*X*X*X*X*X",
"*X*X*X*X*X*X*X&X&X&X&X*X*X*X&Xj.$.e 1 n.+X+X+X+X$X$X$X(.I # /  X#X#X%X$X$X#X#X#X#X@X#X.X~.I.N.6.K.R.=.; q O.&X*X*X*X*X*X*X*X*X*X",
"*X*X*X*X*X*Xd.a.h.&X*X*X*X*X*X*Xu.o.M W ( ( ( D.XX@XoXE.,.h L / D.XX@XoX{.!.Y.Y.Y.Y.Y.I.K.B.B.K.P.R.=.; q O.*X*X*X*X&X*X*X*X*X*X",
"*X*Xh.d.h.&Xd.q.h.&Xj.d.j.j.*X*Xj.h.i.x o o # Q `.OX{.I.N.-.d # Q ).oX{.R.B.5.5.6.6.6.5.5.7.K.R.R.W.=.: q O.h.d.&X*X*X*X*X*X*X*X",
"*X*Xa.w.h.j.s.q.d.&Xd.q.d.&X*X*X*X*Xy.y . $ 5 L l.C.Y.R.K.0.R u L l.C.S.B.7.5.5.5.6.0.B.L.T.R.R.I.K.E ; q O.a.w.j.*X*X*X*X*X*X*X",
"*X*Xh.a.r.d.&Xd.d.d.a.d.d.*X*X*X*X*Xy.y . u %.z 4 Z m.W.R.P.8.&.F 4 d -.7.5.:.5.5.0.L.Q.}.}.^.R.K.7.F $ q o.a.d.&X&X&X*X*X*X*X*X",
"*X*X*Xh.r.d.*X*X&Xd.r.*X*X*X*X*X*X*Xp.[ q l J j 3 d =.3.3.c.2.5.C $ - g R 2.B.V.B.T.~.}..X.X!.L.6.R k 8 n +.a.*X&X&X*X*X*X*X*X*X",
"*X*X*X*Xd.*X*X*X*Xh.h.*X*X*X*X*X*X*Xg.y.#.v : i J F a 7 7 p K ;.F $ . - d c.{.'.}. XoX.X}.Q.L.7.H 2 t | $.s.j.*X*X*X*X*X&X*X*X*X",
"*X*X*X*X*X*X*X*X*X*X*X*X*X*X*X*X*X*X*X*Xf.] O 3 %.R p $ . . u %.j : $ $ 7 l.`.].@X+XoX}.W.P.0.;.a . y y.*X*X*X*X*X*X*X*X*X*X*X*X",
"*X*X*X*X*X*X*X*X*X*X*X*X*X*X*X*X*X*X*X*Xg.] X 4 &.:.,.U 5   - 5 i j z z F L Q C._.Q.I.Z.B.N.6.;.g . y y.*X*X*X*X*X*X*X*X*X*X*X*X",
"*X*X*X*X*X*X*X*X*X*X*X*X*X*X*X*X*X*X*X*Xg.] @ u R 7.Z.M.Z o . . u R ;.;.R 3 o P T.K.7.5.:.;.;.&.a o b y.*X*X*X*X*X*X*X*X*X*X*X*X",
"*X*X*X*X*X*X*X*X*X*X*X*X*X*X*X*X*X*X*X*X&X$.] v f Z G U U P C g g g g g 4 $ . F 0.K.B.2.H g g a c m X.f.*X*X*X*X*X&X*X*X*X&X*X*X",
"*X*X*X*X*X*X*X*X*X*X*X*X*X*X*X*X*X*X*X*X*Xg.g.{ = . . < =.T.N.:.z - . . . . . g :.N.P.c.p . . O n p.h.*X*X*X*X*X*X*X*X*X*X*X*X*X",
"*X*X*X*X*X*X*X*X*X*X*X*X*X*X*X*X*X*X*X*X*X*X*X$.n y y v S =.T F 3 +           2 j P -.Y c b b b O.g.*X*X*X*X*X*X*X*X*X*X*X*X*X*X",
"*X*X*X*X*X*X*X*X*X&X*X*X&X*X*X*X*X*X*X*Xj.*X*Xf.u.y.y.@.v ; $ $ +             o $ $ % 8 | y.y.u.f.j.j.*X*X*X*Xj.*X*X*X&X*X*X*X*X",
"*X*X*X&X*X*X*X&X*X*X*X*X*X*X*X*X*X*X*X*X*X*X*X*X&X&X*Xy.y                             q @.*X*X*Xj.j.*X*X*X&X*X*X*X*X*X*X*X*X*X*X",
"*X*X*X*X*Xj.*X*X*X*X*X*X*X*X*X*X&X*X*Xj.*X&X*X*X*X&X*X*X&X*X*Xj.*X*X*X*X&X*X*X*X*X*X&X&X*X&X*X*X&X&X*X*X*X*X*X*X*X*X*X*X*X&X*X*X",
"*X*X&X*X*Xj.*X*X*X*X*X*X*X*X*Xj.*X*X*X*X*X*X*X&X*X*X*X&X*X&X*X*X*X*X*X*X*X*X*X*X*X*X*X*X*X*X*X*X*X*X*X*X*X*X*X*X*X*X*X*X*X*X*X*X",
"j.*X*X*X*X*X*X*X*Xj.*X*X&X*X*X*X*X*X*X*X*X*X*X*X*X*X*X*X*X*X*X*X&X*X*X*X*X*X*X*X*X*X*X*X*X*X*X*X*X*X*X*X*X*X&X*X*X*X*X*X*X*X*X*X",
"*X*X*X*X*X*X&X*X*X*X&X*X*X*X*X*X*X*X*X*X*X*X*X*X*X*X*X*X*X*X*X*X*Xj.*X*X*X*X*Xj.*X*X*X*X*X*Xj.*X*X*X*X*X*X*X*Xj.&X*X*X*Xj.*X*X*X",
"*X*X*X*X*X*X*X*X*X*X*X*X*X*X*X*X*X&X*X*X*X*X*X*X*X*X*X*X*X*X*X*X*X*X*X*X*X*X&X*Xj.*X*X*X&X*X*X*X&X*X*X*X*X*X*X*X*X*X*X*X*X&X*X*X"
};
