/* XPM */
static char *_4dfb5008f254e1dea6909de847c8d7fX4hxc3A2Qx8XXrJL[] = {
/* columns rows colors chars-per-pixel */
"64 64 5 1 ",
"  c None",
". c black",
"X c #A06800",
"o c #D8B000",
"O c #F8F000",
/* pixels */
"                                                                ",
"                                                                ",
"                                                                ",
"                                                                ",
"                                                                ",
"                                                                ",
"                                                 ..             ",
"                                                 ..             ",
"                                               ....             ",
"                                               ....             ",
"                                             ......             ",
"                                             ......             ",
"                                           ..ooXX..             ",
"                                           ..ooXX..             ",
"                         ..............  ..ooOOXX..             ",
"                         ..............  ..ooOOXX..             ",
"         ................XXooOOOOOOooXX..ooOOoo..               ",
"         ................XXooOOOOOOooXX..ooOOoo..               ",
"           ....XXOOOOOOOOOOOOOOOOOOOOOOooOOooXX..               ",
"           ....XXOOOOOOOOOOOOOOOOOOOOOOooOOooXX..               ",
"             ....XXooOOOOOOOOOOOOOOOOOOOOoooo..                 ",
"             ....XXooOOOOOOOOOOOOOOOOOOOOoooo..                 ",
"                 ........OOOOOOOOOOOOOOOOXX..                   ",
"                 ........OOOOOOOOOOOOOOOOXX..                   ",
"                   ..OOOO..OOOOOOOOOOOOOOOO..                   ",
"                   ..OOOO..OOOOOOOOOOOOOOOO..                   ",
"                 ....OOOO..OOOOOOOOOOOOOOOOoo..                 ",
"                 ....OOOO..OOOOOOOOOOOOOOOOoo..                 ",
"               ..OOOOOOOOOO..OOOOOOOOOOOOOOoo..                 ",
"               ..OOOOOOOOOO..OOOOOOOOOOOOOOoo..                 ",
"               ..OOOOOOOOOO..OOOOOOOOOOOOOOXX..                 ",
"               ..OOOOOOOOOO..OOOOOOOOOOOOOOXX..                 ",
"                 ..OOOOOOOOOO..OOOOOOOOOOooXX..                 ",
"                 ..OOOOOOOOOO..OOOOOOOOOOooXX..                 ",
"                   ..ooOOOOOO..OOOOOOooXXXX..                   ",
"                   ..ooOOOOOO..OOOOOOooXXXX..                   ",
"                     ..OOOO..XXooXXXXXXXXooXX..                 ",
"                     ..OOOO..XXooXXXXXXXXooXX..                 ",
"                   ..OOOO..XXXXXXXXXXooOOOOoo..                 ",
"                   ..OOOO..XXXXXXXXXXooOOOOoo..                 ",
"                 ..OOOOOOOO..OOOOOOOOOOOOooXXoo..               ",
"                 ..OOOOOOOO..OOOOOOOOOOOOooXXoo..               ",
"                   ....OOooXX..OOooXXXXXXXXoooo..               ",
"                   ....OOooXX..OOooXXXXXXXXoooo..               ",
"                   ..XX..ooooXX..XXXXXXooOOooXX..               ",
"                   ..XX..ooooXX..XXXXXXooOOooXX..               ",
"                     ..XX....XX....OOOOOOooXX..                 ",
"                     ..XX....XX....OOOOOOooXX..                 ",
"                     ..XXoo....XXXX..ooXXXXXX..                 ",
"                     ..XXoo....XXXX..ooXXXXXX..                 ",
"                       ....ooXX......XXoo....                   ",
"                       ....ooXX......XXoo....                   ",
"                           ..............                       ",
"                           ..............                       ",
"                                                                ",
"                                                                ",
"                                                                ",
"                                                                ",
"                                                                ",
"                                                                ",
"                                                                ",
"                                                                ",
"                                                                ",
"                                                                "
};
