/* XPM */
static char *f757a935754e4f01dd59f5799b08956btCJwahil4EywucVa[] = {
/* columns rows colors chars-per-pixel */
"64 64 5 1 ",
"  c None",
". c black",
"X c #A06800",
"o c #D8B000",
"O c #F8F000",
/* pixels */
"                                                                ",
"                                                                ",
"                                                                ",
"                                                                ",
"                                                                ",
"                                                                ",
"                                                                ",
"                                                                ",
"                            ..........                          ",
"                            ..........                          ",
"                        ....XXooooooXX....                      ",
"                        ....XXooooooXX....                      ",
"                    ....ooooOOOOOOOOOOoooo....                  ",
"                    ....ooooOOOOOOOOOOoooo....                  ",
"                  ....ooOOOOOOOOOOOOOOOOOOOOoo....              ",
"                  ....ooOOOOOOOOOOOOOOOOOOOOoo....              ",
"                ....ooOOOOOOOOOOOOOOOOOOOOOOOOoo......          ",
"                ....ooOOOOOOOOOOOOOOOOOOOOOOOOoo......          ",
"              ....XXooOOooOOOOOOOOOOOOOOooOOooXX........        ",
"              ....XXooOOooOOOOOOOOOOOOOOooOOooXX........        ",
"            ..........XXOOOOOOOOOOOOOOOOOOXX....                ",
"            ..........XXOOOOOOOOOOOOOOOOOOXX....                ",
"                  ..XXooOOOOOOOOOOOOOOOOOOooXX..                ",
"                  ..XXooOOOOOOOOOOOOOOOOOOooXX..                ",
"                  ....ooOOOOOOOOOOOOOOOOOOoo....                ",
"                  ....ooOOOOOOOOOOOOOOOOOOoo....                ",
"                ..ooXX..ooOOOOOOOOOOOOOOoo..XXoo..              ",
"                ..ooXX..ooOOOOOOOOOOOOOOoo..XXoo..              ",
"                ..OOOOooooooXXXXXXXXXXooooooooOO..              ",
"                ..OOOOooooooXXXXXXXXXXooooooooOO..              ",
"                ..ooOOOOXXXXXXXXXXXXXXXXXXooOOXX..              ",
"                ..ooOOOOXXXXXXXXXXXXXXXXXXooOOXX..              ",
"                  ..ooOOOOOOOOOOOOOOOOOOOOoooo..                ",
"                  ..ooOOOOOOOOOOOOOOOOOOOOoooo..                ",
"                    ..OOOOooXXXXXXXXXXooOOOO..                  ",
"                    ..OOOOooXXXXXXXXXXooOOOO..                  ",
"                    ..ooXXXXXXXXXXXXXXXXoooo..                  ",
"                    ..ooXXXXXXXXXXXXXXXXoooo..                  ",
"                  ..XX..ooooOOOOOOOOOOooooooXX..                ",
"                  ..XX..ooooOOOOOOOOOOooooooXX..                ",
"                  ........OOOOOOOOOOOOOOooXXXX..                ",
"                  ........OOOOOOOOOOOOOOooXXXX..                ",
"                ....oooo..ooOOOOOOOOOOooXXOOXX..                ",
"                ....oooo..ooOOOOOOOOOOooXXOOXX..                ",
"            ....ooOOOOOOXX..ooooooooooXX..OO..                  ",
"            ....ooOOOOOOXX..ooooooooooXX..OO..                  ",
"          ..XXOOOOOOOOOOOO..XXooooXXXX..XXoo..                  ",
"          ..XXOOOOOOOOOOOO..XXooooXXXX..XXoo..                  ",
"          ..OOOOOOOOOOooOOXX....XX....  ....                    ",
"          ..OOOOOOOOOOooOOXX....XX....  ....                    ",
"            ..XXOOOOooXXOOOOooXX..                              ",
"            ..XXOOOOooXXOOOOooXX..                              ",
"            ..ooOOoo....OOOOXX....                              ",
"            ..ooOOoo....OOOOXX....                              ",
"            ..OOoo..  ........                                  ",
"            ..OOoo..  ........                                  ",
"              ....                                              ",
"              ....                                              ",
"                                                                ",
"                                                                ",
"                                                                ",
"                                                                ",
"                                                                ",
"                                                                "
};
