/* XPM */
static char *a64167ded6f44707ffb5aa7c36b21d13BHYzDQmRP34c3ybu[] = {
/* columns rows colors chars-per-pixel */
"64 64 8 1 ",
"  c None",
". c black",
"X c #D03800",
"o c #A06800",
"O c #D8B000",
"+ c #F8F000",
"@ c #F88058",
"# c #F8F8F8",
/* pixels */
"                                                                ",
"                                                                ",
"                                                                ",
"                                                                ",
"                                                                ",
"                                                                ",
"                 ..                                             ",
"                 ..                                             ",
"                 ....                    ....                   ",
"                 ....                    ....                   ",
"                 ......                ..++++..                 ",
"                 ......                ..++++..                 ",
"                 ..oo..              ..OO++++....               ",
"                 ..oo..              ..OO++++....               ",
"                 ..OO++..            ..++++++++++..             ",
"                 ..OO++..            ..++++++++++..             ",
"                 ..OO++oo..        ..OO................         ",
"                 ..OO++oo..        ..OO................         ",
"                 ..oo++++..............ooooOO++OO....           ",
"                 ..oo++++..............ooooOO++OO....           ",
"                   ..++++OO++++++++++OO++++++OO....             ",
"                   ..++++OO++++++++++OO++++++OO....             ",
"                   ..OO++++++++++++++++++OOoo..                 ",
"                   ..OO++++++++++++++++++OOoo..                 ",
"                   ..oo++++++++++++++++OOoo..                   ",
"                   ..oo++++++++++++++++OOoo..                   ",
"                   ..OO++++++++++++++++++OO..                   ",
"                   ..OO++++++++++++++++++OO..                   ",
"                   ..++##..++++++++++##..++..                   ",
"                   ..++##..++++++++++##..++..                   ",
"                 ..oo++..oo++++++++++..oo++oo..                 ",
"                 ..oo++..oo++++++++++..oo++oo..                 ",
"                 ..OOXX++++++++..++++++++XXOO..                 ",
"                 ..OOXX++++++++..++++++++XXOO..                 ",
"                 ..ooXX@@++++++++++++++@@XXoo..                 ",
"                 ..ooXX@@++++++++++++++@@XXoo..                 ",
"                   ..ooXX++++OOooOO++++XXoo..                   ",
"                   ..ooXX++++OOooOO++++XXoo..                   ",
"                     ..oo++++++++++++++oo..                     ",
"                     ..oo++++++++++++++oo..                     ",
"                   ..OO++OO++OOOOOO++OO++OO..                   ",
"                   ..OO++OO++OOOOOO++OO++OO..                   ",
"                 ..oo++OO++++++OO++++++OO++oo..                 ",
"                 ..oo++OO++++++OO++++++OO++oo..                 ",
"                 ..OO++oo++++++++++++++oo++OO..                 ",
"                 ..OO++oo++++++++++++++oo++OO..                 ",
"                 ..++oo++++++++++++++++++oo++..                 ",
"                 ..++oo++++++++++++++++++oo++..                 ",
"                   ..OO++++++++++++++++++OO....                 ",
"                   ..OO++++++++++++++++++OO....                 ",
"                   ..ooOO++OOooooooOO++OOoo..                   ",
"                   ..ooOO++OOooooooOO++OOoo..                   ",
"                 ..++++oo..............oo++++..                 ",
"                 ..++++oo..............oo++++..                 ",
"                   ......              ......                   ",
"                   ......              ......                   ",
"                                                                ",
"                                                                ",
"                                                                ",
"                                                                ",
"                                                                ",
"                                                                ",
"                                                                ",
"                                                                "
};
