/* XPM */
static char *cafbc50a6994444da5901d52a1211170yTclQpnVIxH6GX9F[] = {
/* columns rows colors chars-per-pixel */
"64 64 226 2 ",
"   c #010201",
".  c #050907",
"X  c #0B0A01",
"o  c #060B09",
"O  c #080700",
"+  c #120D00",
"@  c #09110D",
"#  c #151201",
"$  c #1B1400",
"%  c #1A1900",
"&  c #1B1B0D",
"*  c #0D1914",
"=  c #0C1511",
"-  c #111C14",
";  c #111F19",
":  c #211B00",
">  c #201D0B",
",  c #15251D",
"<  c #1D2112",
"1  c #1F240C",
"2  c #242302",
"3  c #2D2A00",
"4  c #282405",
"5  c #322D00",
"6  c #3C2A01",
"7  c #362704",
"8  c #3A3102",
"9  c #2A2F16",
"0  c #182C23",
"q  c #1C352A",
"w  c #253C2C",
"e  c #233F33",
"r  c #3A352A",
"t  c #412B00",
"y  c #472C03",
"u  c #443200",
"i  c #4A3C00",
"p  c #473705",
"a  c #543B01",
"s  c #563A04",
"d  c #403D17",
"f  c #613F00",
"g  c #38411E",
"h  c #374728",
"j  c #254336",
"k  c #274739",
"l  c #2A4C3C",
"z  c #2A4738",
"x  c #344D34",
"c  c #375538",
"v  c #32482D",
"b  c #4C4600",
"n  c #454100",
"m  c #554300",
"M  c #5C4B00",
"N  c #574901",
"B  c #5B5602",
"V  c #44411A",
"C  c #565516",
"Z  c #594217",
"A  c #634C00",
"S  c #644502",
"D  c #794C01",
"F  c #655300",
"G  c #655E00",
"H  c #6C5C01",
"J  c #6A5505",
"K  c #735A00",
"L  c #765301",
"P  c #614613",
"I  c #5B681A",
"U  c #6D6900",
"Y  c #686605",
"T  c #7B6400",
"R  c #756A00",
"E  c #7D7901",
"W  c #787402",
"Q  c #6B7217",
"!  c #455424",
"~  c #404326",
"^  c #62553E",
"/  c #4D6226",
"(  c #646223",
")  c #2E5443",
"_  c #325946",
"`  c #335D4A",
"'  c #345944",
"]  c #37624D",
"[  c #376450",
"{  c #3B6B56",
"}  c #3A6954",
"|  c #3F725B",
" . c #41765D",
".. c #467C5F",
"X. c #416B4C",
"o. c #6B6655",
"O. c #447C62",
"+. c #CA3E00",
"@. c #884900",
"#. c #845600",
"$. c #855D00",
"%. c #8A5A00",
"&. c #955B00",
"*. c #A94800",
"=. c #B45802",
"-. c #B14A00",
";. c #826B01",
":. c #8B6A00",
">. c #966800",
",. c #887701",
"<. c #997600",
"1. c #AC7C00",
"2. c #A67900",
"3. c #B67900",
"4. c #AB6600",
"5. c #C94A03",
"6. c #D54A07",
"7. c #D75706",
"8. c #D14E11",
"9. c #C66700",
"0. c #D67A00",
"q. c #DC6808",
"w. c #DB5C24",
"e. c #EB6F35",
"r. c #3A8E6E",
"t. c #358B6B",
"y. c #3E9070",
"u. c #49856A",
"i. c #4C896E",
"p. c #468167",
"a. c #4E8D71",
"s. c #449474",
"d. c #4D9274",
"f. c #4D9979",
"g. c #519476",
"h. c #539778",
"j. c #559D7D",
"k. c #589F7F",
"l. c #848000",
"z. c #8C8400",
"x. c #8C8903",
"c. c #978600",
"v. c #9B9500",
"b. c #959100",
"n. c #AC8500",
"m. c #A88A00",
"M. c #B38400",
"N. c #B68B00",
"B. c #B98A00",
"V. c #A89800",
"C. c #B39500",
"Z. c #BC9300",
"A. c #B59B00",
"S. c #BB9C00",
"D. c #ADA600",
"F. c #B4A700",
"G. c #BCB504",
"H. c #B2AE38",
"J. c #CD8800",
"K. c #D58500",
"L. c #C59B00",
"P. c #C59800",
"I. c #DD9800",
"U. c #E88F13",
"Y. c #CCA400",
"T. c #CDAB00",
"R. c #C3A700",
"E. c #D3AE00",
"W. c #D6A500",
"Q. c #C4B300",
"!. c #CDB400",
"~. c #C5BC00",
"^. c #D3B300",
"/. c #D9B300",
"(. c #D5BC00",
"). c #DCBC00",
"_. c #E8A904",
"`. c #E8B902",
"'. c #F1B018",
"]. c #F8BA2A",
"[. c #EE9423",
"{. c #CCC300",
"}. c #CEC805",
"|. c #DCC300",
" X c #D5CD00",
".X c #DECA00",
"XX c #D6C100",
"oX c #DBD400",
"OX c #D7D101",
"+X c #E2C400",
"@X c #E5CC00",
"#X c #E8CF00",
"$X c #E5D300",
"%X c #E9D400",
"&X c #E4DC00",
"*X c #ECDB00",
"=X c #F5D80E",
"-X c #EEE300",
";X c #EDE609",
":X c #F2E400",
">X c #F5EB00",
",X c #F8EE01",
"<X c #F6E509",
"1X c #F8F000",
"2X c #F8F00D",
"3X c #F6EE11",
"4X c #F8F11B",
"5X c #EED523",
"6X c #EAE432",
"7X c #808072",
"8X c #B8B56B",
"9X c #F8904C",
"0X c #F6EF53",
"qX c #E2DE69",
"wX c #EEEA75",
"eX c #58A080",
"rX c #57A080",
"tX c #63A486",
"yX c #64A58A",
"uX c #69A78A",
"iX c #6DA88D",
"pX c #70AA8E",
"aX c #78AD93",
"sX c #8F8D88",
"dX c #F8F5A3",
"fX c #DBDBCD",
/* pixels */
"eXeXeXeXeXeXrXeXeXeXeXeXeXeXeXeXrXrXrXeXeXrXeXeXeXeXeXk.k.eXeXeXeXeXrXeXeXeXeXeXeXeXeXeXeXeXeXeXeXeXeXeXeXeXeXeXeXeXeXeXeXeXeXeX",
"eXeXeXeXeXeXeXeXeXeXeXeXeXeXk.eXk.k.rXeXeXeXeXeXrXeXeXeXeXeXeXrXeXeXeXk.eXeXeXeXeXeXeXeXeXeXeXeXeXeXeXeXeXeXeXeXeXtXtXeXeXeXeXeX",
"eXrXeXeXeXeXeXeXeXeXeXrXk.    * ` k.rXrXk.eXeXeXeXeXeXeXeXeXeXeXeXeXeXeXk.eXeXeXeXeXeXeXeXeXk.eXeXeXeXk.eXeXeXeXeXaXiXk.eXeXeXeX",
"eXeXeXeXeXk.eXeXk.eXeXeXrX    * ] eXrXk.eXeXeXeXeXeXeXeXeXeXeXeXeXeXeXeXeXrXeXeXeXeXeXeXeXeXeXeXeXeXeXeXeXiXuXeXeXaXpXeXeXuXiXeX",
"k.eXeXeXeXeXeXeXeXeXeXeXrX    @ l i.g.k.eXeXeXeXrXeXeXrXeXeXeXrXeXeXeXeXeXeXeXeXeXh.a.i.i.d.f.k.eXeXeXeXeXuXiXtXeXuXuXeXuXiXuXeX",
"eXeXrXeXeXk.eXrXeXrXk.eXeX    o , k { h.eXeXeXeXeXeXeXeXeXeXeXeXeXeXeXrXeXeXeXeXeXt.) j j l | j.eXeXeXeXeXeXiXaXeXeXeXeXaXuXeXeX",
"eXeXeXeXeXeXeXeXeXeXeXeXk.          k i.k.k.eXeXeXk.eXeXeXeXk.eXeXeXeXeXk.eXeXk.rX[ ,     = c f.k.eXeXeXeXeXeXtXeXeXeXeXuXeXeXeX",
"eXeXeXeXeXeXeXeXeXeXeXrXrX          , l | d.k.eXeXeXeXeXeXeXeXeXeXeXeXeXeXk.j.O.` / Y U U Y / '  .g.eXrXeXeXeXeXeXeXeXeXeXeXeXeX",
"eXeXeXeXeXeXeXeXeXeXrXrXrX      O   . @ e O.eXeXeXeXeXrXeXeXrXeXk.rXeXeXeXeXh._ ; C G.OXOX~.Q - l i.k.k.eXeXeXeXeXeXeXeXeXeXeXeX",
"eXeXeXeXeXeXeXeXeXeXj.y.j.    O : : $ O 0 | k.k.eXeXeXk.eXeXeXeXeXeXeXeXh.O.{ ! 8 ,. X1X1X&XU . 0 _ p.d.eXeXeXeXeXeXeXeXeXeXeXeX",
"eXk.eXeXk.eXeXeXeXrXh.r.s.    + t D t + 0  .k.k.eXeXeXeXeXeXeXeXeXeXeXeXi.) 9 C <.F.&X1X1XoXW . @ , k ..eXeXeXeXeXeXeXeXeXeXeXeX",
"rXeXeXeXrXeXeXrXeXeXrXj.y.    # f 2.L 8 h } i.g.eXeXeXeXeXeXeXeXeXeXeXeXO.q + U ^.#X>X1X1X&Xx.3 3 3 r X.i.g.eXeXeXeXeXeXeXeXeXeX",
"eXeXeXeXk.eXeXeXeXeXeXeXf.    $ L P.m.b.Q ! ) O.eXk.k.k.eXeXeXeXeXk.k.k.p.q # R @X-X1X1X1X-X~.b.b.b.W / ) | rXeXk.k.eXeXeXeXeXeX",
"eXeXeXeXeXeXeXeXeXk.eXeXeX    : T /.#X>XD.p - ] k.j.k.rXeXeXeXeXeXrXj.j.O.w % E &X>X-X-X-X-X>X>X-X-XF.g = _ g.h.j.j.j.eXeXeXeXeX",
"eXrXeXeXeXeXeXeXeXeXeXeXk.    % T /.#X>X~.T p h _  .h.eXeXeXeXeXeXeXi.[ c C J R ,.l.l.l.l.l.l.l.l.l.Y 3 . 0 ) ) ) ) ) eXeXeXeXeX",
"eXeXeXeXeXeXeXrXeXeXrXeXeX    : T /.@X:XXXn.L 8 = ) g.eXeXeXeXeXeXeX{ q 5 ;.C.H 2 % % % % % % % % % # . O . @ @ @ @ @ eXeXeXeXeX",
"k.eXeXeXeXj.rXrXrXrXrXeXeX    $ K P.|.:X%XT.<.i O q ` } } } { } } } k = % A :.A 6 7 7 6 u i b b b n 5 #       = 0 q q rXeXeXeXeX",
"eXeXeXeXeXf.s.rXrXk.rXrXk.    % S 1.T.:X:X&XG.B   @ , 0 , 0 , 0 0 0 * . X : 5 s D D D $.<.m.F.Q.D.m.T 5       q } O.O.eXeXeXeXeX",
"eXf.h.eXrXs.y.rXk.j.f.eXrX, - 1 s #.A.*X1X,X XW 2 3 5 3 3 5 5 3 3 3 3 5 5 3 5 L 2.M.M.B.Y.).#X:XXXS.;.5   @ ; _ a.eXeXeXeXrXeXeX",
"eXy.y.eXrXy.y.rXk.s.y.rXrX} [ ' h 6 ,.&X1X,X&XS.:.z.v.v.v.v.v.v.v.v.V.v.b.,.,.C.(.(.(.|.$X%X#X@XV.H 6 $ @ q [ O.g.eXeXeXeXeXeXeX",
"eXf.s.s.k.f.f.rXs.s.f.rXk.k.k.i.j   U OX,X,X:X#X/.%X>X1X1X1X1X1X1X1X1X1X-X@X).%X>X,X,X>X>X:X|.T.T 4 . . - ` eXeXrXrXyXyXeXeXeXeX",
"eXrXf.y.j.rXrXrXy.f.k.rXrXk.k.i.j O G !.*X>X>X*X#X-X,X,X1X1X1X1X1X1X1X1X>X*X%X*X,X:X*X+X^.R.c.K C c ) l ) O.eXeXrXrXrXiXeXeXeXeX",
"rXeXrXk.eXeXeXeXk.k.eXeXrXrXk.i.j   A S.+X:X,X,X,X,X1X1X1X1X1X1X1X1X1X1X1X>X>X,X1X*X|.Y.B.>.s # j O.g.g.h.j.tXyXrXrXyXyXeXeXtXiX",
"eXeXeXeXeXrXeXeXrXeXeXrXrXrXk.i.j   m n.^.*X1X,X1X1X1X1X1X1X1X1X1X1X1X1X1X1X,X:X*X`.Y.n.$.S d w ] a.k.k.eXeXeXtXyXyXeXyXeXeXyXeX",
"eXeXeXeXeXeXeXeXeXeXk.eXk.k.k.i.j   p >.S.$X,X1X1X1X1X1X1X1X1X1X1X1X1X1X1X1X,X%X+XY.M.%.s 4 x O.i.rXeXeXeXeXeXeXyXrXrXrXrXyXyXrX",
"eXeXeXeXeXeXeXeXeXeXeXrXk.k.eXa.j   a >.L.$X1X1X1X1X1X1X1X1X1X1X1X1X1X1X1X1X,X%X).Y.M.$.7 @ ) h.eXeXeXeXeXeXeXeXrXrXrXrXrXrXrXrX",
"eXeXeXeXeXrXk.eXeXeXeXeXk.tXuXi.j   a n.^.*X1X1X1X1X1X1X1X1X1X1X1X1X1X1X1X1X,X:X*X|.R.<.u @ ) j.eXeXeXeXeXeXeXeXrXrXrXrXeXeXrXrX",
"eXeXeXrXeXeXeXeXeXeXeXeXk.uXaXi.j   F L.+X;X3XoX&X-X,X1X1X1X1X1X1X1X1X1X1X2X3X;X&X@X).m.p @ ) j.eXeXeXeXeXeXeXrXrXrXrXyXeXeXrXrX",
"eXeXeXeXeXeXeXeXeXiXiXrXrXiXaXi.j   G !.5X0XqXH.E F.-X1X1X1X1X1X1X1X1X1X4X0XwXH.,.V.}.A.s @ ) h.eXeXeXeXeXeXeXeXeXeXeXeXeXeXrXeX",
"eXeXeXeXeXeXeXeXk.yXpXiXrXyXuXs.z   U OX0XdXfXo.% E oX1X1X1X1X1X1X1X1X1X6XdXfX7X& Y ~.G.b @ ) eXeXeXeXeXeXeXeXeXeXeXeXeXeXeXeXeX",
"eXeXeXeXeXrXeXeXk.eXtXsXyX} [ ` ~ 6 z.oX6X8XsX^ 8 c.&X1X1X1X1X1X1X1X1X1X6X8XsXo.p ;. X{.T 8 v [ O.g.eXeXeXeXeXrXeXeXeXrXeXeXeXeX",
"eXeXrXeXeXeXeXeXeXeXeXyXrX0 ; 1 s #.A.*XG.^ r Z $.S.*X1X1X1X1X1X1X1X1X,X}.,.r ( L m..X.Xn.L p ; ) i.eXeXeXeXeXeXeXeXeXeXeXeXeXeX",
"eXeXeXeXeXeXeXeXeXeXeXeXk.    $ S 3.P.`.Z.G m :.N.(.-X1X1X-X X~.oX>X1X1X}.E g T M.L.`.`.P.>.a O e u.rXrXeXeXeXeXrXeXrXf.rXrXrXrX",
"eXeXeXeXeXeXeXeXeXeXeXeXrX    $ K P.K.0.J.C.D.!.|.*X>X1X1XOXx.B V.;X1X1X-XG.D.Q.).W.K.0.J.M.N O e p.eXeXeXeXeXeXeXeXs.r.j.rXrXrX",
"eXrXk.eXeXrXeXeXk.eXeXeXeX    $ T T.0.5.q.`.,X,X1X1X1X1X1X}.U 2 l.-X1X1X1X1X1X,X=X_.7.6.K.A.A O e u.eXeXeXeXf.s.j.eXd.t.j.rXf.s.",
"eXeXeXeXeXeXeXk.eXeXrXrXk.    $ A B.9.6.7.[.].=X1X1X1X1X1X&XD.x.G.-X1X1X1X1X<X=X].U.7.6.9.n.m O e u.eXeXeXeXf.r.f.j.f.y.rXj.s.r.",
"eXk.eXeXeXeXeXeXrXeXeXeXk.    $ f 4.=.+.8.e.9X].1X1X1X1X1X,X>X>X>X,X1X1X1X1X<X].9Xe.6.-.=.&.y O e u.eXeXeXeXrXf.r.f.k.k.rXs.r.j.",
"eXeXeXeXeXeXeXrXeXeXeXeXk.j e w d f @.-.8.w.e.5X1X1X1X>X*X#X|.(.+X%X:X>X1X1X<X'.e.w.5.*.@.f d e } a.eXeXeXeXrXrXs.f.rXeXrXf.f.eX",
"eXeXeXeXeXeXeXeXeXk.eXeXk.u.u. .v : s *.=.8.q._.1X1X1X*X@XE.P.M.L.).#X:X1X1X:XU.8.5.=.@.y & ) O.a.j.eXeXeXeXeXeXrXeXeXeXeXeXrXrX",
"eXrXeXeXeXeXeXeXrXeXeXeXk.k.k.d._ , d S @.-.9._.1X1X1X-X#X^.L.Z.Y.).%X:X1X1X:XI.5.*.@.M r q X.h.eXeXeXeXeXeXeXeXeXrXeXeXeXeXrXeX",
"eXeXeXeXeXeXeXeXrXeXeXeXeXeXk.h.p.| x 7 s @.9./.,X,X1X>X:X%X$X|.$X*X:X>X,X1X:XW.=.D y 9 c O.i.eXeXeXeXeXeXeXeXeXeXeXeXeXeXeXeXeX",
"eXeXeXeXeXeXk.eXeXeXeXeXeXeXk.k.g.a.' 1 y :.N.(.>X>X1X,X>X>X:X:X:X>X>X,X,X>X:XE.n.L 6 9 ] i.g.eXrXeXeXk.rXeXeXeXeXeXrXeXeXeXeXeX",
"eXeXeXrXeXeXeXeXeXeXeXeXeXeXeXg.{ k ! H <.S.(.+X#X*X,X:X%X#X#X@X@X@X*X:X:X*X@X(.^.V.:.J ! ) O.h.eXeXeXeXeXeXeXeXeXeXeXeXeXeXeXeX",
"k.eXeXeXeXeXrXeXeXeXeXeXeXeXrXi.j   A S.+X-X:X@X/.#X>X*X`.^.^./././.@X:X:X@X/.#X>X*X).m.p @ ) eXeXeXeXeXeXeXeXeXeXeXeXeXeXeXrXeX",
"rXeXeXeXeXeXeXeXrXeXrXeXk.` ` ' g y ,.!.#X%X%X#X#X*X,X:X%X+X)./.`.+X*X:X>X%X@X%X%X%X#XF.K p h `  .h.eXeXeXeXeXeXeXrXeXeXeXeXeXeX",
"eXeXeXeXeXeXf.s.j.rXeXeXk.* * & s %.A.%X*X+X+X%X:X,X,X,X:X*X@X/.@X:X>X,X,X>X:X#X).@X*X|.n.#.p - l i.f.s.eXeXeXeXeXeXeXeXeXeXeXeX",
"eXeXj.f.k.eXf.t.h.rXk.f.k.    $ S M.T.:X%X^.Y.#X1X1X1X1X1X:X%X+X*X,X1X1X1X1X>X.XL.).-X$XY.<.s   e u.s.r.eXeXj.f.rXeXeXeXk.eXeXrX",
"eXeXs.r.j.eXs.t.f.k.f.t.f.  O : K L.|.:X#XP.Z.XX1X1X1X1X1X,X:X:X:X,X1X1X1X1X:X^.M.W.*X*X/.N.N O e u.s.r.eXeXs.r.k.eXeXeXeXeXeXeX",
"eXeXj.s.s.f.j.s.rXf.s.s.j.    : W `.+X*X(.Z.Z.XX1X1X1X1X1X1X1X1X1X1X1X1X1X1X>X^.M.L..X%X+XR.G   q r.f.f.eXs.s.f.eXeXeXeXeXeXeXeX",
"eXeXrXj.r.f.rXrXeXs.s.eXrX    2 ,.%X(.T.T.!.XX&X1X1X1X1X1X1X1X1X1X1X1X1X1X1X>X%X(.!.Y.T.|.(.U X q u.k.k.k.y.s.eXeXeXeXeXeXeXeXeX",
"eXeXrXrXj.k.eXeXeXk.j.eXk.    2 x.>X^.2.Z..X1X1X1X1X1X1X1X1X1X1X1X1X1X1X1X1X1X1X1X(.M.N.XXoXW X e u.eXeXeXk.k.eXeXeXeXeXeXeXeXeX",
"eXeXeXeXeXeXeXrXeXeXrXrXk.k k x Q z.c.N.Y.%X1X1X1X1X1X1X1X1X1X1X1X1X1X1X1X1X1X1X1X.XP.M.c.E 8 O e u.eXeXrXrXrXeXeXeXeXeXeXeXeXeX",
"eXeXeXeXeXrXeXeXeXeXeXk.k.a.i.p.v 2 H Z.).*X1X,X1X1X,X1X1X1X1X1X1X,X1X1X,X1X1X1X1X%X/.m.N % X   e p.eXeXrXeXrXeXeXeXeXeXeXeXeXeX",
"rXeXeXeXeXeXeXeXeXeXeXk.eXeXk.i.j O m n.E.@X:X>X1X:X-X%X@X|.|.|.|..X@X*X:X:X,X:X*X+XY.<.u O - q ` a.eXeXeXeXeXeXeXeXeXeXeXeXeXeX",
"eXeXeXeXeXeXeXeXeXeXk.k.k.k.k.i.k   p >.B.^.+X-X,X*X@XE.S.N.N.N.N.N.L.^.@X-X>X*X+XY.N.$.5 o e | i.h.rXeXeXeXeXeXeXeXk.eXrXeXeXeX",
"eXeXeXeXeXeXeXeXeXeXk.k.k.u.u. .h 5 A 2.B.P.T.(.{.Q.Z.2.>.#.#.#.$.#.>.m.S.Q.{.^.Y.P.B.:.N 9 c p.a.k.eXeXeXeXeXeXeXrXeXeXeXeXeXeX",
"eXeXeXeXeXeXeXk.k.eXeXeXeXj j v Q b.D.~.T.Z.2.;.G B N i y t t 6 t t u a M B Y :.n.P.T.Q.V.x.I j [ d.eXeXeXrXeXeXeXeXeXeXeXeXeXk.",
"eXeXk.eXeXeXeXeXeXeXeXeXk..   2 x.-X-X>XXXM.#.y .   . . .     . .   .   . . X a >.Z..X>X-XOXW + k u.eXeXeXeXeXeXk.eXrXeXeXeXeXeX",
"eXeXeXeXeXeXeXeXeXeXeXeXk.l l c I l.l.,.R A p h l k l l l l l l l l l l l z z V p J W ,.l.E / l { g.eXeXk.eXeXeXeXeXeXeXeXeXeXeX",
"eXeXeXrXeXeXrXeXeXeXeXeXk.a.d.p.x % % % # + < ` g.a.d.a.d.a.g.a.a.a.d.d.g.g.u.l # # % % % 1 c d.g.k.eXeXeXeXeXeXeXeXeXeXeXrXeXeX",
"rXeXeXeXeXeXeXeXeXeXeXeXk.k.k.i.j           - ` eXeXeXeXeXeXrXeXeXeXeXeXk.eXg.l .         @ _ h.k.eXeXeXk.rXeXeXeXeXeXeXeXeXeXeX",
"eXeXeXeXeXeXeXeXeXeXeXeXk.k.k.k.rXeXrXrXrXeXeXeXeXrXeXeXeXeXeXeXeXeXeXeXk.eXeXeXeXeXk.rXrXeXrXeXrXeXeXeXeXeXeXeXrXk.eXeXeXeXeXk.",
"eXeXk.eXeXeXk.eXeXeXeXrXeXeXk.k.eXeXeXeXrXeXeXeXk.eXeXeXeXeXeXeXeXeXeXeXeXeXeXeXeXeXrXeXeXeXeXeXeXrXeXeXeXeXeXeXeXeXeXeXeXeXeXeX",
"rXeXeXeXeXeXrXeXeXeXk.eXeXrXrXk.eXeXeXeXeXeXrXeXeXeXeXeXeXeXeXeXeXeXeXeXeXeXeXeXeXeXeXeXeXk.eXk.eXeXeXeXeXeXeXeXeXeXeXeXeXrXeXeX"
};
