/* XPM */
static char *_0de7601cd2740b4f796f106609e436e8yrOV9x2HiKRJCVE[] = {
/* columns rows colors chars-per-pixel */
"62 64 201 2 ",
"   c None",
".  c #010101",
"X  c #0A0502",
"o  c #0D0B03",
"O  c #0C0C0C",
"+  c #140B02",
"@  c #1B0E04",
"#  c #141104",
"$  c #1B120A",
"%  c #191609",
"&  c #0D0F10",
"*  c #0F1010",
"=  c #101010",
"-  c #1A1A1A",
";  c #1E1710",
":  c #251404",
">  c #2A1604",
",  c #251F08",
"<  c #241808",
"1  c #3A1E05",
"2  c #201811",
"3  c #262108",
"4  c #2B2409",
"5  c #2F280A",
"6  c #372709",
"7  c #3C330D",
"8  c #26251D",
"9  c #3E2814",
"0  c #252525",
"q  c #2C2C2C",
"w  c #292624",
"e  c #333333",
"r  c #393736",
"t  c #3F3A27",
"y  c #442306",
"u  c #4A2607",
"i  c #5B2F08",
"p  c #443B0F",
"a  c #493E0F",
"s  c #5D3009",
"d  c #473D11",
"f  c #62330A",
"g  c #6E390B",
"h  c #69380B",
"j  c #743C0B",
"k  c #783D0B",
"l  c #663911",
"z  c #4C4210",
"x  c #5A4E14",
"c  c #534712",
"v  c #5E5115",
"b  c #5C430F",
"n  c #7E420C",
"m  c #7A4912",
"M  c #6C5C17",
"N  c #635516",
"B  c #756419",
"V  c #7A691A",
"C  c #484539",
"Z  c #494A4A",
"A  c #474645",
"S  c #504D4B",
"D  c #535352",
"F  c #57585A",
"G  c #5A5A5A",
"H  c #555658",
"J  c #65635F",
"K  c #6C635B",
"L  c #79634F",
"P  c #5F6062",
"I  c #626262",
"U  c #B83229",
"Y  c #F33F36",
"T  c #83440D",
"R  c #8E4A0D",
"E  c #88460D",
"W  c #944D0E",
"Q  c #984F0E",
"!  c #9D510F",
"~  c #905C13",
"^  c #A5550F",
"/  c #A45510",
"(  c #AB5911",
")  c #A75810",
"_  c #B35D10",
"`  c #B85E11",
"'  c #826E1B",
"]  c #86721B",
"[  c #89761D",
"{  c #8F7A1E",
"}  c #947E1F",
"|  c #98711A",
" . c #BB6111",
".. c #B86613",
"X. c #AA751A",
"o. c #B77A1A",
"O. c #B94C28",
"+. c #8D7921",
"@. c #AF6A2E",
"#. c #AE713B",
"$. c #BE7432",
"%. c #B47237",
"&. c #A06735",
"*. c #CC6A13",
"=. c #C56914",
"-. c #D26D13",
";. c #DD7215",
":. c #DE7A17",
">. c #C37217",
",. c #E27515",
"<. c #ED7B16",
"1. c #E77C1C",
"2. c #F57F17",
"3. c #F87F17",
"4. c #F37E19",
"5. c #F4731D",
"6. c #DF5431",
"7. c #F45D28",
"8. c #F44236",
"9. c #CE772A",
"0. c #DA7924",
"q. c #C07431",
"w. c #F46922",
"e. c #F46027",
"r. c #F66435",
"t. c #F86736",
"y. c #F57327",
"u. c #866549",
"i. c #966C47",
"p. c #83794D",
"a. c #826850",
"s. c #B2871F",
"d. c #9A8420",
"f. c #978120",
"g. c #A28B22",
"h. c #A38622",
"j. c #AD9424",
"k. c #B99E27",
"l. c #B79625",
"z. c #B5942D",
"x. c #BDA228",
"c. c #C8861D",
"v. c #F78017",
"b. c #F98117",
"n. c #F68419",
"m. c #FA8418",
"M. c #F68C1B",
"N. c #F98B1B",
"B. c #F7951F",
"V. c #DD9922",
"C. c #F79C20",
"Z. c #F89F22",
"A. c #F88F35",
"S. c #F8922C",
"D. c #C2A72C",
"F. c #CAAD2B",
"G. c #C7A829",
"H. c #CEB02B",
"J. c #D3B32C",
"K. c #DEBD2E",
"L. c #D9BB36",
"P. c #F8A223",
"I. c #F9AD27",
"U. c #F6A123",
"Y. c #E9BA2C",
"T. c #FAB529",
"R. c #FBBC2B",
"E. c #F9B027",
"W. c #E3C22F",
"Q. c #FCC32E",
"!. c #FAC72F",
"~. c #E5C331",
"^. c #ECCA31",
"/. c #E8C731",
"(. c #F3CE32",
"). c #FCCB30",
"_. c #F6D234",
"`. c #FCD534",
"'. c #FDD835",
"]. c #FFDB36",
"[. c #FEDA35",
"{. c #FFDC36",
"}. c #FFDE36",
"|. c #FDD935",
" X c #FDD93A",
".X c #918655",
"XX c #B5A24A",
"oX c #D5B941",
"OX c #FCDC4D",
"+X c #FCDE57",
"@X c #E1CD75",
"#X c #818181",
"$X c gray67",
"%X c #FFEB93",
"&X c #C3C3C4",
"*X c gray86",
"=X c #F3EED6",
"-X c #F9F6E7",
";X c white",
":X c #FAF9F4",
">X c #E6E6E7",
/* pixels */
"                                                                                                        . X .               ",
"                                                                                                        . . .               ",
"                                                                                                        . . .               ",
"                                  . . . . X .                                                     . . v d.d.B X .           ",
"                                  . . . . . .                                                   X . . V {.{.g.. . X         ",
"                                  . . . . . .                                                   . . . V {.{.g.. . .         ",
"                                = q q 0 X . .                                                   x B M s.T.E.c.g g l         ",
"                            . . = G I G O . .                                             . . . d. X XE.2.2.2.b.b.` X . .   ",
"                            . . * F P G * . .                                             . . . f.{.|.E.3.v.4.4.v. .X . .   ",
"                            . . ; p..XL % . .                                             d z z s.Q.R.Z.4.4.3.3.v. .X . .   ",
"                            . . 5 /.|.K.3 . .                           . . . . . . . . X l.'._.P.v.v.v.4.2.3.4.b. .X . .   ",
"                            . . 5 /.{.W.3 . .                           . . . . . . . . X k.{.|.U.v.2.v.2.2.3.b.b. .X . .   ",
"                            4 4 c Y.!.Y., . .                           = = = = = O X . X l.).!.Z.2.2.2.4.v.,.*.*.! o X .   ",
"                      . . d ~./.Y.M.N.,.: . .               . . . . . - H G G G G D O . . ..N.n.n.4.2.2.v.b.) + + $         ",
"                      . . a _.|.!.n.2.;.: . .             . . . . . . - G I I I I G * . . _ 2.2.2.2.2.2.3.b.! . . .         ",
"                      . . a _.|.!.M.n.:.6 o %             % + # # # + w J P G G G D ; + @ ` b.2.2.2.2.<.,.,.Q . . X         ",
"                      . . z _.|.`.).).!.J.H.F.7 . . . . . B J.J.H.J.J.z.J P D - = 2 ( *.=.<.v.4.v.4.v.W > > >               ",
"                      . . d _.|.|.|.|.|.|.|._.7 . . . . . ' {.{. X X}.oXJ P D O . + *.b.2.v.4.v.2.3.v.n . . .               ",
"                      X . z _.|.|.|.|.|.|.|._.7 X . . . . ] {.|.{.|.|.oXJ P D X . + *.v.2.2.3.4.4.4.4.n . . .               ",
"                . . x j.j.G.`.|.|.`.|.|.|.|.`.D.j.j.j.j.j.J.|.|.|.|.{.D.8 - - . . + *.v.2.2.3.2.R u u 6                     ",
"              . . . M {.{.{.|.|.|.|.|.|.|.`.|.|.|.{.|.{. X|.|.|.|.|.{.k.X . . . . + *.2.2.2.2.2.i . . .                     ",
"              . . . N |.|.|.|.|.`.|.|.`.|.|.|.|.|.|.|.|.|.|.`.|.|.|.|.x.X . . . . + *.b.v.2.2.v.s . . .                     ",
"          . . v [ ] k.|.|.|.`.|.|.|.|.|.|.`.|.|.|.|.|.|.|.|.|.|.!.P.I.o.X . X e e r l j j -.b.2._ T T i . X                 ",
"        . . . [ }.|.|.|.|.`.|.{.|.|.|.|.|.|.|.|.|.`.|.|.|.|.|.|.T.2.v.` X . * G I G O . . _ b.2.2.b.m.T . . .               ",
"        . . . ] |.|.|.|.|.|.`.`.|.|.|.|.`.|.|.|.`.|.|.|.|.|.|.|.T.4.3.` X . O G I G & . . ` m.b.3.3.b.n . . .               ",
"        D I P XX[.|.|.|.|.`.|.|.`.|.|.|.|.|.|.|.|.|.`.|.`.|.|.|.Q.P.P.o.X . O G I P q 0 w m Q W *.v.v.n . . .               ",
"  . . X $X;X;X%X'.'.|.|.|.|.|.|.`.|.`.|.|.|.|.|.`.|.|.|.|.|.`.|.|.'.|.k.X . = G I I P P P - . . W b.3.T . . .               ",
"  X . . $X;X;X%X`.'.'.|.|.`.|.`.|.|.|.|.|.|.`.|. X|.|.|.|.|.|.|.|.|.{.k.X . O G I I I P P - . . W m.m.n . . .               ",
"  X . . #X&X&X@X`.|.|.|.|.|.|.|.|.|.|.|.|.|.|.|.|.|.|.'.'.'.|.|.|.|.|.G.6 1 9 A Z Z Z Z Z 9 1 1 E  . .g . . .               ",
"  . . . O O O +.[.|.|.|.'.'.`.'.|.|.|.|.|.|.|.|.`.|.|.|.'.'.|.|.|.`.|.Q.<.<.=.@ X . . X X ( <.<.f X X X                     ",
"  . . . . . . ] [.|.|.|.'.'.'.'.|.|.`.`.|.|.|.|.|.|.|.|.'.|.|.|.|.|.{.Q.2.3.*.+ . . . . X _ b.v.f . . .                     ",
"  O . . # < % d.[.|.|.|.'.'.'.'. XOXOXOXK.K.K._.|.|.|.`.'._.|.|.`.).).T.v.3.-.+ . . . . . ! ;.-.s . .                       ",
"  . . . f.W.K.(.'.'.'.'.|.|.|.`.OX-X-X*Xt % , G.|.'.'.'.|.|.|.|.R.M.n.n.v.v.*.+ . . . . . + @ @ <                           ",
"  X . . j.{.|.|.'.'.'.'.'.|.|.|.+X:X;X>Xw . X D.].'.'.|.|.|.|.|.T.4.2.4.v.v.*.+ . . . . . . . .                             ",
"  . . . g._.^._.'.'.'.'.'.'.|.|.+X-X:X*X0 . X k.`.`._.`._.'.|.|.T.4.2.4.1.n.=.@ . X . . . . . .                             ",
"        5 7 7 g.|.'.'.'.'.'.|.|.L.C r e X . X O.r.r.r.t.t.A.|.|.T.4.v.0.a.a.L S Z A O . .                                   ",
"        . . . [ |.|.|.|.|.|.|.|.H.o . . . . X U 8.8.8.Y Y A.|.|.E.2.2.9.J I I I I G = . .                                   ",
"        . . . ] |.|.'.|.|.|.|.|.H.# . . . . X U 8.8.8.8.Y A.|.|.T.2.3.9.J I I I I G = . .                                   ",
"              a v x | B.B.E.`.'./.j.d.g.g.g.h.6.8.8.7.w.w.n.P.Z.B.2.2.1.q.$.$.$.q.@.$ . .                                   ",
"              . . . f b.2.B.'.'.|.{.{.}. X X`.t.8.8.w.b.2.2.2.4.2.2.2.2.3.3.2.2.b.,.> . .                                   ",
"              . . . f 2.2.B.'.'.|.|.|.|.|.|.`.r.8.8.w.v.2.v.v.b.2.2.2.2.2.2.2.2.b.,.> . .                                   ",
"          .   x V V X.2.2.M.I.I.E.E.I.P.I.I.I.y.7.e.5.2.v.` n n ( 2.v.2.2.2.1.%.#.&.$ . .                                   ",
"        . . . [ }.{.T.v.2.2.2.2.4.4.2.2.2.2.4.2.2.2.v.v.v.k . . i 4.2.2.n.2.0.K P F = . .                                   ",
"        . . . +.}.{.T.n.b.b.2.2.2.2.2.2.2.2.2.2.2.4.v.v.b.k . . i 2.v.2.v.b.0.K P F = . .                                   ",
"        . . . v j.j.X.) ^ ..B.Z.Z.B.Z.B.B.B.Z.Z.Z.B.>.^ ) m c z ~ 2.v.v.v.<.:.i.i.u.$ . .                                   ",
"        . . . . . . . X . z _.'.|.|.|.`.`.`.`.`.`.`.x . . V |.|.T.v.v.v.v.v.v.v.4.;.> . .                                   ",
"        . . . . . . . . . z `.'.[.'.|.|.|.|.[.`.|.|.x . . ] {.{.T.v.v.<.v.v.v.<.2.,.: . .                                   ",
"        . . . . . . + > > b F.H.J._.|.|.|.|.[.[.|.|.V 5 5 V H.H.V.v.v.v.v.<.v.v.2.,.> . .                                   ",
"              . . . i ,.<.^ @ o 7 ^.|.|.|.|.|.|.|.|.(.^.(.V o o h 2.4.v.2.2.2.2.3.;.> . .                                   ",
"              . . . f 3.m._ . . 5 ^.|.|.|.|.|.|.|.|.|.|.|.V . . i 4.v.4.2.4.2.2.v.,.> . .                                   ",
"              . . . i ,.,.! X . 4 J./.~.~.~./.!.).`.).`.'.' + + h 2.2.2.2.2.<.,.;.*.> . .                                   ",
"              . . . o : : @ . . X , 3 3 3 4 5 >.M.M.M.M.M.,.*.*.;.2.v.4.2.v.-.1 : <                                         ",
"              . . . . . . . . . . . . . . . X ` b.v.2.2.2.2.2.b.2.2.2.2.2.b.*.+ . .                                         ",
"              . . . . . . . . . . . . . . . X ` 4.<.<.<.<.4.<.<.2.2.2.2.<.4.*.+ . .                                         ",
"                                              6 y y y y y y y y T 2.v.=.u u 1 . . .                                         ",
"                                              . . . . . . . . . i 2.v._ . . . . . .                                         ",
"                                              . . . . . . . . . i 3.b.` . . . . . .                                         ",
"                                                    . . . z f.{ l.E.T.V.W R j X . .                                         ",
"                                                    . . . ' }. X|.|.[.Q.m.m.-.+ . .                                         ",
"                                                    . . . ] }. X|.[.}.Q.m.m.-.+ . .                                         ",
"                                                      X . v f.} } } } | W R T $ . X                                         ",
"                                                          X . . . . . . . . .                                               ",
"                                                          X . . . . . . . . .                                               ",
"                                                            . . . . . . . . .                                               "
};
