/* XPM */
static char *aed98480b0bd462af692a655f8ad7482clVQDZESf8oSyzft[] = {
/* columns rows colors chars-per-pixel */
"64 64 9 1 ",
"  c None",
". c black",
"X c #D03800",
"o c #A06800",
"O c #B87020",
"+ c #D8B000",
"@ c #F8F000",
"# c #F88058",
"$ c #F8F8F8",
/* pixels */
"                                                                ",
"                                                                ",
"                                                                ",
"                                                                ",
"                                                                ",
"                                                                ",
"                                                                ",
"                                                                ",
"                                                                ",
"                                                                ",
"                                                                ",
"                                                                ",
"                                ........                        ",
"                                ........                        ",
"                                  ............                  ",
"                                  ............                  ",
"        ....                        ..oo++++++......            ",
"        ....                        ..oo++++++......            ",
"      ..@@@@..                        ..++@@oo++++oo....        ",
"      ..@@@@..                        ..++@@oo++++oo....        ",
"    ....@@@@@@..                        ..++@@@@@@@@@@++..      ",
"    ....@@@@@@..                        ..++@@@@@@@@@@++..      ",
"  ..@@@@@@@@@@@@..                    ..++@@@@@@@@@@@@@@++..    ",
"  ..@@@@@@@@@@@@..                    ..++@@@@@@@@@@@@@@++..    ",
"  ..@@@@@@@@@@@@++..        ..........oooo++@@@@@@@@@@@@@@..    ",
"  ..@@@@@@@@@@@@++..        ..........oooo++@@@@@@@@@@@@@@..    ",
"    ..++@@@@@@@@@@..          ....oo++@@@@@@@@@@@@@@@@@@@@oo..  ",
"    ..++@@@@@@@@@@..          ....oo++@@@@@@@@@@@@@@@@@@@@oo..  ",
"      ....++@@@@@@..            ......++@@@@@@@@@@++..$$++++..  ",
"      ....++@@@@@@..            ......++@@@@@@@@@@++..$$++++..  ",
"          ..++@@@@....      ......oo++..oo++@@@@@@@@oo..@@@@..  ",
"          ..++@@@@....      ......oo++..oo++@@@@@@@@oo..@@@@..  ",
"          ..@@@@@@@@++..  ..oooo++oo++++@@@@@@@@@@XX##@@@@++..  ",
"          ..@@@@@@@@++..  ..oooo++oo++++@@@@@@@@@@XX##@@@@++..  ",
"          ..++@@@@++@@....oo++oo++oooo@@@@@@++OO++XXXX@@XXXX..  ",
"          ..++@@@@++@@....oo++oo++oooo@@@@@@++OO++XXXX@@XXXX..  ",
"            ......oo++oo..oo++oooo++oo@@@@@@@@++OOoo@@@@##..    ",
"            ......oo++oo..oo++oooo++oo@@@@@@@@++OOoo@@@@##..    ",
"                  ....oooooo++++oo@@++@@@@@@@@@@@@@@oo....      ",
"                  ....oooooo++++oo@@++@@@@@@@@@@@@@@oo....      ",
"                    ......oooo++@@@@@@@@@@++OO++@@++..          ",
"                    ......oooo++@@@@@@@@@@++OO++@@++..          ",
"                          ..++++++@@@@@@@@@@oooo....            ",
"                          ..++++++@@@@@@@@@@oooo....            ",
"                          ..@@++oo++@@@@@@++....                ",
"                          ..@@++oo++@@@@@@++....                ",
"                          ..++@@++oo++++oo..                    ",
"                          ..++@@++oo++++oo..                    ",
"                            ..@@..........                      ",
"                            ..@@..........                      ",
"                              ..                                ",
"                              ..                                ",
"                                                                ",
"                                                                ",
"                                                                ",
"                                                                ",
"                                                                ",
"                                                                ",
"                                                                ",
"                                                                ",
"                                                                ",
"                                                                ",
"                                                                ",
"                                                                "
};
