/* XPM */
static char *_3a557b2417841df800b5d366b27bd62D2fNJ6wBHnGxUbmJ[] = {
/* columns rows colors chars-per-pixel */
"64 64 27 1 ",
"  c None",
". c black",
"X c #111111",
"o c #2D2D2D",
"O c gray20",
"+ c #393939",
"@ c #520F0F",
"# c #444444",
"$ c #555555",
"% c #881818",
"& c #A31D1D",
"* c #893030",
"= c #B42E2E",
"- c #F52C2C",
"; c #F87272",
": c #888888",
"> c #9F9F9F",
", c #AAAAAA",
"< c gray69",
"1 c #F98A8A",
"2 c #FCB9B9",
"3 c gray80",
"4 c #DDDDDD",
"5 c #FDD0D0",
"6 c #EEEEEE",
"7 c #F4F4F4",
"8 c white",
/* pixels */
"                                                                ",
"                                                                ",
"                                                                ",
"                                                                ",
"                                                                ",
"                                                                ",
"                                                                ",
"                                                                ",
"                                                                ",
"                        OOOOOOOOOOOOOOOO                        ",
"                        OOOOOOOOOOOOOOOO                        ",
"                        OOOOOOOOOOOOOOOO                        ",
"                        OOOOOOOOOOOOOOOO                        ",
"                 .......================OOOX...                 ",
"                 .......----------------OOOX...                 ",
"                 .......----------------OOOX...                 ",
"                 .......----------------OOOX...                 ",
"             ....-------8888;------------------....             ",
"             ....-------8888;------------------....             ",
"             ....-------8888;------------------....             ",
"             ....---122288885222---------------....             ",
"             ....---288888888888---------------....             ",
"             ....---288888888888---------------....             ",
"             ....---288888888888---------------....             ",
"         ....&----------8888;---------------------&....         ",
"         ....&----------8888;---------------------&....         ",
"         ....&----------8888;---------------------&....         ",
"         ....&----------8888;---------------------&....         ",
"         ....&----------;;;;*@@@@@@%--------------&....         ",
"         ....&--------------@......@--------------&....         ",
"         ....&--------------@......@--------------&....         ",
"         ....&--------------@......@--------------&....         ",
"         ........-------....,888333:....-------........         ",
"         ........-------....,888333:....-------........         ",
"         ........-------....,888333:....-------........         ",
"         ....+$$$&&&&&&&....>666333:....&&&&&&&###o....         ",
"         ....,888...........:333333:...........333:....         ",
"         ....,888...........:333333:...........333:....         ",
"         ....,888...........:333333:...........333:....         ",
"         ....,888...........:333333:...........333:....         ",
"             ....88888888888$......#33333333333....             ",
"             ....88888888888$......#33333333333....             ",
"             ....88888888888$......#33333333333....             ",
"             ....44478888888<::::::>33333333333....             ",
"             ....333688888884333333333333333333....             ",
"             ....333688888884333333333333333333....             ",
"             ....333688888884333333333333333333....             ",
"                 .......3333333333333333.......                 ",
"                 .......3333333333333333.......                 ",
"                 .......3333333333333333.......                 ",
"                 .......::::::::::::::::.......                 ",
"                        ................                        ",
"                        ................                        ",
"                        ................                        ",
"                        ................                        ",
"                                                                ",
"                                                                ",
"                                                                ",
"                                                                ",
"                                                                ",
"                                                                ",
"                                                                ",
"                                                                ",
"                                                                "
};
