/* XPM */
static char *c2783416614c45d2e4140a5814764d11Y4BvWaWROGMO17MY[] = {
/* columns rows colors chars-per-pixel */
"64 64 6 1 ",
"  c None",
". c black",
"X c gray20",
"o c #F52C2C",
"O c gray80",
"+ c white",
/* pixels */
"                                                                ",
"                                                                ",
"                                                                ",
"                                                                ",
"                                                                ",
"                                                                ",
"                                                                ",
"                                                                ",
"                                                                ",
"                                                                ",
"                                                                ",
"                                                                ",
"                         XXXXXXXXXXXXXX                         ",
"                         XXXXXXXXXXXXXX                         ",
"                         XXXXXXXXXXXXXX                         ",
"                         XXXXXXXXXXXXXX                         ",
"                   ......ooooooooooooooXXX...                   ",
"                   ......ooooooooooooooXXX...                   ",
"                   ......ooooooooooooooXXX...                   ",
"                ...oooooo++++oooooooooooooooo...                ",
"                ...oooooo++++oooooooooooooooo...                ",
"                ...oooooo++++oooooooooooooooo...                ",
"                ...ooo++++++++++ooooooooooooo...                ",
"                ...ooo++++++++++ooooooooooooo...                ",
"                ...ooo++++++++++ooooooooooooo...                ",
"            ....ooooooooo++++ooooooooooooooooooo....            ",
"            ....ooooooooo++++ooooooooooooooooooo....            ",
"            ....ooooooooo++++ooooooooooooooooooo....            ",
"            ....ooooooooo++++ooooooooooooooooooo....            ",
"            ....ooooooooooooo......ooooooooooooo....            ",
"            ....ooooooooooooo......ooooooooooooo....            ",
"            ....ooooooooooooo......ooooooooooooo....            ",
"            .......oooooo....+++OOO....oooooo.......            ",
"            .......oooooo....+++OOO....oooooo.......            ",
"            .......oooooo....+++OOO....oooooo.......            ",
"            ....+++..........OOOOOO..........OOO....            ",
"            ....+++..........OOOOOO..........OOO....            ",
"            ....+++..........OOOOOO..........OOO....            ",
"            ....+++..........OOOOOO..........OOO....            ",
"                ...++++++++++......OOOOOOOOOO...                ",
"                ...++++++++++......OOOOOOOOOO...                ",
"                ...++++++++++......OOOOOOOOOO...                ",
"                ...OOO+++++++OOOOOOOOOOOOOOOO...                ",
"                ...OOO+++++++OOOOOOOOOOOOOOOO...                ",
"                ...OOO+++++++OOOOOOOOOOOOOOOO...                ",
"                   ......OOOOOOOOOOOOOO......                   ",
"                   ......OOOOOOOOOOOOOO......                   ",
"                   ......OOOOOOOOOOOOOO......                   ",
"                         ..............                         ",
"                         ..............                         ",
"                         ..............                         ",
"                         ..............                         ",
"                                                                ",
"                                                                ",
"                                                                ",
"                                                                ",
"                                                                ",
"                                                                ",
"                                                                ",
"                                                                ",
"                                                                ",
"                                                                ",
"                                                                ",
"                                                                "
};
