/* XPM */
static char *de1ee06a9fb74426c586ed7d9f6a145cK8BOgqC2bnKy5AOj[] = {
/* columns rows colors chars-per-pixel */
"64 64 7 1 ",
"  c None",
". c black",
"X c #D03800",
"o c #A06800",
"O c #D8B000",
"+ c #F8F000",
"@ c #F88058",
/* pixels */
"                                                                ",
"                                                                ",
"                                                                ",
"                                                                ",
"                                                                ",
"                                                                ",
"                                                                ",
"                                                                ",
"                           ..........                           ",
"                           ..........                           ",
"                         ..OOOO....              ....           ",
"                         ..OOOO....              ....           ",
"                       ..OO++OO..              ..++++..         ",
"                       ..OO++OO..              ..++++..         ",
"                       ..++OO......          ..++++++....       ",
"                       ..++OO......          ..++++++....       ",
"                     ..OO++++OOOOoo....      ..++++++++++..     ",
"                     ..OO++++OOOOoo....      ..++++++++++..     ",
"                   ..OO++++++++++++OOoo..  ..++++++++++++..     ",
"                   ..OO++++++++++++OOoo..  ..++++++++++++..     ",
"                   ..++++++++++++++++OOoo....++++++++++..       ",
"                   ..++++++++++++++++OOoo....++++++++++..       ",
"                 ..OO++++++++++++++++++OOoo..............       ",
"                 ..OO++++++++++++++++++OOoo..............       ",
"                 ..++++++++++++++++++++OO++++++OOoo....         ",
"                 ..++++++++++++++++++++OO++++++OOoo....         ",
"                 ....OO++++++++++++++++++++++OOoo....           ",
"                 ....OO++++++++++++++++++++++OOoo....           ",
"               ..@@++++++++++oo++++++++++oo......++OO..         ",
"               ..@@++++++++++oo++++++++++oo......++OO..         ",
"               ..XX++++..++++++....++++OO....OO++OO..           ",
"               ..XX++++..++++++....++++OO....OO++OO..           ",
"               ..OO++++++++++++++++XX++OO....OOoo..             ",
"               ..OO++++++++++++++++XX++OO....OOoo..             ",
"                 ..++++XX++++++++@@XXOOoo..oooo..               ",
"                 ..++++XX++++++++@@XXOOoo..oooo..               ",
"                   ..OO@@++++++++XXooOOoo..oooooo..             ",
"                   ..OO@@++++++++XXooOOoo..oooooo..             ",
"             ..  ..oo..ooooOOOOOOOOoo++OO..oooo..               ",
"             ..  ..oo..ooooOOOOOOOOoo++OO..oooo..               ",
"           ..++..OO..OO++++++++OOoo++++oo..oo..                 ",
"           ..++..OO..OO++++++++OOoo++++oo..oo..                 ",
"           ..++OO..oo++++++++....++++OOoooo....                 ",
"           ..++OO..oo++++++++....++++OOoooo....                 ",
"           ..OO++..oo++++++..++OO..OOooOOoo..                   ",
"           ..OO++..oo++++++..++OO..OOooOOoo..                   ",
"             ..ooOO..OO++++..++++..ooOOoooo..                   ",
"             ..ooOO..OO++++..++++..ooOOoooo..                   ",
"               ..ooooooOOOO..OO++..OOOOoo..                     ",
"               ..ooooooOOOO..OO++..OOOOoo..                     ",
"                 ......oooo..ooOO..oooo..                       ",
"                 ......oooo..ooOO..oooo..                       ",
"                       ........oo......                         ",
"                       ........oo......                         ",
"                             ......                             ",
"                             ......                             ",
"                                                                ",
"                                                                ",
"                                                                ",
"                                                                ",
"                                                                ",
"                                                                ",
"                                                                ",
"                                                                "
};
