/* XPM */
static char *_a228b4965b24b80a38048bbab29315dEbelmgnPuCrukLFH[] = {
/* columns rows colors chars-per-pixel */
"64 64 7 1 ",
"  c None",
". c black",
"X c #D03800",
"o c #A06800",
"O c #D8B000",
"+ c #F8F000",
"@ c #F88058",
/* pixels */
"                                                                ",
"                                                                ",
"                                                                ",
"                                                                ",
"                                                                ",
"                                                                ",
"                                                                ",
"                                                                ",
"                                                                ",
"                                                                ",
"                                                                ",
"                       ........                                 ",
"                       ........                                 ",
"                     ........                  ....             ",
"                     ........                  ....             ",
"                   ..OOOO....                ..++++..           ",
"                   ..OOOO....                ..++++..           ",
"                 ..OO++OO..                ..++++++....         ",
"                 ..OO++OO..                ..++++++....         ",
"                 ..++++oo....              ..++++++++++..       ",
"                 ..++++oo....              ..++++++++++..       ",
"                 ..++OOOOOOoo....        ..++++++++++++..       ",
"                 ..++OOOOOOoo....        ..++++++++++++..       ",
"               ..OO++++++++++OOoo..      ..++++++++++..         ",
"               ..OO++++++++++OOoo..      ..++++++++++..         ",
"               ..++++++++++++++++oo..............OO..           ",
"               ..++++++++++++++++oo..............OO..           ",
"             ..OO++++++++++++++++OO++++++OOoo......             ",
"             ..OO++++++++++++++++OO++++++OOoo......             ",
"             ..++++++++++++++++++++++++OOoo........             ",
"             ..++++++++++++++++++++++++OOoo........             ",
"             ....OO++++++++++++++++oo........OO++OO..           ",
"             ....OO++++++++++++++++oo........OO++OO..           ",
"           ..@@++++++++++oo++++++++OO..  ..OO++OO..             ",
"           ..@@++++++++++oo++++++++OO..  ..OO++OO..             ",
"           ..XX++++..++++++....++OOOO..  ..OOoo..               ",
"           ..XX++++..++++++....++OOOO..  ..OOoo..               ",
"           ..OO++++++++++++++++XXOOoo....oooo..                 ",
"           ..OO++++++++++++++++XXOOoo....oooo..                 ",
"             ..OO++@@++++++++@@XXOOOOoo..oooooo..               ",
"             ..OO++@@++++++++@@XXOOOOoo..oooooo..               ",
"           ..  ..OO++++++++++XXooooOOOO..oooo..                 ",
"           ..  ..OO++++++++++XXooooOOOO..oooo..                 ",
"         ..++..oo..ooooOOOOOOOOOOoo++oooo....                   ",
"         ..++..oo..ooooOOOOOOOOOOoo++oooo....                   ",
"         ..++OO..oo++++++++....oo++++oooo....                   ",
"         ..++OO..oo++++++++....oo++++oooo....                   ",
"         ..OO++..oo++++++..++OO..++OOoooo..                     ",
"         ..OO++..oo++++++..++OO..++OOoooo..                     ",
"           ..ooOO..OO++++..++++..OOooOOoo..                     ",
"           ..ooOO..OO++++..++++..OOooOOoo..                     ",
"             ..ooooooOOOO..OO++..ooOOoo..                       ",
"             ..ooooooOOOO..OO++..ooOOoo..                       ",
"               ......oooo..ooOO..oooo..                         ",
"               ......oooo..ooOO..oooo..                         ",
"                     ........oo......                           ",
"                     ........oo......                           ",
"                           ......                               ",
"                           ......                               ",
"                                                                ",
"                                                                ",
"                                                                ",
"                                                                ",
"                                                                "
};
