/* XPM */
static char *_e85d4e23e6a4c01a5c446d42ec86edaFVhTjXKC1KuB6Bxn[] = {
/* columns rows colors chars-per-pixel */
"64 64 167 2 ",
"   c #293E02",
".  c #2B370D",
"X  c #2B380A",
"o  c #2E2F16",
"O  c #2F2A1E",
"+  c #2C3311",
"@  c #322921",
"#  c #3B2C2B",
"$  c #3D3127",
"%  c #403825",
"&  c #46382D",
"*  c #452F35",
"=  c #483038",
"-  c #284101",
";  c #284A06",
":  c #294D0A",
">  c #28530D",
",  c #2F4E12",
"<  c #2C5316",
"1  c #285911",
"2  c #255818",
"3  c #2F5C1C",
"4  c #245213",
"5  c #305015",
"6  c #286116",
"7  c #286519",
"8  c #286C1D",
"9  c #3B6117",
"0  c #30601F",
"q  c #3E661A",
"w  c #326E1F",
"e  c #3B691C",
"r  c #206424",
"t  c #2F6623",
"y  c #296E20",
"u  c #326325",
"i  c #267124",
"p  c #297121",
"a  c #23742B",
"s  c #2B752D",
"d  c #317424",
"f  c #3B7725",
"g  c #327926",
"h  c #367C29",
"j  c #3A7E2A",
"k  c #267733",
"l  c #297733",
"z  c #25793B",
"x  c #327A33",
"c  c #3D703C",
"v  c #377F3F",
"b  c #44671D",
"n  c #41681C",
"m  c #564038",
"M  c #5D473C",
"N  c #477525",
"B  c #4C7225",
"V  c #427927",
"C  c #497827",
"Z  c #47742A",
"A  c #417F2B",
"S  c #4B7B2A",
"D  c #177C46",
"F  c #1D7B42",
"G  c #137E4A",
"H  c #1B7F4C",
"J  c #207F4D",
"K  c #2D7850",
"L  c #44774A",
"P  c #43784B",
"I  c #427344",
"U  c #3C812C",
"Y  c #3F8431",
"T  c #3A813F",
"R  c #44832E",
"E  c #428730",
"W  c #488731",
"Q  c #458932",
"!  c #4A8D35",
"~  c #4B8E38",
"^  c #558733",
"/  c #588E36",
"(  c #4D9037",
")  c #4E9139",
"_  c #52953B",
"`  c #5B933A",
"'  c #56983D",
"]  c #5A9A3E",
"[  c #11804F",
"{  c #148153",
"}  c #198051",
"|  c #1D8459",
" . c #27814A",
".. c #34844B",
"X. c #2E8255",
"o. c #21845D",
"O. c #2D845D",
"+. c #338453",
"@. c #268661",
"#. c #2B8764",
"$. c #2F8867",
"%. c #2F8868",
"&. c #308766",
"*. c #328C67",
"=. c #318868",
"-. c #3A8E6D",
";. c #3E946F",
":. c #3F9171",
">. c #458A40",
",. c #4A8F4B",
"<. c #4D924E",
"1. c #529545",
"2. c #5C9D42",
"3. c #428A53",
"4. c #4C875F",
"5. c #468E5C",
"6. c #4A915B",
"7. c #6C9E46",
"8. c #5FA043",
"9. c #63A445",
"0. c #65A549",
"q. c #6CA348",
"w. c #69A949",
"e. c #71AE4F",
"r. c #71AE52",
"t. c #7DAF55",
"y. c #74B252",
"u. c #7AB656",
"i. c #7DB759",
"p. c #7DB959",
"a. c #499162",
"s. c #4D956B",
"d. c #5A9F62",
"f. c #449474",
"g. c #499777",
"h. c #4D9979",
"j. c #579F7F",
"k. c #559E7E",
"l. c #559E7D",
"z. c #589F7F",
"x. c #529A73",
"c. c #5DA36D",
"v. c #5CA37D",
"b. c #70AF66",
"n. c #80BB5B",
"m. c #81BC5C",
"M. c #82BD5D",
"N. c #83BE5E",
"B. c #84BF5F",
"V. c #83BE5E",
"C. c #84BE61",
"Z. c #87C161",
"A. c #85C060",
"S. c #86C060",
"D. c #8AC363",
"F. c #88C262",
"G. c #8BC464",
"H. c #8CC565",
"J. c #8FC767",
"K. c #8DC666",
"L. c #8CC565",
"P. c #8FC868",
"I. c #90C868",
"U. c #90C868",
"Y. c #57A080",
"T. c #58A080",
"R. c #58A080",
/* pixels */
"T.T.T.T.T.T.T.T.T.T.T.T.T.T.T.T.R.R.R.R.R.R.R.R.R.R.R.R.R.R.R.v.z.z.T.T.T.T.T.T.R.R.R.R.R.R.R.R.R.R.R.R.R.R.R.R.R.R.R.R.R.R.R.R.",
"T.T.T.T.T.T.T.T.T.T.T.T.T.T.T.T.R.R.R.R.R.R.R.R.R.R.Y.s.+.6.c.3.3.d.6.3.s.j.T.T.R.R.R.R.R.R.Y.Y.R.R.R.R.R.R.R.R.R.R.R.R.R.R.R.R.",
"T.T.T.T.T.T.T.T.T.T.T.T.T.T.T.T.R.R.R.R.R.R.R.R.R.s.5.,.) ) ) R R ( ) ~ <.5.a.T.R.R.R.R.R.Y.k.h.R.R.R.R.R.R.R.R.R.R.R.R.R.R.R.R.",
"T.T.T.T.T.T.T.T.T.T.T.T.T.T.T.T.R.R.R.R.R.R.R.R.s.>.j 0.L.y.! e.e.! y.L.0.Y >.s.R.R.R.h.j.Y.g.-.R.R.h.Y.R.R.R.R.R.R.R.R.R.R.R.R.",
"T.T.T.T.T.T.T.T.T.T.T.T.T.T.T.T.R.R.R.R.z.z.R.x.x u.u.n.m.u.U.U.U.U.u.m.p.u.u.x x.v.Y.f.g.k.h.:.Y.k.-.h.R.R.R.R.R.R.R.R.R.R.R.R.",
"T.T.T.T.T.T.T.T.T.T.T.T.T.T.T.T.R.R.R.R.v.z.l.p 9.C.U.U.U.U.U.U.U.U.P.U.U.U.m.9.p l.R.R.:.f.v.T.k.=.k.R.R.R.R.R.R.R.R.R.R.R.R.R.",
"T.T.T.T.T.T.T.T.T.T.T.T.T.T.T.T.R.R.R.R.Y.Y.v.C.F.y.m.U.U.U.U.U.U.U.U.U.U.m.y.L.Z.v.T.Y.j.j.T.T.Y.j.Y.R.R.R.R.R.R.R.R.R.R.R.R.R.",
"T.T.T.T.T.T.T.T.T.T.T.T.T.T.T.T.R.R.R.R.R.Y.l.Y C.r.m.U.U.U.U.U.U.U.U.U.U.m.r.C.U l.T.Y.Y.Y.T.T.Y.R.Y.Y.R.R.R.R.R.R.R.R.R.R.R.R.",
"T.T.T.T.T.T.T.T.T.T.T.T.T.T.T.T.T.3...T <.b.v _ S.S.G.J.U.U.U.U.U.U.U.U.U.F.F.F._ T b.<.K T 3.T.R.R.R.R.R.R.R.R.R.R.R.R.R.R.R.R.",
"T.T.T.T.T.T.T.T.T.T.T.T.T.T.j.3.c 3 S 9.9.1.0.w.y.G.U.S.m.U.U.U.U.U.U.m.F.U.F.u.w.9.] 2.0.S 3 c 3.R.R.R.R.R.R.R.R.R.R.R.R.R.R.R.",
"T.T.T.T.T.T.T.T.T.T.T.T.R.R.v.s S B q.u.2.2.i.w.u.G.U.S.u.m.m.U.U.m.p.p.V.U.F.u.w.u.2.8.i.7.B S s z.R.R.R.R.R.R.R.R.R.R.R.R.R.R.",
"T.T.T.T.T.T.T.Y.T.T.k.h.l.5.a.Y y.9.w.2.! Z.w.w.G.J.U.U.S.y.u.U.U.u.y.Z.U.U.U.F.w.w.F.~ 2.w.0.y.Y 6.5.l.R.R.R.Y.R.R.R.R.R.R.R.R.",
"T.T.T.T.T.T.T.k.j.j.g.*.6.Y Y 9.w._ 2.2.( e.w.w.m.S.H.U.U.U.U.U.U.U.U.U.U.P.F.V.w.w.y.! ] 2._ w.9.Y Y 6.l.j.z.Y.R.R.R.R.R.R.R.R.",
"T.T.T.T.T.T.T.-.g.j.g.+.Q G.J.w.G.U.P.p._ U w.w.w.w.m.U.U.U.U.H.H.P.U.U.U.m.9.w.w.w.U ' p.P.U.F.r.G.G.Q a.z.v.Y.R.R.R.R.R.R.R.R.",
"T.T.T.T.T.T.z.z.-.g.j.c.w.w.w.L.U.U.J.p.w.w.w.w.w.w.m.U.U.U.F.w.w.D.U.U.U.V.w.0.9.w.w.w.p.U.U.U.G.w.w.w.c.z.R.R.R.R.R.R.R.R.R.R.",
"T.T.T.T.T.T.T.j.j.j.5.t b L.L.J.U.U.J.0.d U 9.g 8.w.w.w.u.S.w.w.0.w.F.u.w.w.w.9.g 9.h s w.U.U.U.J.G.G.b t 5.R.R.R.R.R.R.R.R.R.R.",
"T.T.T.T.T.T.T.T.v.3.1.u.t.U.U.U.U.U.n.9.! p U ] U 2.w.w.w.e.w.w.w.w.e.w.0.w.2.U ' U p ! w.M.U.U.J.U.U.t.t.1.3.v.Y.Y.T.T.T.T.T.T.",
"T.T.T.T.T.T.T.*...t ^ U.U.J.y.y.G.n.e.0.9._ _ U p ] ( ' w.w.9.w.9.w.w.w.' ) ] p U _ _ 9.w.w.n.F.y.y.J.U.U.^ t ..*.Y.T.T.T.T.T.T.",
"T.T.T.T.T.T.T.| r q 7.U.G.y.Q 9.F.B.y.e.p.y.Q ( 6 V g ( 9.2.( w.w.! 8.w.! g R 1 ( Q y.p.e.e.V.F.9.Q y.L.U.7.n r o.Y.Y.T.T.T.T.T.",
"T.T.T.T.T.T.T. .4 C e.n.u.9.Q 9.C.U.B.M.P.B._ ( 6 1 1 f W C g w.9.U C W f 1 1 1 ( _ A.U.V.V.U.F.9.E 9.u.n.y.C 4  .v.Y.Y.T.T.T.T.",
"R.R.R.R.T.T.T.x : C w.w.w.y.y.y.F.U.U.U.U.U.F.~ R 6 : 1 1 > w w.9.w > 1 1 ; 6 R ! D.U.U.U.U.U.G.y.y.y.w.w.w.S : x j.T.T.T.T.T.T.",
"R.R.R.R.T.T.k.x > S e.w.e.U.P.U.U.U.U.U.U.U.U.U.w.U y 1 6 w 9 ] 2.9 w 6 6 p U w.U.U.U.U.U.U.U.U.U.U.P.e.w.w.S > x k.T.T.T.T.T.T.",
"R.R.R.R.R.Y.*.l > C e.p.y.U.U.U.U.U.U.U.U.U.U.U.e.U p d ! w.9.p d 8.w.! p d U e.U.U.U.U.U.U.U.U.U.U.U.y.n.r.C > l *.j.T.T.T.T.T.",
"R.R.R.R.R.Y.*.s p > - B P.U.U.U.U.U.U.U.U.U.U.U.w.w.w.9.u.U.S.w.w.F.U.y.w.0.w.w.U.U.U.U.U.U.U.U.U.U.U.U.B - > p l =.Y.T.T.T.T.T.",
"R.R.R.R.=.-.%.s > N R R y.P.P.P.U.U.U.U.P.P.U.P.D.D.y.w.u.U.K.F.F.J.J.u.w.y.F.G.U.U.U.U.U.U.U.U.U.P.P.y.R R N > s =.=.-.R.R.R.R.",
"R.R.R.R.%.%.| 2 Z R Q ( ( P.P.P.U.U.n.y.p.P.P.y.D.U.D.A.F.U.U.U.J.J.J.G.S.G.J.G.y.G.U.u.y.n.U.U.U.P.P.( ( Q E N 2 | &.&.R.R.R.R.",
"R.R.R.R.g.g.f.5 ^ 2.! h U u.P.P.U.n.w.w.w.e.) 0.D.U.U.A.m.U.U.U.U.J.U.n.N.U.P.G.w._ r.w.w.e.n.U.U.U.u.j h ! 2.^ , s.g.g.R.R.R.R.",
"R.R.R.R.v.j.I Z 0.e.( g ! ) u.p.p.p.p.y.0.2.g u.P.U.U.A.p.p.p.U.U.n.p.p.F.P.J.J.u.s 2.w.y.u.u.u.p.p.( ! g ( r.q.Z K z.z.R.R.R.R.",
"R.R.R.R.R.j.: ` u.u.8.Q Q p ( 9.w.m.P.p.9.Q g L.m.G.U.U.A.u.p.U.J.p.u.F.J.U.J.m.K.g Q 8.p.P.m.w.9.) p ! Q 2.p.u.` ; z.R.R.R.R.R.",
"R.R.R.R.R.z.5 W w.p.p.9.h p p ) ' y.A.e.Q 7 g e.w.A.U.U.U.U.U.U.P.J.J.J.J.U.S.w.e.p 7 Q e.A.y.' ) p p h 9.p.p.w.W < z.R.R.R.R.R.",
"R.R.R.R.R.j.s g w.p.u.p.8.g y y y ( 2.Q 6 ; 7 y ' p.D.K.U.U.U.F.G.J.J.J.G.F.n.' y 8 ; 6 Q 8.( y p p g 2.p.u.i.q.g d k.R.R.R.R.R.",
"R.R.R.R.R.j.y ] w.p.p.w.w.8.p p y y y 8 6   - y y ' 9.u.K.K.A.w.w.F.J.G.p.9.' p y - - 6 y y y y y p 8.9.w.p.p.w.] s z.R.R.R.R.R.",
"R.R.R.R.z.z., ` 9.w.w.9.] g 9.s p p 1 - - - ; p p p p ( w.w.w.w.w.w.9.w.! p p p p - - - - 1 y y g 9.g 2.w.w.w.0.` : k.R.R.R.R.R.",
"R.R.R.R.z.z.; t U _ w._ U 2.w.d y > - > 1 - - ; ; 7 p i U g U w.w.U U g p p 8 ; ; ; - 1 > ; 1 p d w.2.U ' w._ g w : z.R.R.R.R.R.",
"R.R.R.R.R.z.4.h 8 g U U U 8.U > 8 : n R 8 7 7 6 ; ; 6 p p p p U U p p p p 6 ; ; 6 6 6 8 A n > 7 1 U 9.U h U h p g 4.R.R.R.R.R.R.",
"R.R.R.R.R.R.R.u 7 p 8 p d W _ ; 7 f ` 8.) Q p ( ; 1 7 p U Y y y p p Y U p 8 > ; ( p W ( ] ` V 7 ; ) E p y y y 7 u R.R.R.R.R.R.R.",
"R.R.R.R.R.R.R.L 7 1 1 1 1 p ~ 6 8 _ w.w.w.8.! 9.C w 8 U _ 9.R y 8 E 8._ U p w C 9.! 8.w.w.w.( 8 6 W p 1 1 1 1 3 L R.R.R.R.R.R.R.",
"R.R.R.R.R.R.R.R.P < - - ; p i p U ! 2.0.w.w.w.w.w.U 8 ! 9.9.! p p ! 9.w.Q p U w.w.w.w.w.w.2.( U p y y ; - - 5 L R.R.R.R.R.R.R.R.",
"R.R.R.R.R.R.R.R.z.L , - - 7 6 h _ E _ w.w.w.w.9.9.U p U ] ' 8 i p p ' ] U 8 U 9.w.w.w.w.w.( E ( j 7 7 ; - , L z.R.R.R.R.R.R.R.R.",
"R.R.R.R.R.R.R.R.z.z.K : : - - / U ' 9.9.9.8.w.w.8.g 8 1 e ( p p p 8 ( q > 8 U 8.w.w.8.9.9.9.' U / - - ; , K z.v.R.R.R.R.R.R.R.R.",
"R.R.R.R.R.R.R.R.Y.f.%.%.K   - - / 9.Q W ' g w.9.g y > - > i y y 8 8 8 > - > y g 9.9.U ) Y Y w./ -   - K =.%.f.R.R.R.R.R.R.R.R.R.",
"R.R.R.R.R.R.R.R.:.*.%.@.D 7 - - 7 1 6 p p p d d p > 1 > - : 8 - ; 8 > - 1 1 : p d d p p p 6 1 8 - - 7 D @.%.=.:.R.R.R.R.R.R.R.R.",
"R.R.R.R.z.z.R.f.*.| F a i p 7 - ; 1 1 1 7 ; p 8 > - - - - - ; -   ; - - - ; - : p p > 7 1 1 1 ; - 8 p a a J o.*.f.R.R.R.R.R.R.R.",
"R.R.R.R.R.k.f.=.| F a p p y 6 > - ; 1 7 7 ; ; > - - - X + o + - - + + + X - - - : > - 6 7 1 ; - > 1 8 p 8 y F | =.:.Y.R.R.R.R.R.",
"R.R.R.R.f.f.=.o.F i 8 i 8 6 > 1 > ; ; > ; - ; - - -   + $ & @ + + @ & $ + - -   - ; - > > ; ; : 1 1 6 8 y p a F o.=.:.f.R.R.R.R.",
"R.R.R.R.$.&.=.F a p 8 8 6 1 1 1 > : ; ; - ; ; -   - - . & M # # # # M & + - - - - : -   ; ; : 1 1 1 1 6 8 y y a F =.$.=.R.R.R.R.",
"R.R.R.R.=.=.@.a p p 8 6 1 1 1 1 1 1 > ; - - - - - - - . & M = = = = M & . - -   - - - - ; > 4 1 1 1 1 1 6 8 y y s @.=.$.R.R.R.R.",
"R.R.R.R.%.=.G a p i 7 > 1 1 1 > 1 1 ; - - - - - - - - . $ m = = = = m $ . - - - - - - - - ; 1 1 1 1 1 > 1 7 i y a G $.=.R.R.R.R.",
"R.R.R.R.=.$.G a y y 7 > 1 1 1 4 1 1 ; - - - -   - - - - X O # = = # @ X   -   - - - - - - ; 1 1 > 1 1 1 > 7 p p a [ $.%.R.R.R.R.",
"R.R.R.R.=.%.G k y y 7 1 1 1 1 1 1 > ; - - - - - -   -   - X @ @ @ O X - - - - - - - - - - ; 1 4 1 1 1 > 1 7 p p a { %.=.R.R.R.R.",
"R.R.R.R.=.$.$.l p y 7 1 1 > 1 1 1 1 1 ; - - - -   - - - -         X - - - -   -   - - - ; 1 1 1 1 1 1 1 1 7 p p a $.%.=.R.R.R.R.",
"R.R.R.R.%.=.=.H a i 8 7 1 1 1 1 1 1 1 > > ; - - - - -   - -   - - - - - -   - -   - : > > 1 1 1 1 4 1 1 7 8 p a H %.%.%.R.R.R.R.",
"R.R.R.R.g.g.=.#.k y y y 6 1 1 1 1 1 1 1 1 1 > ; - - - - - - - -   -   - -   - - > > > 1 1 1 1 > 1 1 1 6 p p 8 k #.=.g.g.R.R.R.R.",
"R.R.R.R.R.R.=.=.X.k p p p 6 6 1 1 1 1 > 1 1 1 1 > ; ; ;   - - - - - - - ; ; ; > > 1 1 1 > 1 1 1 1 6 6 p p p l +.*.=.R.R.R.R.R.R.",
"R.R.R.R.R.R.f.=.$.X.z a p i p 6 7 1 1 1 > 1 1 1 1 1 1 > ; ; ; ; ; ; ; ; > 1 1 1 1 1 > 1 1 1 1 6 6 p p i a z X.&.=.f.R.R.R.R.R.R.",
"R.R.R.R.R.R.R.f.*.$.o.} k a p p 8 7 6 6 1 1 1 1 > 1 1 4 1 1 1 > 1 1 1 4 1 1 > 1 1 1 1 2 6 6 7 p p p a k [ o.&.*.f.R.R.R.R.R.R.R.",
"R.R.R.R.R.R.R.R.f.*.*.=.#.H l a y y y y 8 1 6 1 1 1 1 1 1 1 1 1 1 1 1 1 1 1 1 1 1 1 6 8 8 y p p a l H #.%.%.=.f.R.R.R.R.R.R.R.R.",
"R.R.R.R.R.R.R.R.v.f.=.*.=.=.=.{ k i i i i p y y 1 1 1 1 1 1 1 1 1 1 1 1 4 1 1 6 y y p a y a i l H %.%.%.=.-.f.R.R.R.R.R.R.R.R.R.",
"R.R.R.R.R.R.R.R.T.T.j.g.=.=.=.%.%.=.| G D y y y p p i p p y y y p 8 p 8 8 8 8 p y y y F [ | &.%.%.%.=.=.g.R.R.R.R.R.R.R.R.R.R.R.",
"R.R.R.R.R.R.R.R.T.T.T.j.Y.h.=.%.=.%.%.#.#.O.O.[ G G a y y i p y p p p p p a [ [ G O.O.#.#.#.&.*.%.%.h.k.j.R.R.R.R.R.R.R.R.R.R.R.",
"R.R.R.R.R.R.R.R.R.R.R.R.Y.Y.h.h.h.:.%.=.%.*.%.@.@.@.O.X.X.X.O.X.O.X.X.X. .O.@.@.#.%.%.%.=.=.-.h.Y.h.Y.Y.R.R.R.R.R.R.R.R.R.R.R.R.",
"R.R.R.R.R.R.R.R.R.R.R.R.Y.Y.R.R.R.h.g.g.f.%.*.%.#.%.%.%.%.%.&.*.&.%.%.%.%.%.%.%.=.=.=.f.g.g.h.R.Y.Y.Y.Y.R.R.R.R.R.R.R.R.R.R.R.R.",
"R.R.R.R.R.R.R.R.R.R.R.R.R.R.R.R.R.R.R.Y.k.f.g.f.f.g.f.f.g.f.f.f.g.f.g.f.f.g.g.f.f.f.f.k.R.R.R.R.R.R.Y.Y.R.R.R.R.R.R.R.R.R.R.R.R.",
"R.R.R.R.R.R.R.R.R.R.R.R.R.R.R.R.R.R.R.Y.Y.Y.Y.Y.Y.T.Y.Y.T.Y.Y.Y.Y.v.Y.Y.Y.Y.Y.Y.R.R.R.R.R.R.R.R.R.R.Y.Y.R.R.R.R.R.R.R.R.R.R.R.R."
};
